<svg width="150" height="27" viewBox="0 0 150 27" fill="none" xmlns="http://www.w3.org/2000/svg">
<path d="M145.821 5V7.439C145.821 7.58818 145.872 7.73126 145.963 7.83675C146.053 7.94224 146.176 8.0015 146.304 8.0015C146.431 8.0015 146.554 7.94224 146.644 7.83675C146.735 7.73126 146.786 7.58818 146.786 7.439V5H147.429V8.18825C147.429 8.33743 147.479 8.48051 147.57 8.586C147.66 8.69149 147.783 8.75075 147.911 8.75075C148.039 8.75075 148.161 8.69149 148.252 8.586C148.342 8.48051 148.393 8.33743 148.393 8.18825V5H149.518C149.646 5 149.768 5.05926 149.859 5.16475C149.949 5.27024 150 5.41332 150 5.5625V11.75H141V5.5625C141 5.41332 141.051 5.27024 141.141 5.16475C141.232 5.05926 141.354 5 141.482 5H145.821ZM141 12.875V14.189C141 14.6366 141.152 15.0658 141.424 15.3822C141.695 15.6987 142.063 15.8765 142.446 15.8765H144.214V18.5C144.214 18.8978 144.35 19.2794 144.591 19.5607C144.832 19.842 145.159 20 145.5 20C145.841 20 146.168 19.842 146.409 19.5607C146.65 19.2794 146.786 18.8978 146.786 18.5V15.8765H148.554C148.744 15.8765 148.932 15.8329 149.107 15.748C149.283 15.6632 149.442 15.5389 149.576 15.3822C149.711 15.2255 149.817 15.0395 149.89 14.8348C149.963 14.63 150 14.4106 150 14.189V12.875H141Z" fill="white"/>
<path d="M12.76 19.648L1.65 14.346V12.784L12.76 7.504V9.352L3.52 13.488V13.62L12.76 17.822V19.648ZM16.6504 20V4.71H18.4984L18.3884 19.252L17.5524 18.416L23.9104 18.372V20H16.6504ZM26.9087 20.022L26.9747 13.004L26.9087 4.71H28.7787L28.6907 11.464L28.7787 20L26.9087 20.022ZM33.837 20L33.925 12.916L33.837 4.71C33.837 4.71 33.9837 4.69533 34.277 4.666C34.585 4.63667 34.9884 4.6 35.487 4.556C35.9857 4.512 36.5284 4.47533 37.115 4.446C37.7164 4.41667 38.3104 4.402 38.897 4.402C40.2024 4.402 41.2144 4.83467 41.933 5.7C42.6517 6.55067 43.011 7.834 43.011 9.55C43.011 10.6207 42.879 11.508 42.615 12.212C42.3657 12.916 42.021 13.466 41.581 13.862C41.141 14.2433 40.6497 14.5147 40.107 14.676C39.5644 14.8373 39.007 14.918 38.435 14.918C37.9804 14.918 37.4744 14.9033 36.917 14.874C36.3597 14.83 35.949 14.8007 35.685 14.786V20H33.837ZM38.567 13.356C39.0364 13.356 39.4177 13.334 39.711 13.29C40.0044 13.2313 40.239 13.114 40.415 12.938C40.6644 12.6887 40.833 12.2633 40.921 11.662C41.009 11.046 41.053 10.2687 41.053 9.33C41.053 8.538 41.009 7.92933 40.921 7.504C40.8477 7.064 40.7524 6.74867 40.635 6.558C40.5324 6.36733 40.4224 6.23533 40.305 6.162C40.1584 6.05933 39.9164 5.97867 39.579 5.92C39.2564 5.84667 38.8824 5.81 38.457 5.81C37.885 5.81 37.3424 5.83933 36.829 5.898C36.3304 5.942 35.949 5.99333 35.685 6.052V13.092C35.8904 13.1213 36.2717 13.1727 36.829 13.246C37.401 13.3193 37.9804 13.356 38.567 13.356ZM51.9662 20.308C51.2036 20.308 50.4776 20.1907 49.7882 19.956C49.1136 19.7213 48.5122 19.318 47.9842 18.746C47.4709 18.1593 47.0676 17.3453 46.7742 16.304C46.4809 15.2627 46.3342 13.9353 46.3342 12.322C46.3342 10.7087 46.4809 9.38867 46.7742 8.362C47.0676 7.33533 47.4709 6.536 47.9842 5.964C48.5122 5.37733 49.1136 4.974 49.7882 4.754C50.4776 4.51933 51.2036 4.402 51.9662 4.402C52.7436 4.402 53.4696 4.51933 54.1442 4.754C54.8189 4.974 55.4129 5.37733 55.9262 5.964C56.4542 6.536 56.8649 7.33533 57.1582 8.362C57.4516 9.38867 57.5982 10.7087 57.5982 12.322C57.5982 13.9353 57.4516 15.2627 57.1582 16.304C56.8649 17.3453 56.4542 18.1593 55.9262 18.746C55.4129 19.318 54.8189 19.7213 54.1442 19.956C53.4696 20.1907 52.7436 20.308 51.9662 20.308ZM51.9662 18.636C52.5969 18.636 53.1396 18.57 53.5942 18.438C54.0636 18.2913 54.4449 18.0053 54.7382 17.58C55.0462 17.1547 55.2736 16.5313 55.4202 15.71C55.5669 14.874 55.6402 13.7667 55.6402 12.388C55.6402 11.0093 55.5669 9.902 55.4202 9.066C55.2882 8.23 55.0756 7.59933 54.7822 7.174C54.4889 6.734 54.1076 6.44067 53.6382 6.294C53.1689 6.14733 52.6116 6.074 51.9662 6.074C51.3062 6.074 50.7416 6.14733 50.2722 6.294C49.8176 6.44067 49.4436 6.734 49.1502 7.174C48.8569 7.59933 48.6369 8.23 48.4902 9.066C48.3582 9.902 48.2922 11.0093 48.2922 12.388C48.2922 13.7667 48.3656 14.874 48.5122 15.71C48.6589 16.5313 48.8789 17.1547 49.1722 17.58C49.4656 18.0053 49.8469 18.2913 50.3162 18.438C50.7856 18.57 51.3356 18.636 51.9662 18.636ZM63.8737 20L59.7377 4.71H61.6297L65.1277 18.372H65.2597L68.7577 4.71H70.6497L66.5137 20H63.8737ZM71.3066 20L75.4646 4.71H78.0606L82.2186 20H80.3266L79.1606 15.424L80.0846 15.952H73.4846L74.3646 15.424L73.1986 20H71.3066ZM74.4086 15.182L73.7926 14.324H79.7326L79.1166 15.182L76.6306 5.524L77.6646 6.338H75.8606L76.8946 5.524L74.4086 15.182ZM85.0755 20V4.71H87.5615L93.7875 17.778H93.8535L93.5675 4.71H95.4155V20H92.9295L86.7035 6.932H86.6375L86.9235 20H85.0755ZM102.449 20L102.493 6.272L98.2027 6.338V4.71H108.543V6.338L104.253 6.272L104.297 20H102.449ZM116.235 20.308C115.472 20.308 114.746 20.1907 114.057 19.956C113.382 19.7213 112.781 19.318 112.253 18.746C111.739 18.1593 111.336 17.3453 111.043 16.304C110.749 15.2627 110.603 13.9353 110.603 12.322C110.603 10.7087 110.749 9.38867 111.043 8.362C111.336 7.33533 111.739 6.536 112.253 5.964C112.781 5.37733 113.382 4.974 114.057 4.754C114.746 4.51933 115.472 4.402 116.235 4.402C117.012 4.402 117.738 4.51933 118.413 4.754C119.087 4.974 119.681 5.37733 120.195 5.964C120.723 6.536 121.133 7.33533 121.427 8.362C121.72 9.38867 121.867 10.7087 121.867 12.322C121.867 13.9353 121.72 15.2627 121.427 16.304C121.133 17.3453 120.723 18.1593 120.195 18.746C119.681 19.318 119.087 19.7213 118.413 19.956C117.738 20.1907 117.012 20.308 116.235 20.308ZM116.235 18.636C116.865 18.636 117.408 18.57 117.863 18.438C118.332 18.2913 118.713 18.0053 119.007 17.58C119.315 17.1547 119.542 16.5313 119.689 15.71C119.835 14.874 119.909 13.7667 119.909 12.388C119.909 11.0093 119.835 9.902 119.689 9.066C119.557 8.23 119.344 7.59933 119.051 7.174C118.757 6.734 118.376 6.44067 117.907 6.294C117.437 6.14733 116.88 6.074 116.235 6.074C115.575 6.074 115.01 6.14733 114.541 6.294C114.086 6.44067 113.712 6.734 113.419 7.174C113.125 7.59933 112.905 8.23 112.759 9.066C112.627 9.902 112.561 11.0093 112.561 12.388C112.561 13.7667 112.634 14.874 112.781 15.71C112.927 16.5313 113.147 17.1547 113.441 17.58C113.734 18.0053 114.115 18.2913 114.585 18.438C115.054 18.57 115.604 18.636 116.235 18.636ZM126.206 20L126.316 12.762L126.25 4.71C126.411 4.68067 126.675 4.65133 127.042 4.622C127.409 4.59267 127.827 4.56333 128.296 4.534C128.765 4.50467 129.242 4.48267 129.726 4.468C130.225 4.43867 130.687 4.424 131.112 4.424C132.109 4.424 132.975 4.578 133.708 4.886C134.441 5.194 135.006 5.7 135.402 6.404C135.798 7.09333 135.996 8.01733 135.996 9.176C135.996 10.452 135.717 11.464 135.16 12.212C134.603 12.96 133.796 13.4587 132.74 13.708V13.774L136.194 20H134.016L130.936 13.928L128.076 13.818V20H126.206ZM131.332 12.388C132.417 12.388 133.136 12.1313 133.488 11.618C133.855 11.09 134.038 10.2687 134.038 9.154C134.038 8.24467 133.957 7.55533 133.796 7.086C133.649 6.602 133.444 6.28667 133.18 6.14C133.019 6.03733 132.769 5.964 132.432 5.92C132.109 5.86133 131.757 5.832 131.376 5.832C130.775 5.832 130.159 5.86133 129.528 5.92C128.912 5.97867 128.435 6.03 128.098 6.074L128.054 12.168C128.567 12.2267 129.11 12.278 129.682 12.322C130.269 12.366 130.819 12.388 131.332 12.388Z" fill="white"/>
</svg>
