<?xml version="1.0" standalone="no"?>
<!DOCTYPE svg PUBLIC "-//W3C//DTD SVG 1.1//EN" "http://www.w3.org/Graphics/SVG/1.1/DTD/svg11.dtd" >
<svg xmlns="http://www.w3.org/2000/svg" xmlns:xlink="http://www.w3.org/1999/xlink" version="1.1">
<metadata>
Created by FontForge 20201107 at Thu Jul 22 19:03:51 2021
 By Jimmy Wärting
Copyright 2019 The Ruda Project Authors (https://github.com/marmonsalve/Ruda-new)
</metadata>
<defs>
<font id="Ruda-Regular" horiz-adv-x="295" >
  <font-face 
    font-family="Ruda"
    font-weight="400"
    font-stretch="normal"
    units-per-em="1000"
    panose-1="2 0 0 0 0 0 0 0 0 0"
    ascent="800"
    descent="-200"
    x-height="582"
    cap-height="695"
    bbox="-47 -233 894 1030"
    underline-thickness="50"
    underline-position="-125"
    unicode-range="U+000D-2260"
  />
<missing-glyph horiz-adv-x="276" 
 />
    <glyph glyph-name=".notdef" horiz-adv-x="276" 
 />
    <glyph glyph-name="space" unicode=" " horiz-adv-x="240" 
 />
    <glyph glyph-name="A" unicode="A" horiz-adv-x="506" 
d="M5 0l189 695h118l189 -695h-86l-53 208l42 -24h-300l40 24l-53 -208h-86zM146 219l-28 39h270l-28 -39l-113 439l47 -37h-82l47 37z" />
    <glyph glyph-name="B" unicode="B" horiz-adv-x="614" 
d="M323 -14q-37 0 -74.5 2.5t-68.5 6t-51 6t-23 3.5l4 319l-5 374q4 0 24 2t51 4.5t66.5 4t69.5 1.5q55 0 99 -17t70.5 -57.5t26.5 -111.5q0 -55 -16.5 -87t-39 -47.5t-41 -20.5t-21.5 -5l6 39v-79l-11 38q12 0 35.5 -5.5t47.5 -21.5t41 -47.5t17 -83.5q0 -65 -17.5 -107.5
t-47.5 -66.5t-66.5 -33.5t-75.5 -9.5zM334 51q65 0 86 36t21 111t-34.5 103t-94.5 28h-161l38 21l2 -326l-2 37q5 0 25 -2.5t51 -5t69 -2.5zM320 394q62 0 83.5 29.5t21.5 96.5q0 71 -26 99t-87 28q-35 0 -63 -2t-46 -4t-23 -3l9 39v-306l-38 24z" />
    <glyph glyph-name="C" unicode="C" horiz-adv-x="583" 
d="M312 -14q-71 0 -125 34.5t-84.5 112.5t-30.5 207q0 114 19.5 186.5t54 112.5t81.5 55t102 15q24 0 57 -2.5t64 -6t47 -7.5l-10 -72q-9 1 -29 3t-44 4t-46 3.5t-34 1.5q-49 0 -78.5 -5t-43.5 -22q-13 -16 -25 -47t-19 -84.5t-7 -137.5q0 -106 20.5 -169.5t40.5 -83.5
q14 -14 34 -19.5t45 -5.5q38 0 73.5 8t63 19t43.5 19l16 8l29 -66l-15.5 -9t-43.5 -21.5t-67.5 -21.5t-87.5 -9z" />
    <glyph glyph-name="D" unicode="D" horiz-adv-x="631" 
d="M302 -14q-20 0 -49.5 1.5t-60 4t-54.5 4.5t-33 3v697q4 0 26 2t54 4.5t66.5 4.5t61.5 2q77 0 125.5 -28.5t74.5 -78t36 -113t10 -133.5q0 -138 -33.5 -219t-91.5 -116t-132 -35zM291 59q54 0 80 7.5t39 20.5q14 14 26.5 44t20.5 86t8 146q0 91 -12.5 160t-40.5 93
q-10 9 -31.5 14.5t-65.5 5.5q-40 0 -77 -3.5t-64 -5.5l15 40v-636l-18 41q29 -4 57 -8.5t63 -4.5z" />
    <glyph glyph-name="E" unicode="E" horiz-adv-x="514" 
d="M105 0v695h341v-74l-295 3l39 38l-7 -298l-37 25h276v-71h-276l37 29l7 -313l-39 38l295 2v-74h-341z" />
    <glyph glyph-name="F" unicode="F" horiz-adv-x="500" 
d="M105 0v695h341v-74l-295 3l39 38l-7 -290l-37 16l269 1v-71h-269l38 14l4 -332h-83z" />
    <glyph glyph-name="G" unicode="G" horiz-adv-x="612" 
d="M331 -13q-52 0 -99 14.5t-83 53.5t-56.5 110.5t-20.5 184.5q0 111 19.5 181.5t55.5 109t86 53t111 14.5q32 0 65 -2.5t61.5 -6.5t44.5 -8l-10 -72q-19 2 -60.5 7.5t-106.5 5.5q-50 0 -80.5 -5.5t-45.5 -21.5q-19 -19 -34.5 -79t-15.5 -174q0 -87 9.5 -141t21.5 -81.5
t21 -37.5q12 -13 39.5 -22.5t81.5 -9.5q35 0 61.5 4t42.5 11v258l38 -40l-144 7v62h186v-336l-23.5 -9.5t-66 -19.5t-98.5 -10z" />
    <glyph glyph-name="H" unicode="H" horiz-adv-x="665" 
d="M105 0v695h84l-3 -332l-38 28h368l-38 -28l-2 332h84v-695h-84l2 345l38 -28h-368l38 28l3 -345h-84z" />
    <glyph glyph-name="I" unicode="I" 
d="M105 -1l3 319l-3 377h85l-4 -307l4 -388z" />
    <glyph glyph-name="J" unicode="J" horiz-adv-x="316" 
d="M56 -13q-14 0 -26.5 1.5t-22.5 3.5l-15 3l10 72q9 -1 28 -4t42 -3q21 0 35 9.5t21.5 44.5t7.5 109v472h84v-459q0 -93 -21.5 -147.5t-58.5 -78t-84 -23.5z" />
    <glyph glyph-name="K" unicode="K" horiz-adv-x="577" 
d="M485 0l-293 357l268 338h106l-275 -331v-6l306 -358h-112zM105 0l3 353l-3 342h84v-695h-84z" />
    <glyph glyph-name="L" unicode="L" horiz-adv-x="446" 
d="M105 0v695h84l-5 -661l-38 38l289 2v-74h-330z" />
    <glyph glyph-name="M" unicode="M" horiz-adv-x="814" 
d="M100 0l24 695h122l157 -453h7l158 453h122l24 -695h-84l-8 611h-7l-157 -448h-103l-156 448h-7l-8 -611h-84z" />
    <glyph glyph-name="N" unicode="N" horiz-adv-x="680" 
d="M105 0v695h113l283 -594h3l-13 594h84v-695h-113l-283 594h-3l13 -594h-84z" />
    <glyph glyph-name="O" unicode="O" horiz-adv-x="656" 
d="M328 -14q-52 0 -98.5 16t-82 55.5t-55.5 110.5t-20 181t20 180t55.5 109.5t82 55t98.5 15.5q53 0 99 -15.5t81.5 -55t55.5 -109.5t20 -180t-20 -181t-55.5 -110.5t-81.5 -55.5t-99 -16zM328 62q43 0 74.5 9.5t52 38.5t30.5 85.5t10 150.5t-9.5 151t-29.5 86.5t-52 39.5
t-76 10q-45 0 -76.5 -10t-51.5 -39.5t-29.5 -86.5t-9.5 -151t10 -150.5t30 -85.5t52 -38.5t75 -9.5z" />
    <glyph glyph-name="P" unicode="P" horiz-adv-x="581" 
d="M105 0l4 322l-4 373l20.5 2t54.5 5t74.5 5t80.5 2q89 0 138 -58.5t49 -175.5q0 -73 -17.5 -121t-47.5 -74.5t-67 -37.5t-76 -11q-31 0 -69 2.5t-56 3.5v-237h-84zM320 302q32 0 52 3.5t32 15.5q17 17 23 58.5t6 105.5q0 54 -5.5 83.5t-13 42.5t-15.5 18q-10 7 -32.5 11.5
t-51.5 4.5q-39 0 -73.5 -3.5t-52.5 -7.5v-320q14 -2 52.5 -7t78.5 -5z" />
    <glyph glyph-name="Q" unicode="Q" horiz-adv-x="663" 
d="M586 -92l-204 108l55 -10q-24 -10 -52 -14.5t-57 -4.5q-52 0 -98.5 16t-82 55.5t-55.5 110t-20 180.5q0 109 20 179t55.5 109.5t82 55t98.5 15.5q53 0 99 -15.5t81.5 -55t55.5 -109.5t20 -179q0 -93 -14.5 -156t-40.5 -103t-61 -63l14 48l-1 -55l-2 13l140 -47zM328 63
q43 0 74.5 9.5t52 38t30.5 85t10 150.5q0 93 -9.5 150t-29.5 86.5t-52 39.5t-76 10q-45 0 -76.5 -10t-51.5 -39.5t-29.5 -86.5t-9.5 -150q0 -94 10 -150.5t30 -85t52 -38t75 -9.5z" />
    <glyph glyph-name="R" unicode="R" horiz-adv-x="635" 
d="M105 0l5 329l-3 366q11 2 36 4t57 4t65.5 3.5t62.5 1.5q68 0 118 -21t77 -68.5t27 -126.5q0 -87 -38 -138t-110 -68v-3l157 -283h-99l-140 276l-130 5v-281h-85zM338 346q74 0 98.5 35.5t24.5 111.5q0 62 -10.5 94.5t-28.5 42.5q-11 7 -33.5 10.5t-48.5 3.5
q-41 0 -83.5 -4t-65.5 -7l-2 -277q35 -4 74.5 -7t74.5 -3z" />
    <glyph glyph-name="S" unicode="S" horiz-adv-x="511" 
d="M246 -14q-41 0 -79 9.5t-67.5 22.5t-46.5 22.5l-17 9.5l4.5 10.5t10.5 24t10.5 23.5l4.5 10l16.5 -8.5t44.5 -19t64 -19t75 -8.5q25 0 39.5 4.5t20.5 8.5q20 14 31 38.5t11 63.5q0 38 -16 63t-42.5 42t-57.5 30q-40 17 -75 34t-62 39t-42 55.5t-15 83.5q0 52 23 93.5
t69 66t114 24.5q33 0 62 -3.5t52 -7.5t36 -7.5l13 -3.5l-14 -72l-14 2.5t-38 6.5t-54 6.5t-61 2.5q-25 0 -39.5 -3t-25.5 -10q-13 -7 -24.5 -28.5t-11.5 -58.5q0 -41 21 -67t55 -42.5t72 -32.5q30 -12 59 -27.5t52 -37.5t37 -55.5t14 -81.5q0 -61 -26.5 -106.5t-73.5 -71
t-109 -25.5z" />
    <glyph glyph-name="T" unicode="T" horiz-adv-x="474" 
d="M195 0l2 624l-195 -3v74h470v-74l-195 3l2 -624h-84z" />
    <glyph glyph-name="U" unicode="U" horiz-adv-x="661" 
d="M330 -14q-72 0 -122.5 27.5t-76.5 96.5t-26 192v393h84v-366q0 -90 6 -143t21 -80t42.5 -35.5t71.5 -8.5t72 9t43 35.5t21 80t6 142.5v366h84v-384q0 -128 -26.5 -198.5t-76.5 -98.5t-123 -28z" />
    <glyph glyph-name="V" unicode="V" horiz-adv-x="506" 
d="M193 0l-188 695h86l159 -621h6l159 621h86l-188 -695h-120z" />
    <glyph glyph-name="W" unicode="W" horiz-adv-x="748" 
d="M139 0l-126 695h86l97 -621h7l111 458h120l111 -458h7l97 621h86l-125 -695h-122l-111 458h-6l-112 -458h-120z" />
    <glyph glyph-name="X" unicode="X" horiz-adv-x="536" 
d="M16 0l214 389l9 -51l-209 357h94l169 -313l-71 31h82l-64 -30l171 312h94l-212 -357l6 40l221 -378h-99l-177 333l47 -33h-64l53 33l-165 -333h-99z" />
    <glyph glyph-name="Y" unicode="Y" horiz-adv-x="505" 
d="M210 0l3 259l-197 436h91l143 -348h6l142 348h91l-197 -436l3 -259h-85z" />
    <glyph glyph-name="Z" unicode="Z" horiz-adv-x="529" 
d="M27 0v72l351 545v7l-331 -3v74h428v-72l-348 -543v-9l362 3v-74h-462z" />
    <glyph glyph-name="a" unicode="a" horiz-adv-x="569" 
d="M211 -13q-46 0 -81.5 21.5t-55.5 63t-20 100.5q0 71 28.5 111.5t80.5 57.5t121 17h106q0 50 -2.5 87.5t-16.5 55.5q-10 14 -27.5 18t-36.5 4q-39 0 -76.5 -7.5t-68 -17.5t-48.5 -17.5l-18 -7.5l-29 65l19 8.5t51 20t71.5 20t81.5 8.5q68 0 108 -26.5t57.5 -74
t17.5 -111.5v-383h-54l-12 61h-6q-10 -7 -28.5 -19.5t-43 -25t-54.5 -21t-64 -8.5zM225 60q36 0 68.5 10.5t58 23.5t38.5 21v166q-13 2 -39 4.5t-68 2.5q-93 0 -115 -19q-13 -10 -20 -35.5t-7 -61.5q0 -59 19.5 -85.5t64.5 -26.5z" />
    <glyph glyph-name="b" unicode="b" horiz-adv-x="576" 
d="M305 -13q-27 0 -66.5 5.5t-79.5 14t-69 18.5v728h83v-180q17 4 41 9t52.5 9t57.5 4q88 0 135 -69.5t47 -224.5q0 -96 -17 -157.5t-46 -95.5t-64.5 -47.5t-73.5 -13.5zM305 61q27 0 42.5 3.5t25.5 12.5q9 9 20 32t18.5 72.5t7.5 135.5t-8.5 131t-23.5 57q-21 16 -71 16
q-51 0 -87.5 -10t-55.5 -17v-417q11 -3 29 -6.5t43.5 -6.5t59.5 -3z" />
    <glyph glyph-name="c" unicode="c" horiz-adv-x="518" 
d="M300 -13q-68 0 -120 31t-81 98.5t-29 176.5q0 89 19.5 148t53.5 92.5t80 47.5t98 14q38 0 77.5 -5t64.5 -11l-10 -70q-19 2 -60 7.5t-88 5.5q-37 0 -62.5 -6t-39.5 -20q-19 -21 -32.5 -76.5t-13.5 -132.5q0 -71 11 -114.5t26 -66t27 -31.5q8 -6 21.5 -11t38.5 -5
q29 0 59 7t55 16t40.5 16l15.5 7l26 -65l-22 -13t-62 -26.5t-93 -13.5z" />
    <glyph glyph-name="d" unicode="d" horiz-adv-x="581" 
d="M254 -13q-54 0 -95.5 31t-65 96t-23.5 166q0 97 17.5 158.5t47.5 95.5t66.5 47.5t75.5 13.5q33 0 58 -4t43.5 -9t29.5 -10v181h83v-753h-55l-11 60h-5q-13 -10 -36 -27.5t-55.5 -31.5t-74.5 -14zM259 61q20 0 41 5.5t41.5 13.5t38 17t28.5 16v382q-12 5 -33.5 11
t-48.5 10.5t-57 4.5q-56 0 -76 -24q-8 -11 -16.5 -35t-14 -68.5t-5.5 -117.5q0 -82 8.5 -124t19.5 -58t17 -21q8 -7 23 -9.5t34 -2.5z" />
    <glyph glyph-name="e" unicode="e" horiz-adv-x="571" 
d="M304 -14q-69 0 -121.5 29.5t-81.5 97t-29 179.5q0 117 30.5 183t82.5 93.5t117 27.5t110.5 -26t69.5 -86.5t24 -162.5v-63h-384l39 15q-4 -66 3.5 -105.5t19 -58.5t19.5 -27q14 -12 34 -18t49 -6t57 4.5t52 11t43 13t31 9.5l21 -67q-9 -4 -35 -14.5t-64.5 -19.5t-86.5 -9
zM161 288l-39 36l337 7l-38 -37q1 71 -2.5 122t-20.5 78q-7 11 -24 20.5t-66 9.5q-51 0 -76.5 -11t-39.5 -29q-37 -49 -31 -196z" />
    <glyph glyph-name="f" unicode="f" horiz-adv-x="338" 
d="M115 0v484h-65v51l65 13q1 79 22 126.5t59.5 69.5t90.5 22q10 0 23 -0.5t23 -1l10 -0.5l-6 -70l-13.5 0.5t-30 1t-26.5 0.5q-27 0 -42 -10.5t-21 -42t-7 -95.5h128v-67h-127v-481h-83z" />
    <glyph glyph-name="g" unicode="g" horiz-adv-x="521" 
d="M253 -179q-40 0 -75 4t-61 9.5t-41 9.5l-15 4l10 75q56 -10 115 -17.5t114 -7.5q56 0 75 9t19 28q0 11 -5 20t-18 18.5t-38 21.5t-66 29q-57 24 -82.5 34.5t-32 14t-6.5 6.5q0 1 5 13.5t13 30.5t16 37.5t14 33.5q-66 13 -106.5 64t-40.5 124q0 82 32 128t84.5 65.5
t113.5 19.5q20 0 47.5 -1t56 -3t53 -4t39.5 -3l15 -1v-53l-66 -10q0 1 8.5 -20.5t17 -53t8.5 -61.5q0 -57 -25 -101.5t-72 -70t-113 -25.5q-3 -16 -7 -37.5t-4 -25.5q0 -2 6.5 -5.5t26 -11t57.5 -24.5q58 -24 89 -47t43 -45t12 -44q0 -40 -27.5 -68.5t-76 -43.5t-112.5 -15z
M251 260q45 0 72.5 11t40 38.5t12.5 77.5q0 57 -7 91.5t-13 37.5q-2 2 -17 3.5t-33 2t-31.5 1l-13.5 0.5q-47 0 -76.5 -11t-43 -40t-13.5 -85q0 -74 28.5 -100.5t94.5 -26.5z" />
    <glyph glyph-name="h" unicode="h" horiz-adv-x="584" 
d="M85 0v753h83v-235l-21 19q27 12 62 25.5t70.5 23t64.5 9.5q59 0 92 -24t46.5 -70t13.5 -114v-387h-83v358q0 56 -4 88t-16 49q-10 14 -24.5 17.5t-35.5 3.5q-24 0 -51 -5.5t-52.5 -13.5t-45 -15.5t-27.5 -12.5l12 19l-1 -488h-83z" />
    <glyph glyph-name="i" unicode="i" 
d="M106 0v582h83v-582h-83zM97 681v85h102v-85h-102z" />
    <glyph glyph-name="j" unicode="j" horiz-adv-x="307" 
d="M43 -180q-13 0 -27 1.5t-23.5 2.5l-9.5 1l9 74l8.5 -1t22.5 -2t30 -1q26 0 40 8.5t19.5 41.5t5.5 105v532h83v-529q0 -88 -21 -139t-57 -72.5t-80 -21.5zM109 681v85h102v-85h-102z" />
    <glyph glyph-name="k" unicode="k" horiz-adv-x="522" 
d="M423 0l-249 314l232 268h107l-244 -262v-5l262 -315h-108zM90 0l5 321l-5 432h83v-753h-83z" />
    <glyph glyph-name="l" unicode="l" 
d="M106 0v753h83v-753h-83z" />
    <glyph glyph-name="m" unicode="m" horiz-adv-x="917" 
d="M101 0v582h56l9 -57h4q9 5 30 16.5t49 24t59 21t61 8.5q43 0 74.5 -20t44.5 -55q42 26 93.5 50.5t109.5 24.5q54 0 84 -26t42 -73.5t12 -112.5v-383h-83v355q0 47 -2 84t-13 54q-10 16 -27.5 19.5t-28.5 3.5q-27 0 -55.5 -7.5t-53.5 -18t-41.5 -19.5t-21.5 -12
q2 -16 3 -34t1 -38v-387h-83v358q0 57 -2.5 88t-13.5 48q-10 14 -25 18t-29 4q-34 0 -68 -10.5t-61 -23t-41 -18.5v-464h-83z" />
    <glyph glyph-name="n" unicode="n" horiz-adv-x="601" 
d="M101 0v582h56l9 -57h5q9 5 30 16.5t50 24t62 21t66 8.5q55 0 84 -27.5t39.5 -74.5t10.5 -106v-387h-83v358q0 59 -2 90t-13 47q-8 13 -23 17t-32 4q-36 0 -73.5 -11.5t-65.5 -24t-37 -17.5v-463h-83z" />
    <glyph glyph-name="o" unicode="o" horiz-adv-x="576" 
d="M288 -13q-83 0 -130.5 37t-67.5 105t-20 162t20 162t67.5 105t130.5 37t130.5 -37t67.5 -105t20 -162t-20 -162t-67.5 -105t-130.5 -37zM288 59q38 0 63.5 9t41 33t22 70t6.5 120t-6.5 120t-22 70.5t-41 33t-63.5 8.5t-63.5 -8.5t-41 -33t-22.5 -70.5t-7 -120t7 -120
t22.5 -70t41 -33t63.5 -9z" />
    <glyph glyph-name="p" unicode="p" horiz-adv-x="577" 
d="M85 -166v748h56l11 -59h6q19 14 44 30.5t57.5 29t71.5 12.5q54 0 93.5 -30.5t61 -95t21.5 -167.5q0 -97 -18 -158.5t-48 -96t-68 -48t-77 -13.5q-24 0 -49 2t-45.5 5.5t-33.5 5.5v-165h-83zM315 60q11 0 27.5 2.5t29.5 13.5q14 12 24.5 37.5t16.5 74.5t6 130
q0 66 -3.5 103.5t-10 56t-15.5 26.5q-5 5 -17.5 11t-38.5 6q-32 0 -65.5 -10.5t-60.5 -23t-40 -20.5v-386q21 -6 63 -13.5t84 -7.5z" />
    <glyph glyph-name="q" unicode="q" horiz-adv-x="577" 
d="M404 -166v187q-17 -8 -38 -16t-47 -13t-59 -5q-36 0 -69.5 14t-61 48.5t-43.5 96t-16 156.5q0 111 24 175t71 91t116 27q36 0 72 -5t66.5 -12t49 -12l18.5 -5v-727h-83zM252 61q59 0 95.5 12t56.5 21v410q-10 3 -26.5 7t-43 7t-67.5 3q-33 0 -49.5 -4.5t-27.5 -16.5
q-15 -17 -24 -61.5t-9 -136.5q0 -101 11 -152.5t29 -70.5q10 -10 21.5 -14t33.5 -4z" />
    <glyph glyph-name="r" unicode="r" horiz-adv-x="395" 
d="M101 0v582h53l11 -59h6l15.5 11t40.5 25t53.5 25t53.5 11q15 0 28 -2.5l13 -2.5l-7 -80l-13 1t-24 1q-28 0 -56.5 -8t-52.5 -20t-38 -23v-461h-83z" />
    <glyph glyph-name="s" unicode="s" horiz-adv-x="492" 
d="M245 -13q-37 0 -71 7.5t-61 17t-42.5 16.5l-15.5 7l21 71l15.5 -7t41.5 -16.5t59 -16.5t68 -7q20 0 37 3.5t27 12.5q11 10 20 30t9 48q0 42 -20 64t-52 34t-68 22q-29 8 -57 18t-50.5 27t-36 45.5t-13.5 73.5q0 71 43.5 114.5t146.5 43.5q35 0 67 -4.5t56.5 -10
t36.5 -9.5l-13 -70l-13.5 3.5t-36.5 7.5t-52 7.5t-61 3.5q-30 0 -48 -3.5t-27 -10.5t-15 -22.5t-6 -36.5q0 -42 23.5 -63t60 -32t75.5 -23q27 -8 52 -19t45.5 -29t32 -46t11.5 -69q0 -81 -48.5 -131.5t-140.5 -50.5z" />
    <glyph glyph-name="t" unicode="t" horiz-adv-x="364" 
d="M253 -14q-43 0 -75 14.5t-49.5 56t-17.5 123.5v303h-66v52l69 14l22 136h58v-137h116v-67h-116v-307q0 -55 3 -80t15.5 -31.5t42.5 -6.5q16 0 28 0.5t19 1l7 0.5v-67l-15 -2.5t-41 -2.5z" />
    <glyph glyph-name="u" unicode="u" horiz-adv-x="600" 
d="M234 -13q-40 0 -73.5 19.5t-53 64.5t-19.5 124v387h83v-356q0 -55 3 -90t11 -49q7 -11 22.5 -16t35.5 -5q45 0 89.5 17.5t83.5 35.5v463h83v-582h-56l-10 56h-6q-15 -8 -45 -24.5t-68 -30.5t-80 -14z" />
    <glyph glyph-name="v" unicode="v" horiz-adv-x="474" 
d="M183 0l-169 582h89l131 -511h6l130 511h89l-168 -582h-108z" />
    <glyph glyph-name="w" unicode="w" horiz-adv-x="727" 
d="M139 0l-115 582h85l88 -517h5l101 440h122l101 -440h5l88 517h85l-115 -582h-122l-100 440h-6l-100 -440h-122z" />
    <glyph glyph-name="x" unicode="x" horiz-adv-x="491" 
d="M17 0l174 303l-172 279h94l127 -233h5l124 233h94l-172 -281l175 -301h-97l-127 251h-5l-124 -251h-96z" />
    <glyph glyph-name="y" unicode="y" horiz-adv-x="479" 
d="M119 -166l78 227l-186 521h89l134 -425h4l134 425h89l-196 -545l-58 -203h-88z" />
    <glyph glyph-name="z" unicode="z" horiz-adv-x="471" 
d="M34 0v67l299 445v5l-286 -4v69h382v-67l-298 -443v-7l304 4v-69h-401z" />
    <glyph glyph-name="zero" unicode="0" horiz-adv-x="572" 
d="M286 -13q-48 0 -89 16t-71.5 55.5t-48 110t-17.5 180.5q0 109 17.5 179t48 109.5t71.5 55t89 15.5t89 -15.5t72 -55t48 -109.5t17 -179q0 -110 -17 -180.5t-48 -110t-72 -55.5t-89 -16zM287 63q46 0 76.5 23.5t46.5 85.5t16 177q0 89 -9.5 145t-27.5 86t-44 41.5
t-59 11.5t-59 -11t-44 -41t-27 -85.5t-9 -144.5q0 -115 15.5 -177.5t47 -86.5t77.5 -24z" />
    <glyph glyph-name="one" unicode="1" horiz-adv-x="507" 
d="M77 0v72l167 -2l7 549h-5l-147 -155l-56 54l196 184l90 -7v-625l147 2v-72h-399z" />
    <glyph glyph-name="two" unicode="2" horiz-adv-x="540" 
d="M56 0v65l46 54t134 166q63 80 103 142.5t40 120.5q0 38 -20.5 61.5t-71.5 23.5q-32 0 -67.5 -9.5t-70 -24.5t-63.5 -34l-35 63q16 14 48.5 33t76.5 33t92 14q56 0 99.5 -21t68.5 -59t25 -89q0 -43 -17.5 -86.5t-44 -85t-55.5 -79.5q-11 -15 -31 -40.5t-43 -55.5
t-44 -56.5t-34.5 -43.5l-13.5 -17v-5l298 5v-75h-420z" />
    <glyph glyph-name="three" unicode="3" horiz-adv-x="545" 
d="M252 -13q-44 0 -80.5 7.5t-64.5 18t-46 20t-25 13.5l32 64q7 -3 26 -11t46.5 -16.5t59.5 -14.5t65 -6q62 0 84.5 30.5t22.5 94.5q0 84 -33 116t-103 32h-93v66q61 5 102 10t65 16t34 33.5t10 61.5q0 32 -5.5 54.5t-15.5 32.5q-13 15 -42 21t-71 6q-18 0 -35.5 -1
t-41 -3.5t-60.5 -7.5l-10 68q18 5 44.5 8.5t56 5.5t53.5 2q61 0 109 -16t76 -54t28 -105q0 -49 -14 -79.5t-33.5 -47t-37.5 -23t-27 -8.5v-4q20 -3 42.5 -12t43.5 -28.5t34 -52.5t13 -84q0 -56 -20 -103t-66 -75.5t-123 -28.5z" />
    <glyph glyph-name="four" unicode="4" horiz-adv-x="537" 
d="M340 0l3 162h-314v63l158 481l82 -11l-151 -458v-5l225 4l19 269h62v-269l64 2v-76h-64l1 -162h-85z" />
    <glyph glyph-name="five" unicode="5" horiz-adv-x="509" 
d="M243 -13q-46 0 -85.5 11t-69 25.5t-45.5 25.5l-16 11l32 63l17.5 -9t46 -21.5t63.5 -21.5t70 -9q47 0 70 15q19 13 28.5 49t9.5 71q0 32 -7.5 65t-21.5 46q-16 17 -65 23.5t-116 6.5q-22 0 -40 -0.5t-28.5 -1l-10.5 -0.5l51 359h295v-73l-225 4l-29 -213q61 -3 113 -12
t90.5 -31t60 -61.5t21.5 -103.5q0 -103 -56 -160.5t-153 -57.5z" />
    <glyph glyph-name="six" unicode="6" horiz-adv-x="552" 
d="M281 -13q-69 0 -118.5 32.5t-76 108t-26.5 202.5q0 114 20.5 187.5t56 115.5t82.5 58.5t99 16.5q42 0 73 -6.5t48.5 -13l17.5 -6.5l-19 -71l-12 3t-31.5 7.5t-44 7.5t-49.5 3q-36 0 -59 -8t-40 -25q-21 -22 -34.5 -66t-17.5 -124l15.5 2t40 3.5t50.5 1.5q72 0 125 -19.5
t82 -64.5t29 -122q0 -108 -56.5 -165.5t-154.5 -57.5zM287 58q70 0 96 33.5t26 115.5q0 51 -10.5 81t-39.5 43t-83 13q-34 0 -63 -3.5t-47 -7l-18 -3.5v-80q0 -56 7.5 -90t17.5 -50.5t16 -23.5q10 -9 32 -18.5t66 -9.5z" />
    <glyph glyph-name="seven" unicode="7" horiz-adv-x="471" 
d="M164 -7l-89 8l288 618v6l-339 -6v76h424v-55z" />
    <glyph glyph-name="eight" unicode="8" horiz-adv-x="540" 
d="M266 -13q-72 0 -121 29.5t-73.5 76.5t-24.5 97q0 44 17.5 79.5t44.5 60.5t54 36q-37 27 -66 67.5t-29 100.5q0 76 51 125t150 49q68 0 113 -23.5t67 -63t22 -88.5q0 -67 -30.5 -108t-74.5 -66q26 -15 55 -37t50 -55.5t21 -84.5t-26.5 -95.5t-77 -72t-122.5 -27.5zM269 59
q69 0 100.5 29.5t31.5 81.5q0 40 -15.5 67t-50.5 48t-94 41q-49 -19 -76 -48.5t-27 -95.5q0 -34 12 -62t41 -44.5t78 -16.5zM287 393q47 17 73 49t26 90q0 48 -25.5 77.5t-90.5 29.5q-68 0 -93 -26.5t-25 -69.5q0 -52 31 -86.5t104 -63.5z" />
    <glyph glyph-name="nine" unicode="9" horiz-adv-x="550" 
d="M269 -13q-39 0 -73.5 9t-60.5 21.5t-41 21.5l-15 9l31 63l14 -8t38 -18.5t54 -18.5t62 -8q26 0 42 6.5t27 18.5q22 23 38 78.5t16 133.5l-21 -4t-51.5 -7.5t-61.5 -3.5q-62 0 -108.5 21.5t-72.5 67t-26 117.5q0 105 55 163.5t154 58.5q66 0 116 -32t77.5 -109t27.5 -213
q0 -117 -23 -199t-71.5 -125t-126.5 -43zM263 356q38 0 69 6t50 12l19 6q0 92 -8 141.5t-19.5 70.5t-24.5 28q-15 8 -36.5 12t-46.5 4q-52 0 -78.5 -16.5t-35.5 -50.5t-9 -86q0 -37 7 -66t32.5 -45t80.5 -16z" />
    <glyph glyph-name="exclam" unicode="!" horiz-adv-x="268" 
d="M102 190l-14 505h93l-15 -505h-64zM80 0v89h108v-89h-108z" />
    <glyph glyph-name="exclamdown" unicode="&#xa1;" horiz-adv-x="268" 
d="M89 -112l14 505h65l14 -505h-93zM80 493v89h108v-89h-108z" />
    <glyph glyph-name="question" unicode="?" horiz-adv-x="462" 
d="M150 191v10q0 52 15 85.5t38 56.5t48 42q24 18 45.5 37t35 45.5t13.5 65.5q0 34 -11.5 54.5t-28.5 30.5q-4 3 -18.5 8t-37.5 5q-57 0 -103.5 -17t-84.5 -37l-30 68q17 10 45 24.5t67.5 26.5t89.5 12q59 0 104 -23.5t70 -65t25 -94.5q0 -51 -17 -85.5t-43 -59t-54 -45.5
q-25 -19 -47.5 -38.5t-36.5 -44.5t-14 -61h-70zM132 0v89h108v-89h-108z" />
    <glyph glyph-name="questiondown" unicode="&#xbf;" horiz-adv-x="463" 
d="M313 391v-10q0 -51 -15 -85t-38 -56.5t-48 -42.5q-23 -18 -45 -37t-35.5 -45.5t-13.5 -65.5q0 -34 12.5 -53.5t27.5 -31.5q4 -3 18.5 -8t37.5 -5q57 0 103.5 17t84.5 37l30 -68q-16 -9 -44.5 -24t-67.5 -27t-90 -12q-59 0 -104 23.5t-70 65t-25 94.5q0 51 17 85.5t43 59
t54 45.5q25 19 47.5 38.5t36.5 45t14 60.5h70zM331 582v-89h-108v89h108z" />
    <glyph glyph-name="comma" unicode="," horiz-adv-x="270" 
d="M102 -166l-40 29q17 20 24.5 43.5t7.5 57.5v120h82v-70q-1 -70 -23 -113t-51 -67z" />
    <glyph glyph-name="period" unicode="." horiz-adv-x="254" 
d="M76 0v89h102v-89h-102z" />
    <glyph glyph-name="colon" unicode=":" horiz-adv-x="314" 
d="M103 459v89h108v-89h-108zM103 0v89h108v-89h-108z" />
    <glyph glyph-name="semicolon" unicode=";" horiz-adv-x="312" 
d="M121 -166l-40 29q17 20 24.5 42t7.5 59v120h82v-70q-1 -70 -23 -113t-51 -67zM101 459v89h108v-89h-108z" />
    <glyph glyph-name="periodcentered" unicode="&#xb7;" horiz-adv-x="300" 
d="M154 274q-14 0 -27 5.5t-21.5 18t-8.5 33.5q0 22 8.5 34t21.5 17t27 5t26.5 -5t21 -17t8.5 -34q0 -21 -8.5 -33.5t-21 -18t-26.5 -5.5z" />
    <glyph glyph-name="hyphen" unicode="-" horiz-adv-x="321" 
d="M46 293v70h229v-70h-229z" />
    <glyph glyph-name="quotesingle" unicode="'" horiz-adv-x="195" 
d="M70 478l-14 217v18h83v-19l-16 -216h-53z" />
    <glyph glyph-name="quotedbl" unicode="&#x22;" horiz-adv-x="339" 
d="M213 478l-14 217v18h84v-19l-17 -216h-53zM70 478l-14 217v18h83v-19l-16 -216h-53z" />
    <glyph glyph-name="quoteleft" unicode="&#x2018;" horiz-adv-x="226" 
d="M63 481q-2 19 -3 35.5t-1 31.5q1 71 22.5 114t46.5 66l39 -32q-16 -20 -23.5 -41.5t-7.5 -56.5q0 -27 1.5 -54t3 -45l1.5 -18h-79z" />
    <glyph glyph-name="quoteright" unicode="&#x2019;" horiz-adv-x="226" 
d="M98 466l-39 32q17 20 24.5 42t7.5 56q0 11 -1 30t-2.5 39t-2.5 34l-1 14h79q2 -19 3 -35.5t1 -31.5q-1 -70 -21.5 -113t-47.5 -67z" />
    <glyph glyph-name="quotesinglbase" unicode="&#x201a;" horiz-adv-x="264" 
d="M101 -114l-39 32q16 20 23.5 42t7.5 56q0 27 -1.5 54t-3 45l-1.5 18h79q2 -19 3 -35.5t1 -31.5q-1 -71 -22 -114t-47 -66z" />
    <glyph glyph-name="quotedblleft" unicode="&#x201c;" horiz-adv-x="366" 
d="M63 481q-2 19 -3 35.5t-1 31.5q1 71 22.5 114t46.5 66l39 -32q-16 -20 -23.5 -41.5t-7.5 -56.5q0 -27 1.5 -54t3 -45l1.5 -18h-79zM203 481q-2 19 -3 35.5t-1 31.5q1 48 11 82.5t25.5 58.5t32.5 39l39 -32q-16 -20 -23.5 -41.5t-7.5 -56.5q0 -27 1.5 -54t3 -45l1.5 -18
h-79z" />
    <glyph glyph-name="quotedblright" unicode="&#x201d;" horiz-adv-x="366" 
d="M238 466l-39 32q16 20 23.5 42t7.5 56q0 27 -1.5 54t-3 45l-1.5 18h79q2 -19 3 -35.5t1 -31.5q-1 -71 -22 -114t-47 -66zM98 466l-39 32q16 20 23.5 42t7.5 56q0 27 -1.5 54t-3 45l-1.5 18h79q2 -19 3 -35.5t1 -31.5q0 -47 -10.5 -82t-26 -58.5t-32.5 -39.5z" />
    <glyph glyph-name="quotedblbase" unicode="&#x201e;" horiz-adv-x="404" 
d="M241 -115l-39 32q16 20 23.5 42t7.5 56q0 27 -1.5 54t-3 45l-1.5 18h79q2 -19 3 -35.5t1 -31.5q-1 -71 -22 -114t-47 -66zM101 -115l-39 32q16 20 23.5 42t7.5 56q0 27 -1.5 54t-3 45l-1.5 18h79q2 -19 3 -35.5t1 -31.5q-1 -71 -22 -114t-47 -66z" />
    <glyph glyph-name="parenleft" unicode="(" horiz-adv-x="316" 
d="M247 -124q-46 28 -87 82.5t-66 145t-25 225.5q0 137 25 227.5t66 144.5t87 82l38 -53q-71 -45 -101 -148.5t-30 -252.5q0 -147 30 -251t101 -150z" />
    <glyph glyph-name="parenright" unicode=")" horiz-adv-x="316" 
d="M68 -124l-37 52q71 46 101 150t30 251q0 149 -30 252.5t-101 148.5l37 53q47 -28 88 -82t66 -144.5t25 -227.5q0 -135 -25 -225.5t-66 -145t-88 -82.5z" />
    <glyph glyph-name="bracketleft" unicode="[" horiz-adv-x="310" 
d="M106 -124v907h163v-68l-89 3v-777l89 3v-68h-163z" />
    <glyph glyph-name="bracketright" unicode="]" horiz-adv-x="311" 
d="M41 -124v68l90 -3v777l-90 -3v68h164v-907h-164z" />
    <glyph glyph-name="braceleft" unicode="{" horiz-adv-x="417" 
d="M333 -124q-73 0 -115 47.5t-42 153.5v109q0 45 -10 67t-35.5 32t-74.5 17v74q47 7 73 17t36.5 33t10.5 67v99q0 70 19.5 112t54 61t80.5 19q17 0 35 -1.5l18 -1.5l-4 -65l-11 0.5t-25 1.5t-24 1q-21 0 -34 -8.5t-19.5 -36t-6.5 -84.5v-98q0 -48 -12 -78t-28.5 -45.5
t-32 -21t-21.5 -6.5v-6q6 -1 21 -6.5t32 -20.5t29 -45.5t12 -80.5v-105q0 -59 7 -88.5t21 -38.5t34 -9l58 3l4 -66z" />
    <glyph glyph-name="braceright" unicode="}" horiz-adv-x="417" 
d="M84 -123l-50 1l4 66l58 -2q21 0 34.5 9t20.5 38t7 88v105q0 50 12 80.5t29 45.5t32 20.5t21 6.5v6q-6 1 -21.5 6.5t-32 21t-28.5 45.5t-12 78v98q0 57 -6 84.5t-19.5 36t-34.5 8.5q-10 0 -24 -1t-25 -1.5l-11 -0.5l-4 65l18.5 1.5t34.5 1.5q46 0 80.5 -19t54 -61
t19.5 -112v-99q0 -44 10.5 -67t36.5 -33t73 -17v-74q-48 -7 -74 -17t-36 -32t-10 -67v-109q0 -106 -41.5 -153.5t-115.5 -46.5z" />
    <glyph glyph-name="ampersand" unicode="&#x26;" horiz-adv-x="646" 
d="M251 -13q-67 0 -114.5 30t-72.5 76t-25 94q0 39 15 70.5t38.5 55.5t48.5 40t46 25q-21 13 -43.5 35t-38.5 54t-16 73q0 47 21 85t61.5 60.5t98.5 22.5q62 0 101 -24t57 -61.5t18 -78.5q0 -48 -20 -81t-46 -53.5t-46 -30.5q52 -37 85.5 -68.5t64.5 -69.5q21 35 35 65.5
t21 49.5l7 19l71 -23l-10.5 -25.5t-30 -65t-47.5 -83.5q38 -58 58 -107t31 -81l-80 -3q-4 13 -19.5 47.5t-39.5 75.5q-48 -56 -104.5 -89.5t-124.5 -33.5zM254 59q56 0 102.5 34t82.5 81q-41 56 -87.5 97.5t-92.5 68.5q-35 -12 -65 -36t-48.5 -55.5t-18.5 -68.5
q0 -50 35 -85.5t92 -35.5zM264 414q38 16 67.5 48.5t29.5 83.5q0 38 -21 65.5t-74 27.5q-50 0 -71.5 -26.5t-21.5 -67.5q0 -48 24.5 -79t66.5 -52z" />
    <glyph glyph-name="ntilde" unicode="&#xf1;" horiz-adv-x="601" 
d="M101 0v582h56l9 -57h5q9 5 30 16.5t50 24t62 21t66 8.5q55 0 84 -27.5t39.5 -74.5t10.5 -106v-387h-83v358q0 59 -2 90t-13 47q-8 13 -23 17t-32 4q-36 0 -73.5 -11.5t-65.5 -24t-37 -17.5v-463h-83zM382 675q-16 0 -39.5 7.5t-47.5 17.5t-42.5 17.5t-25.5 7.5
q-6 0 -12.5 -11.5t-10.5 -23l-4 -11.5l-52 6q0 57 19.5 79t53.5 22q17 0 39.5 -7t45.5 -16.5t41.5 -17t25.5 -7.5t13 11t10.5 22.5l4.5 11.5l53 -7q0 -56 -18.5 -78.5t-53.5 -22.5z" />
    <glyph glyph-name="aacute" unicode="&#xe1;" horiz-adv-x="569" 
d="M211 -13q-46 0 -81.5 21.5t-55.5 63t-20 100.5q0 71 28.5 111.5t80.5 57.5t121 17h106q0 50 -2.5 87.5t-16.5 55.5q-10 14 -27.5 18t-36.5 4q-39 0 -76.5 -7.5t-68 -17.5t-48.5 -17.5l-18 -7.5l-29 65l19 8.5t51 20t71.5 20t81.5 8.5q68 0 108 -26.5t57.5 -74
t17.5 -111.5v-383h-54l-12 61h-6q-10 -7 -28.5 -19.5t-43 -25t-54.5 -21t-64 -8.5zM225 60q36 0 68.5 10.5t58 23.5t38.5 21v166q-13 2 -39 4.5t-68 2.5q-93 0 -115 -19q-13 -10 -20 -35.5t-7 -61.5q0 -59 19.5 -85.5t64.5 -26.5zM200 654l-20 50l184 84l30 -67z" />
    <glyph glyph-name="equal" unicode="=" horiz-adv-x="618" 
d="M52 335v72h514v-72h-514zM52 179v72h514v-72h-514z" />
    <glyph glyph-name="acircumflex" unicode="&#xe2;" horiz-adv-x="569" 
d="M211 -13q-46 0 -81.5 21.5t-55.5 63t-20 100.5q0 71 28.5 111.5t80.5 57.5t121 17h106q0 50 -2.5 87.5t-16.5 55.5q-10 14 -27.5 18t-36.5 4q-39 0 -76.5 -7.5t-68 -17.5t-48.5 -17.5l-18 -7.5l-29 65l19 8.5t51 20t71.5 20t81.5 8.5q68 0 108 -26.5t57.5 -74
t17.5 -111.5v-383h-54l-12 61h-6q-10 -7 -28.5 -19.5t-43 -25t-54.5 -21t-64 -8.5zM225 60q36 0 68.5 10.5t58 23.5t38.5 21v166q-13 2 -39 4.5t-68 2.5q-93 0 -115 -19q-13 -10 -20 -35.5t-7 -61.5q0 -59 19.5 -85.5t64.5 -26.5zM159 659l-29 34l121 109h51l121 -109
l-29 -34l-114 71h-7z" />
    <glyph glyph-name="aring" unicode="&#xe5;" horiz-adv-x="569" 
d="M211 -13q-46 0 -81.5 21.5t-55.5 63t-20 100.5q0 71 28.5 111.5t80.5 57.5t121 17h106q0 50 -2.5 87.5t-16.5 55.5q-10 14 -27.5 18t-36.5 4q-39 0 -76.5 -7.5t-68 -17.5t-48.5 -17.5l-18 -7.5l-29 65l19 8.5t51 20t71.5 20t81.5 8.5q68 0 108 -26.5t57.5 -74
t17.5 -111.5v-383h-54l-12 61h-6q-10 -7 -28.5 -19.5t-43 -25t-54.5 -21t-64 -8.5zM225 60q36 0 68.5 10.5t58 23.5t38.5 21v166q-13 2 -39 4.5t-68 2.5q-93 0 -115 -19q-13 -10 -20 -35.5t-7 -61.5q0 -59 19.5 -85.5t64.5 -26.5zM277 647q-21 0 -40 7.5t-31.5 25.5
t-12.5 50q0 33 12.5 51t31.5 25.5t40 7.5t40 -7.5t31.5 -25.5t12.5 -51q0 -32 -12.5 -50t-31.5 -25.5t-40 -7.5zM277 693q18 0 26 7t8 30q0 24 -8 31t-26 7t-27 -7t-9 -31q0 -23 9 -30t27 -7z" />
    <glyph glyph-name="acute" unicode="&#xb4;" horiz-adv-x="214" 
d="M20 654l-20 50l184 84l30 -67z" />
    <glyph glyph-name="grave" unicode="`" horiz-adv-x="214" 
d="M194 654l-194 67l30 67l184 -84z" />
    <glyph glyph-name="circumflex" unicode="&#x2c6;" horiz-adv-x="293" 
d="M29 659l-29 34l121 109h51l121 -109l-29 -34l-114 71h-7z" />
    <glyph glyph-name="caron" unicode="&#x2c7;" horiz-adv-x="293" 
d="M121 663l-121 109l29 34l114 -71h7l114 71l29 -34l-121 -109h-51z" />
    <glyph glyph-name="breve" unicode="&#x2d8;" horiz-adv-x="298" 
d="M149 657q-37 0 -70.5 14.5t-55 46t-23.5 82.5l57 6q4 -46 29 -64t63 -18t63 18t29 64l57 -6q-2 -51 -24 -82.5t-55 -46t-70 -14.5z" />
    <glyph glyph-name="ring" unicode="&#x2da;" horiz-adv-x="168" 
d="M84 647q-21 0 -40 7.5t-31.5 25.5t-12.5 50q0 33 12.5 51t31.5 25.5t40 7.5t40 -7.5t31.5 -25.5t12.5 -51q0 -32 -12.5 -50t-31.5 -25.5t-40 -7.5zM84 693q18 0 26 7t8 30q0 24 -8 31t-26 7t-27 -7t-9 -31q0 -23 9 -30t27 -7z" />
    <glyph glyph-name="dieresis" unicode="&#xa8;" horiz-adv-x="285" 
d="M0 684v82h99v-82h-99zM187 684v82h98v-82h-98z" />
    <glyph glyph-name="tilde" unicode="&#x2dc;" horiz-adv-x="306" 
d="M234 675q-16 0 -39.5 7.5t-47.5 17.5t-42.5 17.5t-25.5 7.5q-6 0 -12.5 -11.5t-10.5 -23l-4 -11.5l-52 6q0 57 19.5 79t53.5 22q17 0 39.5 -7t45.5 -16.5t41.5 -17t25.5 -7.5t13 11t10.5 22.5l4.5 11.5l53 -7q0 -56 -18.5 -78.5t-53.5 -22.5z" />
    <glyph glyph-name="macron" unicode="&#xaf;" horiz-adv-x="320" 
d="M0 690v65h320v-65h-320z" />
    <glyph glyph-name="cedilla" unicode="&#xb8;" horiz-adv-x="182" 
d="M73 -179q-27 0 -50 4.5l-23 4.5v62l12 -1t27 -2.5t25 -1.5q30 0 42 5.5t12 25.5q0 26 -5 50t-9 38l59 4q4 -9 8 -24t7.5 -32t3.5 -33q0 -46 -31 -73t-78 -27z" />
    <glyph glyph-name="dotaccent" unicode="&#x2d9;" horiz-adv-x="102" 
d="M0 681v85h102v-85h-102z" />
    <glyph glyph-name="hungarumlaut" unicode="&#x2dd;" horiz-adv-x="600" 
d="M33 649l-33 40l153 131l45 -59zM220 649l-32 40l160 131l45 -59z" />
    <glyph glyph-name="ogonek" unicode="&#x2db;" horiz-adv-x="163" 
d="M102 -179q-43 0 -72.5 17.5t-29.5 58.5q0 28 19.5 52.5t48 43t53.5 28.5l42 -21q-40 -16 -68 -41.5t-28 -44.5q0 -18 12.5 -24t33.5 -6q16 0 33 2l17 2v-59l-17.5 -4t-43.5 -4z" />
    <glyph glyph-name="ograve" unicode="&#xf2;" horiz-adv-x="576" 
d="M288 -13q-83 0 -130.5 37t-67.5 105t-20 162t20 162t67.5 105t130.5 37t130.5 -37t67.5 -105t20 -162t-20 -162t-67.5 -105t-130.5 -37zM288 59q38 0 63.5 9t41 33t22 70t6.5 120t-6.5 120t-22 70.5t-41 33t-63.5 8.5t-63.5 -8.5t-41 -33t-22.5 -70.5t-7 -120t7 -120
t22.5 -70t41 -33t63.5 -9zM356 654l-194 67l30 67l184 -84z" />
    <glyph glyph-name="oacute" unicode="&#xf3;" horiz-adv-x="576" 
d="M288 -13q-83 0 -130.5 37t-67.5 105t-20 162t20 162t67.5 105t130.5 37t130.5 -37t67.5 -105t20 -162t-20 -162t-67.5 -105t-130.5 -37zM288 59q38 0 63.5 9t41 33t22 70t6.5 120t-6.5 120t-22 70.5t-41 33t-63.5 8.5t-63.5 -8.5t-41 -33t-22.5 -70.5t-7 -120t7 -120
t22.5 -70t41 -33t63.5 -9zM221 654l-20 50l184 84l30 -67z" />
    <glyph glyph-name="ocircumflex" unicode="&#xf4;" horiz-adv-x="576" 
d="M288 -13q-83 0 -130.5 37t-67.5 105t-20 162t20 162t67.5 105t130.5 37t130.5 -37t67.5 -105t20 -162t-20 -162t-67.5 -105t-130.5 -37zM288 59q38 0 63.5 9t41 33t22 70t6.5 120t-6.5 120t-22 70.5t-41 33t-63.5 8.5t-63.5 -8.5t-41 -33t-22.5 -70.5t-7 -120t7 -120
t22.5 -70t41 -33t63.5 -9zM170 659l-29 34l121 109h51l121 -109l-29 -34l-114 71h-7z" />
    <glyph glyph-name="otilde" unicode="&#xf5;" horiz-adv-x="576" 
d="M288 -13q-83 0 -130.5 37t-67.5 105t-20 162t20 162t67.5 105t130.5 37t130.5 -37t67.5 -105t20 -162t-20 -162t-67.5 -105t-130.5 -37zM288 59q38 0 63.5 9t41 33t22 70t6.5 120t-6.5 120t-22 70.5t-41 33t-63.5 8.5t-63.5 -8.5t-41 -33t-22.5 -70.5t-7 -120t7 -120
t22.5 -70t41 -33t63.5 -9zM369 675q-16 0 -39.5 7.5t-47.5 17.5t-42.5 17.5t-25.5 7.5q-6 0 -12.5 -11.5t-10.5 -23l-4 -11.5l-52 6q0 57 19.5 79t53.5 22q17 0 39.5 -7t45.5 -16.5t41.5 -17t25.5 -7.5t13 11t10.5 22.5l4.5 11.5l53 -7q0 -56 -18.5 -78.5t-53.5 -22.5z" />
    <glyph glyph-name="odieresis" unicode="&#xf6;" horiz-adv-x="576" 
d="M288 -13q-83 0 -130.5 37t-67.5 105t-20 162t20 162t67.5 105t130.5 37t130.5 -37t67.5 -105t20 -162t-20 -162t-67.5 -105t-130.5 -37zM288 59q38 0 63.5 9t41 33t22 70t6.5 120t-6.5 120t-22 70.5t-41 33t-63.5 8.5t-63.5 -8.5t-41 -33t-22.5 -70.5t-7 -120t7 -120
t22.5 -70t41 -33t63.5 -9zM145 684v82h99v-82h-99zM332 684v82h98v-82h-98z" />
    <glyph glyph-name="idieresis" unicode="&#xef;" 
d="M7 684v82h99v-82h-99zM190 684v82h98v-82h-98zM106 0v582h83v-582h-83z" />
    <glyph glyph-name="icircumflex" unicode="&#xee;" 
d="M40 660l-33 33l114 109h53l114 -109l-32 -33l-104 70h-8zM106 0v582h83v-582h-83z" />
    <glyph glyph-name="iacute" unicode="&#xed;" 
d="M71 657l-20 50l213 95l27 -68zM106 0v582h83v-582h-83z" />
    <glyph glyph-name="igrave" unicode="&#xec;" 
d="M224 657l-219 77l28 68l211 -95zM106 0v582h83v-582h-83z" />
    <glyph glyph-name="edieresis" unicode="&#xeb;" horiz-adv-x="571" 
d="M304 -14q-69 0 -121.5 29.5t-81.5 97t-29 179.5q0 117 30.5 183t82.5 93.5t117 27.5t110.5 -26t69.5 -86.5t24 -162.5v-63h-384l39 15q-4 -66 3.5 -105.5t19 -58.5t19.5 -27q14 -12 34 -18t49 -6t57 4.5t52 11t43 13t31 9.5l21 -67q-9 -4 -35 -14.5t-64.5 -19.5t-86.5 -9
zM161 288l-39 36l337 7l-38 -37q1 71 -2.5 122t-20.5 78q-7 11 -24 20.5t-66 9.5q-51 0 -76.5 -11t-39.5 -29q-37 -49 -31 -196zM159 684v82h99v-82h-99zM346 684v82h98v-82h-98z" />
    <glyph glyph-name="ecircumflex" unicode="&#xea;" horiz-adv-x="571" 
d="M304 -14q-69 0 -121.5 29.5t-81.5 97t-29 179.5q0 117 30.5 183t82.5 93.5t117 27.5t110.5 -26t69.5 -86.5t24 -162.5v-63h-384l39 15q-4 -66 3.5 -105.5t19 -58.5t19.5 -27q14 -12 34 -18t49 -6t57 4.5t52 11t43 13t31 9.5l21 -67q-9 -4 -35 -14.5t-64.5 -19.5t-86.5 -9
zM161 288l-39 36l337 7l-38 -37q1 71 -2.5 122t-20.5 78q-7 11 -24 20.5t-66 9.5q-51 0 -76.5 -11t-39.5 -29q-37 -49 -31 -196zM184 659l-29 34l121 109h51l121 -109l-29 -34l-114 71h-7z" />
    <glyph glyph-name="eacute" unicode="&#xe9;" horiz-adv-x="571" 
d="M304 -14q-69 0 -121.5 29.5t-81.5 97t-29 179.5q0 117 30.5 183t82.5 93.5t117 27.5t110.5 -26t69.5 -86.5t24 -162.5v-63h-384l39 15q-4 -66 3.5 -105.5t19 -58.5t19.5 -27q14 -12 34 -18t49 -6t57 4.5t52 11t43 13t31 9.5l21 -67q-9 -4 -35 -14.5t-64.5 -19.5t-86.5 -9
zM161 288l-39 36l337 7l-38 -37q1 71 -2.5 122t-20.5 78q-7 11 -24 20.5t-66 9.5q-51 0 -76.5 -11t-39.5 -29q-37 -49 -31 -196zM225 654l-20 50l184 84l30 -67z" />
    <glyph glyph-name="egrave" unicode="&#xe8;" horiz-adv-x="571" 
d="M304 -14q-69 0 -121.5 29.5t-81.5 97t-29 179.5q0 117 30.5 183t82.5 93.5t117 27.5t110.5 -26t69.5 -86.5t24 -162.5v-63h-384l39 15q-4 -66 3.5 -105.5t19 -58.5t19.5 -27q14 -12 34 -18t49 -6t57 4.5t52 11t43 13t31 9.5l21 -67q-9 -4 -35 -14.5t-64.5 -19.5t-86.5 -9
zM161 288l-39 36l337 7l-38 -37q1 71 -2.5 122t-20.5 78q-7 11 -24 20.5t-66 9.5q-51 0 -76.5 -11t-39.5 -29q-37 -49 -31 -196zM370 654l-194 67l30 67l184 -84z" />
    <glyph glyph-name="atilde" unicode="&#xe3;" horiz-adv-x="569" 
d="M211 -13q-46 0 -81.5 21.5t-55.5 63t-20 100.5q0 71 28.5 111.5t80.5 57.5t121 17h106q0 50 -2.5 87.5t-16.5 55.5q-10 14 -27.5 18t-36.5 4q-39 0 -76.5 -7.5t-68 -17.5t-48.5 -17.5l-18 -7.5l-29 65l19 8.5t51 20t71.5 20t81.5 8.5q68 0 108 -26.5t57.5 -74
t17.5 -111.5v-383h-54l-12 61h-6q-10 -7 -28.5 -19.5t-43 -25t-54.5 -21t-64 -8.5zM225 60q36 0 68.5 10.5t58 23.5t38.5 21v166q-13 2 -39 4.5t-68 2.5q-93 0 -115 -19q-13 -10 -20 -35.5t-7 -61.5q0 -59 19.5 -85.5t64.5 -26.5zM358 675q-16 0 -39.5 7.5t-47.5 17.5
t-42.5 17.5t-25.5 7.5q-6 0 -12.5 -11.5t-10.5 -23l-4 -11.5l-52 6q0 57 19.5 79t53.5 22q17 0 39.5 -7t45.5 -16.5t41.5 -17t25.5 -7.5t13 11t10.5 22.5l4.5 11.5l53 -7q0 -56 -18.5 -78.5t-53.5 -22.5z" />
    <glyph glyph-name="adieresis" unicode="&#xe4;" horiz-adv-x="569" 
d="M211 -13q-46 0 -81.5 21.5t-55.5 63t-20 100.5q0 71 28.5 111.5t80.5 57.5t121 17h106q0 50 -2.5 87.5t-16.5 55.5q-10 14 -27.5 18t-36.5 4q-39 0 -76.5 -7.5t-68 -17.5t-48.5 -17.5l-18 -7.5l-29 65l19 8.5t51 20t71.5 20t81.5 8.5q68 0 108 -26.5t57.5 -74
t17.5 -111.5v-383h-54l-12 61h-6q-10 -7 -28.5 -19.5t-43 -25t-54.5 -21t-64 -8.5zM225 60q36 0 68.5 10.5t58 23.5t38.5 21v166q-13 2 -39 4.5t-68 2.5q-93 0 -115 -19q-13 -10 -20 -35.5t-7 -61.5q0 -59 19.5 -85.5t64.5 -26.5zM134 684v82h99v-82h-99zM321 684v82h98v-82
h-98z" />
    <glyph glyph-name="ugrave" unicode="&#xf9;" horiz-adv-x="600" 
d="M234 -13q-40 0 -73.5 19.5t-53 64.5t-19.5 124v387h83v-356q0 -55 3 -90t11 -49q7 -11 22.5 -16t35.5 -5q45 0 89.5 17.5t83.5 35.5v463h83v-582h-56l-10 56h-6q-15 -8 -45 -24.5t-68 -30.5t-80 -14zM368 654l-194 67l30 67l184 -84z" />
    <glyph glyph-name="uacute" unicode="&#xfa;" horiz-adv-x="600" 
d="M234 -13q-40 0 -73.5 19.5t-53 64.5t-19.5 124v387h83v-356q0 -55 3 -90t11 -49q7 -11 22.5 -16t35.5 -5q45 0 89.5 17.5t83.5 35.5v463h83v-582h-56l-10 56h-6q-15 -8 -45 -24.5t-68 -30.5t-80 -14zM233 654l-20 50l184 84l30 -67z" />
    <glyph glyph-name="ucircumflex" unicode="&#xfb;" horiz-adv-x="600" 
d="M234 -13q-40 0 -73.5 19.5t-53 64.5t-19.5 124v387h83v-356q0 -55 3 -90t11 -49q7 -11 22.5 -16t35.5 -5q45 0 89.5 17.5t83.5 35.5v463h83v-582h-56l-10 56h-6q-15 -8 -45 -24.5t-68 -30.5t-80 -14zM182 659l-29 34l121 109h51l121 -109l-29 -34l-114 71h-7z" />
    <glyph glyph-name="udieresis" unicode="&#xfc;" horiz-adv-x="600" 
d="M234 -13q-40 0 -73.5 19.5t-53 64.5t-19.5 124v387h83v-356q0 -55 3 -90t11 -49q7 -11 22.5 -16t35.5 -5q45 0 89.5 17.5t83.5 35.5v463h83v-582h-56l-10 56h-6q-15 -8 -45 -24.5t-68 -30.5t-80 -14zM157 684v82h99v-82h-99zM344 684v82h98v-82h-98z" />
    <glyph glyph-name="yacute" unicode="&#xfd;" horiz-adv-x="479" 
d="M119 -166l78 227l-186 521h89l134 -425h4l134 425h89l-196 -545l-58 -203h-88zM153 654l-20 50l184 84l30 -67z" />
    <glyph glyph-name="Aring" unicode="&#xc5;" horiz-adv-x="506" 
d="M5 0l189 695h118l189 -695h-86l-53 208l42 -24h-300l40 24l-53 -208h-86zM146 219l-28 39h270l-28 -39l-113 439l47 -37h-82l47 37zM253 722q-21 0 -40 7.5t-31.5 25.5t-12.5 49q0 32 12.5 50t31.5 25.5t40 7.5t40 -7.5t31.5 -25.5t12.5 -50q0 -31 -12.5 -49t-31.5 -25.5
t-40 -7.5zM253 768q18 0 26 7t8 29q0 23 -8 30t-26 7t-27 -7t-9 -30q0 -22 9 -29t27 -7z" />
    <glyph glyph-name="Aacute" unicode="&#xc1;" horiz-adv-x="506" 
d="M5 0l189 695h118l189 -695h-86l-53 208l42 -24h-300l40 24l-53 -208h-86zM146 219l-28 39h270l-28 -39l-113 439l47 -37h-82l47 37zM154 733l-18 51l225 82l28 -73z" />
    <glyph glyph-name="Ntilde" unicode="&#xd1;" horiz-adv-x="680" 
d="M105 0v695h113l283 -594h3l-13 594h84v-695h-113l-283 594h-3l13 -594h-84zM440 746q-16 0 -45.5 7.5t-61.5 17t-56.5 16.5t-31.5 7q-6 0 -12.5 -11t-10.5 -22l-4 -11l-52 6q0 57 19.5 79t53.5 22q17 0 46 -7t60.5 -16l56 -16t31.5 -7t12.5 11t9.5 21.5l4 10.5l53 -7
q0 -56 -18.5 -78.5t-53.5 -22.5z" />
    <glyph glyph-name="Odieresis" unicode="&#xd6;" horiz-adv-x="656" 
d="M328 -14q-52 0 -98.5 16t-82 55.5t-55.5 110.5t-20 181t20 180t55.5 109.5t82 55t98.5 15.5q53 0 99 -15.5t81.5 -55t55.5 -109.5t20 -180t-20 -181t-55.5 -110.5t-81.5 -55.5t-99 -16zM328 62q43 0 74.5 9.5t52 38.5t30.5 85.5t10 150.5t-9.5 151t-29.5 86.5t-52 39.5
t-76 10q-45 0 -76.5 -10t-51.5 -39.5t-29.5 -86.5t-9.5 -151t10 -150.5t30 -85.5t52 -38.5t75 -9.5zM185 762v82h99v-82h-99zM372 762v82h98v-82h-98z" />
    <glyph glyph-name="Otilde" unicode="&#xd5;" horiz-adv-x="656" 
d="M328 -14q-52 0 -98.5 16t-82 55.5t-55.5 110.5t-20 181t20 180t55.5 109.5t82 55t98.5 15.5q53 0 99 -15.5t81.5 -55t55.5 -109.5t20 -180t-20 -181t-55.5 -110.5t-81.5 -55.5t-99 -16zM328 62q43 0 74.5 9.5t52 38.5t30.5 85.5t10 150.5t-9.5 151t-29.5 86.5t-52 39.5
t-76 10q-45 0 -76.5 -10t-51.5 -39.5t-29.5 -86.5t-9.5 -151t10 -150.5t30 -85.5t52 -38.5t75 -9.5zM429 746q-16 0 -45.5 7.5t-61.5 17t-56.5 16.5t-31.5 7q-6 0 -12.5 -11t-10.5 -22l-4 -11l-52 6q0 57 19.5 79t53.5 22q17 0 46 -7t60.5 -16l56 -16t31.5 -7t12.5 11
t9.5 21.5l4 10.5l53 -7q0 -56 -18.5 -78.5t-53.5 -22.5z" />
    <glyph glyph-name="Ocircumflex" unicode="&#xd4;" horiz-adv-x="656" 
d="M328 -14q-52 0 -98.5 16t-82 55.5t-55.5 110.5t-20 181t20 180t55.5 109.5t82 55t98.5 15.5q53 0 99 -15.5t81.5 -55t55.5 -109.5t20 -180t-20 -181t-55.5 -110.5t-81.5 -55.5t-99 -16zM328 62q43 0 74.5 9.5t52 38.5t30.5 85.5t10 150.5t-9.5 151t-29.5 86.5t-52 39.5
t-76 10q-45 0 -76.5 -10t-51.5 -39.5t-29.5 -86.5t-9.5 -151t10 -150.5t30 -85.5t52 -38.5t75 -9.5zM209 733l-28 38l121 95h51l121 -95l-28 -38l-115 61h-7z" />
    <glyph glyph-name="Oacute" unicode="&#xd3;" horiz-adv-x="656" 
d="M328 -14q-52 0 -98.5 16t-82 55.5t-55.5 110.5t-20 181t20 180t55.5 109.5t82 55t98.5 15.5q53 0 99 -15.5t81.5 -55t55.5 -109.5t20 -180t-20 -181t-55.5 -110.5t-81.5 -55.5t-99 -16zM328 62q43 0 74.5 9.5t52 38.5t30.5 85.5t10 150.5t-9.5 151t-29.5 86.5t-52 39.5
t-76 10q-45 0 -76.5 -10t-51.5 -39.5t-29.5 -86.5t-9.5 -151t10 -150.5t30 -85.5t52 -38.5t75 -9.5zM229 733l-18 51l225 82l28 -73z" />
    <glyph glyph-name="Ograve" unicode="&#xd2;" horiz-adv-x="656" 
d="M328 -14q-52 0 -98.5 16t-82 55.5t-55.5 110.5t-20 181t20 180t55.5 109.5t82 55t98.5 15.5q53 0 99 -15.5t81.5 -55t55.5 -109.5t20 -180t-20 -181t-55.5 -110.5t-81.5 -55.5t-99 -16zM328 62q43 0 74.5 9.5t52 38.5t30.5 85.5t10 150.5t-9.5 151t-29.5 86.5t-52 39.5
t-76 10q-45 0 -76.5 -10t-51.5 -39.5t-29.5 -86.5t-9.5 -151t10 -150.5t30 -85.5t52 -38.5t75 -9.5zM437 733l-235 66l26 68l227 -83z" />
    <glyph glyph-name="Idieresis" unicode="&#xcf;" 
d="M17 762v82h99v-82h-99zM180 762v82h98v-82h-98zM105 -1l3 319l-3 377h85l-4 -307l4 -388z" />
    <glyph glyph-name="Icircumflex" unicode="&#xce;" 
d="M34 733l-26 40l114 93h51l114 -93l-26 -40l-110 61h-7zM105 -1l3 319l-3 377h85l-4 -307l4 -388z" />
    <glyph glyph-name="Iacute" unicode="&#xcd;" 
d="M71 736l-18 53l211 80l28 -75zM105 -1l3 319l-3 377h85l-4 -307l4 -388z" />
    <glyph glyph-name="Igrave" unicode="&#xcc;" 
d="M227 736l-220 59l26 73l214 -79zM105 -1l3 319l-3 377h85l-4 -307l4 -388z" />
    <glyph glyph-name="Edieresis" unicode="&#xcb;" horiz-adv-x="514" 
d="M105 0v695h341v-74l-295 3l39 38l-7 -298l-37 25h276v-71h-276l37 29l7 -313l-39 38l295 2v-74h-341zM133 762v82h99v-82h-99zM320 762v82h98v-82h-98z" />
    <glyph glyph-name="Ecircumflex" unicode="&#xca;" horiz-adv-x="514" 
d="M105 0v695h341v-74l-295 3l39 38l-7 -298l-37 25h276v-71h-276l37 29l7 -313l-39 38l295 2v-74h-341zM157 733l-28 38l121 95h51l121 -95l-28 -38l-115 61h-7z" />
    <glyph glyph-name="Eacute" unicode="&#xc9;" horiz-adv-x="514" 
d="M105 0v695h341v-74l-295 3l39 38l-7 -298l-37 25h276v-71h-276l37 29l7 -313l-39 38l295 2v-74h-341zM177 733l-18 51l225 82l28 -73z" />
    <glyph glyph-name="Egrave" unicode="&#xc8;" horiz-adv-x="514" 
d="M105 0v695h341v-74l-295 3l39 38l-7 -298l-37 25h276v-71h-276l37 29l7 -313l-39 38l295 2v-74h-341zM385 733l-235 66l26 68l227 -83z" />
    <glyph glyph-name="Adieresis" unicode="&#xc4;" horiz-adv-x="506" 
d="M5 0l189 695h118l189 -695h-86l-53 208l42 -24h-300l40 24l-53 -208h-86zM146 219l-28 39h270l-28 -39l-113 439l47 -37h-82l47 37zM110 762v82h99v-82h-99zM297 762v82h98v-82h-98z" />
    <glyph glyph-name="Atilde" unicode="&#xc3;" horiz-adv-x="506" 
d="M5 0l189 695h118l189 -695h-86l-53 208l42 -24h-300l40 24l-53 -208h-86zM146 219l-28 39h270l-28 -39l-113 439l47 -37h-82l47 37zM354 746q-16 0 -45.5 7.5t-61.5 17t-56.5 16.5t-31.5 7q-6 0 -12.5 -11t-10.5 -22l-4 -11l-52 6q0 57 19.5 79t53.5 22q17 0 46 -7
t60.5 -16l56 -16t31.5 -7t12.5 11t9.5 21.5l4 10.5l53 -7q0 -56 -18.5 -78.5t-53.5 -22.5z" />
    <glyph glyph-name="Acircumflex" unicode="&#xc2;" horiz-adv-x="506" 
d="M5 0l189 695h118l189 -695h-86l-53 208l42 -24h-300l40 24l-53 -208h-86zM146 219l-28 39h270l-28 -39l-113 439l47 -37h-82l47 37zM134 733l-28 38l121 95h51l121 -95l-28 -38l-115 61h-7z" />
    <glyph glyph-name="Agrave" unicode="&#xc0;" horiz-adv-x="506" 
d="M5 0l189 695h118l189 -695h-86l-53 208l42 -24h-300l40 24l-53 -208h-86zM146 219l-28 39h270l-28 -39l-113 439l47 -37h-82l47 37zM362 733l-235 66l26 68l227 -83z" />
    <glyph glyph-name="ydieresis" unicode="&#xff;" horiz-adv-x="479" 
d="M119 -166l78 227l-186 521h89l134 -425h4l134 425h89l-196 -545l-58 -203h-88zM97 684v82h99v-82h-99zM284 684v82h98v-82h-98z" />
    <glyph glyph-name="Ugrave" unicode="&#xd9;" horiz-adv-x="661" 
d="M330 -14q-72 0 -122.5 27.5t-76.5 96.5t-26 192v393h84v-366q0 -90 6 -143t21 -80t42.5 -35.5t71.5 -8.5t72 9t43 35.5t21 80t6 142.5v366h84v-384q0 -128 -26.5 -198.5t-76.5 -98.5t-123 -28zM420 733l-235 66l26 68l227 -83z" />
    <glyph glyph-name="Uacute" unicode="&#xda;" horiz-adv-x="661" 
d="M330 -14q-72 0 -122.5 27.5t-76.5 96.5t-26 192v393h84v-366q0 -90 6 -143t21 -80t42.5 -35.5t71.5 -8.5t72 9t43 35.5t21 80t6 142.5v366h84v-384q0 -128 -26.5 -198.5t-76.5 -98.5t-123 -28zM262 733l-18 51l225 82l28 -73z" />
    <glyph glyph-name="Ucircumflex" unicode="&#xdb;" horiz-adv-x="661" 
d="M330 -14q-72 0 -122.5 27.5t-76.5 96.5t-26 192v393h84v-366q0 -90 6 -143t21 -80t42.5 -35.5t71.5 -8.5t72 9t43 35.5t21 80t6 142.5v366h84v-384q0 -128 -26.5 -198.5t-76.5 -98.5t-123 -28zM212 733l-28 38l121 95h51l121 -95l-28 -38l-115 61h-7z" />
    <glyph glyph-name="Udieresis" unicode="&#xdc;" horiz-adv-x="661" 
d="M330 -14q-72 0 -122.5 27.5t-76.5 96.5t-26 192v393h84v-366q0 -90 6 -143t21 -80t42.5 -35.5t71.5 -8.5t72 9t43 35.5t21 80t6 142.5v366h84v-384q0 -128 -26.5 -198.5t-76.5 -98.5t-123 -28zM188 762v82h99v-82h-99zM375 762v82h98v-82h-98z" />
    <glyph glyph-name="Yacute" unicode="&#xdd;" horiz-adv-x="505" 
d="M210 0l3 259l-197 436h91l143 -348h6l142 348h91l-197 -436l3 -259h-85zM187 733l-18 51l225 82l28 -73z" />
    <glyph glyph-name="slash" unicode="/" horiz-adv-x="430" 
d="M4 -98l170 417l145 376h89l-166 -407l-150 -386h-88z" />
    <glyph glyph-name="ae" unicode="&#xe6;" horiz-adv-x="883" 
d="M215 -13q-73 0 -117 45t-44 139q0 65 29.5 102t81.5 53t119 16h106q0 70 -2.5 103.5t-16.5 53.5q-10 16 -27.5 20t-37.5 4q-38 0 -75.5 -7.5t-68 -17.5t-48.5 -17.5l-18 -7.5l-29 65l19.5 8.5t51.5 20t69 20t72 8.5q65 0 104 -19.5t60 -56.5h4q31 42 74 59t96 17
q64 0 108.5 -25.5t68.5 -83.5t24 -157v-59h-343v-36q2 -50 9.5 -80t16.5 -46t16 -24q14 -12 33 -18t56 -6q28 0 58.5 5.5t57 13.5t43 13.5l16.5 5.5l21 -68l-14.5 -6.5t-40 -15t-59.5 -15t-73 -6.5q-57 0 -102.5 17.5t-75.5 63.5h-7q-17 -13 -49.5 -32t-75 -34t-90.5 -15z
M228 61q32 0 63.5 9t57.5 21t41 20v153q-11 2 -34.5 5t-76.5 3q-41 0 -70.5 -5t-40.5 -14q-13 -10 -20 -32t-7 -59q0 -55 20.5 -78t66.5 -23zM474 336l259 5q0 53 -4.5 92.5t-18.5 62.5q-7 11 -27 19t-63 8q-49 0 -74 -10t-39 -28q-17 -21 -25 -58.5t-8 -90.5z" />
    <glyph glyph-name="oe" unicode="&#x153;" horiz-adv-x="916" 
d="M288 -13q-83 0 -130.5 37t-67.5 105t-20 162t20 162t67.5 105t130.5 37q66 0 108.5 -24.5t66.5 -68.5h4q30 51 76.5 72t105.5 21q64 0 109 -26.5t69 -86.5t24 -161v-62h-344v-34q2 -70 17 -100.5t26 -40.5q14 -12 33 -18t55 -6q28 0 58.5 5.5t57.5 13.5t43.5 13.5
l16.5 5.5l21 -68l-14.5 -6.5t-40 -15t-59.5 -15t-73 -6.5q-59 0 -104 22t-74 71h-4q-25 -45 -69 -69t-109 -24zM288 58q38 0 63.5 9t41 33.5t22 70.5t6.5 120t-6.5 120t-22 70.5t-41 33t-63.5 8.5t-63.5 -8.5t-41 -33t-22.5 -70.5t-7 -120t7 -120t22.5 -70.5t41 -33.5
t63.5 -9zM507 325l259 5q0 57 -4.5 98.5t-18.5 64.5q-7 14 -27 22t-63 8q-49 0 -74 -10t-40 -30q-16 -22 -24 -62t-8 -96z" />
    <glyph glyph-name="asterisk" unicode="*" horiz-adv-x="414" 
d="M129 374l-64 55l13 14l89 84l-113 19l-18 6l26 83l19 -7l99 -50l-16 110v19h86v-19l-17 -110l100 50l18 7l27 -83l-19 -6l-114 -19l88 -84l14 -14l-65 -55l-11 15l-65 104l-66 -104z" />
    <glyph glyph-name="OE" unicode="&#x152;" horiz-adv-x="909" 
d="M328 -13q-52 0 -98.5 16t-82 55.5t-55.5 110t-20 180.5q0 109 20 179t55.5 109.5t82 55t98.5 15.5q53 0 94.5 -15.5t72.5 -50.5h42l-38 -38v91h342v-76l-258 3l-5 -233h239v-71h-239l5 -245l258 2v-75h-342v92l38 -38h-42q-31 -35 -72.5 -51t-94.5 -16zM328 64
q43 0 74.5 9.5t52 38t30.5 85t10 149.5t-9.5 150t-29.5 86.5t-52 39.5t-76 10q-45 0 -76.5 -10t-51.5 -39.5t-29.5 -86.5t-9.5 -150t10 -149.5t30 -85t52 -38t75 -9.5z" />
    <glyph glyph-name="Eth" unicode="&#xd0;" horiz-adv-x="643" 
d="M52 321v70h256v-70h-256zM314 -14q-20 0 -49.5 1.5t-60 4t-54.5 4.5t-33 3v697q4 0 26 2t54 4.5t66.5 4.5t61.5 2q77 0 125.5 -28.5t74.5 -78t36 -113t10 -133.5q0 -138 -33.5 -219t-91.5 -116t-132 -35zM303 59q54 0 80 7.5t39 20.5q14 14 26.5 44t20.5 86t8 146
q0 91 -12.5 160t-40.5 93q-10 9 -31.5 14.5t-65.5 5.5q-40 0 -77 -3.5t-64 -5.5l15 40v-636l-18 41q29 -4 57 -8.5t63 -4.5z" />
    <glyph glyph-name="AE" unicode="&#xc6;" horiz-adv-x="765" 
d="M-3 0l299 695h401v-76l-258 3l-5 -233h239v-71h-239l5 -245l258 2v-75h-341v183h-192l-78 -183h-89zM185 256h171v371h-18z" />
    <glyph glyph-name="Oslash" unicode="&#xd8;" horiz-adv-x="656" 
d="M108 -39l204 431l158 346h79l-174 -374l-187 -403h-80zM328 -14q-52 0 -98.5 16t-82 55.5t-55.5 110.5t-20 181t20 180t55.5 109.5t82 55t98.5 15.5q53 0 99 -15.5t81.5 -55t55.5 -109.5t20 -180t-20 -181t-55.5 -110.5t-81.5 -55.5t-99 -16zM328 62q43 0 74.5 9.5
t52 38.5t30.5 85.5t10 150.5t-9.5 151t-29.5 86.5t-52 39.5t-76 10q-45 0 -76.5 -10t-51.5 -39.5t-29.5 -86.5t-9.5 -151t10 -150.5t30 -85.5t52 -38.5t75 -9.5z" />
    <glyph glyph-name="bar" unicode="|" horiz-adv-x="280" 
d="M103 -81v834h74v-834h-74z" />
    <glyph glyph-name="registered" unicode="&#xae;" horiz-adv-x="836" 
d="M417 -27q-76 0 -139.5 26t-109.5 72.5t-71 110.5t-25 140t26.5 140t73.5 110.5t110 72.5t135 26q76 0 139.5 -26t110 -72.5t72 -110.5t25.5 -140t-25.5 -140t-72 -110.5t-110 -72.5t-139.5 -26zM417 43q86 0 147.5 34t94.5 96.5t33 148.5t-33 148.5t-94.5 96.5t-147.5 34
q-81 0 -142.5 -34t-96 -96.5t-34.5 -148.5q0 -129 72 -204t201 -75zM281 118l3 193l-2 213q10 1 34.5 3t54.5 3.5t55 1.5q64 0 101 -29.5t37 -100.5q0 -58 -25 -88.5t-54 -37.5v-3l80 -155h-81l-71 149l-60 1v-150h-72zM431 331q32 0 45 16.5t13 53.5q0 38 -12 53t-50 15
q-25 0 -49 -2.5l-24 -2.5l-2 -129q18 -2 40 -3t39 -1z" />
    <glyph glyph-name="copyright" unicode="&#xa9;" horiz-adv-x="836" 
d="M417 -27q-76 0 -139.5 26t-109.5 72.5t-71 110.5t-25 140t26.5 140t73.5 110.5t110 72.5t135 26q76 0 139.5 -26t110 -72.5t72 -110.5t25.5 -140t-25.5 -140t-72 -110.5t-110 -72.5t-139.5 -26zM406 104q-43 0 -79 21t-57.5 67.5t-21.5 123.5q0 69 13.5 112t37 67
t54.5 33t65 9q14 0 33.5 -1.5t38 -4t27.5 -6.5l-5 -65q-7 1 -25.5 3t-38 3.5t-28.5 1.5q-28 0 -43 -3.5t-22 -11.5q-11 -13 -19.5 -43t-8.5 -95q0 -55 10 -86t21 -41q13 -13 43 -13q29 0 56 7t44 13.5l17 6.5l18 -61l-16.5 -9.5t-45.5 -18.5t-68 -9zM417 43q86 0 147.5 34
t94.5 96.5t33 148.5t-33 148.5t-94.5 96.5t-147.5 34q-81 0 -142.5 -34t-96 -96.5t-34.5 -148.5q0 -129 72 -204t201 -75z" />
    <glyph glyph-name="endash" unicode="&#x2013;" horiz-adv-x="577" 
d="M50 293v70h477v-70h-477z" />
    <glyph glyph-name="emdash" unicode="&#x2014;" horiz-adv-x="801" 
d="M70 293v70h661v-70h-661z" />
    <glyph glyph-name="divide" unicode="&#xf7;" horiz-adv-x="618" 
d="M52 258v70h515v-70h-515zM256 51v84h108v-84h-108zM256 450v85h108v-85h-108z" />
    <glyph glyph-name="plus" unicode="+" horiz-adv-x="621" 
d="M273 32v226h-221v70h221v225h74v-225h222v-70h-222v-226h-74z" />
    <glyph glyph-name="bullet" unicode="&#x2022;" horiz-adv-x="372" 
d="M187 324q-29 0 -56 11.5t-44 37.5t-17 69t17 68.5t44 36.5t56 11t55 -11.5t43 -36.5t17 -68t-17 -69t-43 -37.5t-55 -11.5z" />
    <glyph glyph-name="Lslash" unicode="&#x141;" horiz-adv-x="438" 
d="M4 240v82l305 211v-83zM102 0v695h84l-5 -661l-38 38l289 2v-74h-330z" />
    <glyph glyph-name="lslash" unicode="&#x142;" horiz-adv-x="286" 
d="M106 0v320l-77 -50v79l77 51v353h83v-297l68 46v-82l-68 -45v-375h-83z" />
    <glyph glyph-name="asciitilde" unicode="~" horiz-adv-x="524" 
d="M380 215q-18 0 -48.5 11t-66.5 26t-69.5 26t-56.5 11q-13 0 -29.5 -8t-30.5 -18t-22 -16l-30 42q10 11 29 28.5t42.5 31.5t46.5 14q27 0 59.5 -11t65.5 -25.5t63.5 -25.5t52.5 -11q17 0 40 10t38 19l26 -41q-8 -11 -24 -26t-37.5 -26t-48.5 -11z" />
    <glyph glyph-name="cent" unicode="&#xa2;" horiz-adv-x="518" 
d="M269 -118v107q-90 9 -144.5 81t-54.5 223q0 104 26 166.5t71 93.5t102 39v102h73v-99q34 -1 66.5 -6t54.5 -10l-10 -70q-19 2 -60 7.5t-88 5.5q-37 0 -62.5 -6t-39.5 -20q-19 -21 -32.5 -76.5t-13.5 -132.5q0 -71 11 -114.5t26 -66t27 -31.5q8 -6 21.5 -11t38.5 -5
q29 0 59 7t55 16t40.5 16l15.5 7l26 -65l-16.5 -10.5t-47 -22.5t-71.5 -17v-108h-73z" />
    <glyph glyph-name="dotlessi" unicode="&#x131;" 
d="M106 0v582h83v-582h-83z" />
    <glyph glyph-name="dollar" unicode="$" horiz-adv-x="512" 
d="M218 -117v106q-49 5 -90.5 20t-66.5 28.5l-25 13.5l4.5 10.5t10.5 24t10.5 23.5l4.5 10l16.5 -8.5t44.5 -19t64 -19t75 -8.5q25 0 39.5 4.5t20.5 8.5q20 14 31 38.5t11 63.5q0 37 -16 62t-42.5 42t-57.5 30q-40 18 -75 35t-62 39.5t-42 55.5t-15 82q0 68 40.5 118
t121.5 62v97h74v-95q37 -2 67 -7t48 -9.5l18 -4.5l-14 -72l-14 2.5t-38 6.5t-54 6.5t-61 2.5q-25 0 -39 -3t-25 -10q-13 -7 -24.5 -28.5t-11.5 -57.5q0 -41 21 -67t55 -42.5t71 -32.5q30 -12 59 -27.5t52 -37.5t37 -55t14 -81q0 -80 -45 -133t-119 -66v-108h-73z" />
    <glyph glyph-name="uni03BC" unicode="&#xb5;" horiz-adv-x="601" 
d="M88 -166v748h84v-357q0 -57 2.5 -89t10.5 -47q8 -12 22.5 -18.5t43.5 -6.5q30 0 65 11.5t63 24.5t37 17v465h84v-582h-56l-10 56h-6q-8 -5 -28 -16t-47 -23.5t-55.5 -21t-53.5 -8.5q-22 0 -40.5 4t-35.5 14l-4 -3l8 -168h-84z" />
    <glyph glyph-name="yen" unicode="&#xa5;" horiz-adv-x="544" 
d="M47 270v66h149l-171 359h94l149 -358h6l148 358h94l-172 -359h150v-66h-447zM228 0v146h-181v66h447v-66h-183v-146h-83z" />
    <glyph glyph-name="sterling" unicode="&#xa3;" horiz-adv-x="557" 
d="M72 0v74h88v272h-88v65h88q1 88 18.5 145.5t48 90.5t70.5 47t86 14q33 0 66 -5t54 -11l-9 -70q-24 4 -55.5 8.5t-66.5 4.5q-36 0 -56.5 -6t-31.5 -20q-16 -20 -27 -71.5t-13 -126.5h180v-65h-180v-271l244 2v-77h-416z" />
    <glyph glyph-name="thorn" unicode="&#xfe;" horiz-adv-x="591" 
d="M105 -166v919h79v-182q10 5 35.5 10.5t58.5 9.5t63 4q88 0 134 -70.5t46 -231.5q0 -93 -17.5 -153t-47 -93.5t-66 -46.5t-74.5 -13q-23 0 -59 4.5t-73 11.5v-169h-79zM315 60q32 0 47.5 3.5t25.5 12.5q9 9 20 34t18.5 71t7.5 117t-4 113.5t-11 64t-17 29.5t-29 12t-41 4
q-32 0 -58 -4t-48 -10.5t-42 -12.5v-416q30 -6 61.5 -12t69.5 -6z" />
    <glyph glyph-name="Thorn" unicode="&#xde;" horiz-adv-x="595" 
d="M103 0l3 325l-3 370h84l-1 -91q35 2 74 4.5t77 2.5q93 0 144 -58t51 -174q0 -73 -18.5 -120t-50 -73.5t-70.5 -37.5t-80 -11q-17 0 -41.5 1t-47.5 2.5t-38 2.5l1 -143h-84zM324 208q33 0 54.5 4t33.5 15q18 17 24.5 58t6.5 104q0 53 -6 82t-14 42.5t-16 17.5
q-11 7 -35.5 11.5t-50.5 4.5q-38 0 -76.5 -3.5t-59.5 -7.5v-315q17 -4 56.5 -8.5t82.5 -4.5z" />
    <glyph glyph-name="germandbls" unicode="&#xdf;" horiz-adv-x="615" 
d="M340 -13q-28 0 -50 4l-33 6l10 63q17 -4 35.5 -5.5t32.5 -1.5q60 0 88 30t28 108q0 46 -11.5 79t-42 51t-86.5 18h-26v59q66 7 96.5 35.5t30.5 92.5q0 51 -16 76.5t-41.5 34.5t-52.5 9q-64 0 -88.5 -37.5t-24.5 -116.5v-492h-84v491q0 57 15.5 98t42.5 67.5t63 39.5
t76 13q39 0 74.5 -11.5t62.5 -34.5t43 -56t16 -76q0 -51 -19.5 -84.5t-42.5 -50t-35 -17.5v-3q18 -2 41.5 -11t45.5 -29t36.5 -54t14.5 -87q0 -46 -13 -84.5t-38 -66t-62 -42.5t-86 -15z" />
    <glyph glyph-name="Euro" unicode="&#x20ac;" horiz-adv-x="594" 
d="M346 -13q-64 0 -114.5 25.5t-83 84.5t-42.5 159h-60v66h447v-66h-297q7 -69 23.5 -112t34.5 -61q14 -14 33.5 -19.5t44.5 -5.5q38 0 73 8.5t62.5 19.5t43.5 19.5l16 8.5l29 -66l-15.5 -9t-44 -21.5t-67 -21.5t-83.5 -9zM46 379v66h61q12 107 47 164t87.5 78t114.5 21
q26 0 59.5 -2.5t64 -6t46.5 -7.5l-9 -72q-13 2 -41 4.5t-62 5t-64 2.5q-47 0 -71 -7t-35 -20q-13 -15 -27 -52t-21 -108h297v-66h-447z" />
    <glyph glyph-name="eth" unicode="&#xf0;" horiz-adv-x="576" 
d="M288 -13q-83 0 -130.5 35t-67.5 100t-20 154q0 72 20.5 127t68 86t127.5 31q47 0 78.5 -13t50.5 -28l5 3q-12 38 -34 70.5t-57 64.5l-95 -61l-8 70l54 32q-20 15 -37.5 26.5t-32.5 21.5l37 60q26 -13 51 -29t47 -33l108 71l7 -71l-69 -42q48 -49 72.5 -112.5t33.5 -131.5
t9 -132q0 -92 -20 -159.5t-67.5 -103.5t-130.5 -36zM288 58q51 0 80 15.5t41 62.5t12 139q0 72 -13 109t-42.5 50.5t-77.5 13.5t-77.5 -13.5t-43 -50.5t-13.5 -109q0 -92 12.5 -139t42 -62.5t79.5 -15.5z" />
    <glyph glyph-name="itilde" unicode="&#x129;" 
d="M234 666q-14 0 -38 7.5t-49.5 17.5t-45.5 17.5t-26 7.5q-5 0 -10.5 -11.5t-9 -23l-3.5 -11.5l-52 6q0 56 16.5 78t46.5 22q14 0 37.5 -7t49 -16.5t45 -17t26.5 -7.5q5 0 10 11t8.5 22.5l3.5 11.5l52 -7q0 -55 -15.5 -77.5t-45.5 -22.5zM106 0v582h83v-582h-83z" />
    <glyph glyph-name="jcircumflex" unicode="&#x135;" horiz-adv-x="307" 
d="M65 660l-33 33l114 109h53l114 -109l-32 -33l-104 70h-8zM55 -180q-13 0 -27 1.5t-23.5 2.5l-9.5 1l9 74l8.5 -1t22.5 -2t30 -1q26 0 40 8.5t19.5 41.5t5.5 105v532h83v-529q0 -88 -21 -139t-57 -72.5t-80 -21.5z" />
    <glyph glyph-name="paragraph" unicode="&#xb6;" horiz-adv-x="658" 
d="M265 -154v348q-66 0 -114.5 23t-75 77.5t-26.5 150.5t26 150.5t74.5 77t115.5 22.5h295v-849h-84v775h-127v-775h-84z" />
    <glyph glyph-name="brokenbar" unicode="&#xa6;" horiz-adv-x="280" 
d="M103 403v350h74v-350h-74zM103 -81v350h74v-350h-74z" />
    <glyph glyph-name="backslash" unicode="\" horiz-adv-x="432" 
d="M338 -98l-150 386l-166 407h89l145 -376l170 -417h-88z" />
    <glyph glyph-name="Itilde" unicode="&#x128;" 
d="M224 746q-16 0 -38 7t-44 16t-39 16t-24 7q-6 0 -12.5 -10.5t-10.5 -21l-4 -10.5l-52 6q0 57 19.5 79t53.5 22q17 0 38.5 -7t43 -15.5t38.5 -15.5t24 -7t12.5 10.5t9.5 21l4 10.5l53 -7q0 -56 -18.5 -78.5t-53.5 -22.5zM105 -1l3 319l-3 377h85l-4 -307l4 -388z" />
    <glyph glyph-name="Jcircumflex" unicode="&#x134;" horiz-adv-x="316" 
d="M65 733l-26 40l114 93h51l114 -93l-26 -40l-110 61h-7zM56 -13q-14 0 -26.5 1.5t-22.5 3.5l-15 3l10 72q9 -1 28 -4t42 -3q21 0 35 9.5t21.5 44.5t7.5 109v472h84v-459q0 -93 -21.5 -147.5t-58.5 -78t-84 -23.5z" />
    <glyph glyph-name="Nacute" unicode="&#x143;" horiz-adv-x="680" 
d="M105 0v695h113l283 -594h3l-13 594h84v-695h-113l-283 594h-3l13 -594h-84zM278 733l-18 51l225 82l28 -73z" />
    <glyph glyph-name="Racute" unicode="&#x154;" horiz-adv-x="635" 
d="M105 0l5 329l-3 366q11 2 36 4t57 4t65.5 3.5t62.5 1.5q68 0 118 -21t77 -68.5t27 -126.5q0 -87 -38 -138t-110 -68v-3l157 -283h-99l-140 276l-130 5v-281h-85zM338 346q74 0 98.5 35.5t24.5 111.5q0 62 -10.5 94.5t-28.5 42.5q-11 7 -33.5 10.5t-48.5 3.5
q-41 0 -83.5 -4t-65.5 -7l-2 -277q35 -4 74.5 -7t74.5 -3zM219 733l-18 51l225 82l28 -73z" />
    <glyph glyph-name="rcaron" unicode="&#x159;" horiz-adv-x="395" 
d="M101 0v582h53l11 -59h6l15.5 11t40.5 25t53.5 25t53.5 11q15 0 28 -2.5l13 -2.5l-7 -80l-13 1t-24 1q-28 0 -56.5 -8t-52.5 -20t-38 -23v-461h-83zM212 663l-121 109l29 34l114 -71h7l114 71l29 -34l-121 -109h-51z" />
    <glyph glyph-name="currency" unicode="&#xa4;" horiz-adv-x="649" 
d="M129 101l-54 56l57 57q-17 26 -28.5 60t-11.5 77q0 44 12 78t30 60l-56 57l55 56l58 -58q65 42 138 42q35 0 69.5 -10t64.5 -30l58 57l56 -55l-57 -56q20 -26 32.5 -60t12.5 -81q0 -46 -12 -80t-30 -60l57 -57l-56 -54l-57 55q-65 -42 -138 -42q-76 0 -143 45zM329 187
q82 0 119 37.5t37 125.5q0 87 -43.5 124.5t-112.5 37.5t-113 -37.5t-44 -124.5q0 -88 44 -125.5t113 -37.5z" />
    <glyph glyph-name="nacute" unicode="&#x144;" horiz-adv-x="601" 
d="M101 0v582h56l9 -57h5q9 5 30 16.5t50 24t62 21t66 8.5q55 0 84 -27.5t39.5 -74.5t10.5 -106v-387h-83v358q0 59 -2 90t-13 47q-8 13 -23 17t-32 4q-36 0 -73.5 -11.5t-65.5 -24t-37 -17.5v-463h-83zM234 654l-20 50l184 84l30 -67z" />
    <glyph glyph-name="multiply" unicode="&#xd7;" horiz-adv-x="575" 
d="M106 63l-52 53l182 182l-180 180l50 51l180 -181l183 183l52 -53l-182 -182l180 -180l-50 -51l-181 180z" />
    <glyph glyph-name="Rcaron" unicode="&#x158;" horiz-adv-x="635" 
d="M105 0l5 329l-3 366q11 2 36 4t57 4t65.5 3.5t62.5 1.5q68 0 118 -21t77 -68.5t27 -126.5q0 -87 -38 -138t-110 -68v-3l157 -283h-99l-140 276l-130 5v-281h-85zM338 346q74 0 98.5 35.5t24.5 111.5q0 62 -10.5 94.5t-28.5 42.5q-11 7 -33.5 10.5t-48.5 3.5
q-41 0 -83.5 -4t-65.5 -7l-2 -277q35 -4 74.5 -7t74.5 -3zM292 746l-121 95l28 38l115 -61h7l115 61l28 -38l-121 -95h-51z" />
    <glyph glyph-name="plusminus" unicode="&#xb1;" horiz-adv-x="559" 
d="M242 155v172h-190v70h190v171h74v-171h191v-70h-191v-172h-74zM52 17v72h455v-72h-455z" />
    <glyph glyph-name="logicalnot" unicode="&#xac;" horiz-adv-x="587" 
d="M470 117v140h-442v73h515v-213h-73z" />
    <glyph glyph-name="greater" unicode="&#x3e;" horiz-adv-x="635" 
d="M56 16v83l419 191v6l-419 188v84l504 -240v-71z" />
    <glyph glyph-name="less" unicode="&#x3c;" horiz-adv-x="632" 
d="M580 16l-505 241v71l505 240v-84l-420 -188v-6l420 -191v-83z" />
    <glyph glyph-name="numbersign" unicode="#" horiz-adv-x="546" 
d="M76 0l31 199h-82v71h93l24 151h-83v72h94l32 202h72l-32 -202h128l32 202h73l-32 -202h83v-72h-94l-24 -151h83v-71h-94l-31 -199h-72l31 199h-128l-31 -199h-73zM191 270h128l23 151h-128z" />
    <glyph glyph-name="underscore" unicode="_" horiz-adv-x="536" 
d="M16 -161v70h504v-70h-504z" />
    <glyph glyph-name="guilsinglleft" unicode="&#x2039;" horiz-adv-x="282" 
d="M181 88l-141 242l141 242l62 -38l-122 -200v-7l122 -200z" />
    <glyph glyph-name="guilsinglright" unicode="&#x203a;" horiz-adv-x="282" 
d="M101 88l-62 39l122 200v7l-122 200l62 38l141 -242z" />
    <glyph glyph-name="guillemotleft" unicode="&#xab;" horiz-adv-x="460" 
d="M181 88l-141 242l141 242l62 -38l-122 -200v-7l122 -200zM360 88l-141 242l141 242l61 -38l-121 -200v-7l121 -200z" />
    <glyph glyph-name="guillemotright" unicode="&#xbb;" horiz-adv-x="460" 
d="M101 88l-62 39l122 200v7l-122 200l62 38l141 -242zM279 88l-61 39l121 200v7l-121 200l61 38l141 -242z" />
    <glyph glyph-name="hbar" unicode="&#x127;" horiz-adv-x="584" 
d="M96 753h83v-277q27 12 58 23t62 18.5t56 7.5q60 0 93 -24t46.5 -70t13.5 -114v-317h-84v288q0 57 -4 89t-16 49q-10 14 -24.5 17.5t-35.5 3.5q-22 0 -44.5 -4t-44 -10.5t-41 -13.5t-35.5 -14v-405h-83v753zM-4 614v65h319v-65l-190 2z" />
    <glyph glyph-name="IJ" unicode="&#x132;" horiz-adv-x="611" 
d="M105 -1l3 319l-3 377h85l-4 -307l4 -388zM351 -13q-14 0 -26.5 1.5t-22.5 3.5l-15 3l10 72q9 -1 28 -4t42 -3q21 0 35 9.5t21.5 44.5t7.5 109v472h84v-459q0 -93 -21.5 -147.5t-58.5 -78t-84 -23.5z" />
    <glyph glyph-name="ij" unicode="&#x133;" horiz-adv-x="602" 
d="M106 0v582h83v-582h-83zM97 681v85h102v-85h-102zM338 -180q-13 0 -27 1.5t-23.5 2.5l-9.5 1l9 74l8.5 -1t22.5 -2t30 -1q26 0 40 8.5t19.5 41.5t5.5 105v532h83v-529q0 -88 -21 -139t-57 -72.5t-80 -21.5zM404 681v85h102v-85h-102z" />
    <glyph glyph-name="uni0156" unicode="&#x156;" horiz-adv-x="635" 
d="M105 0l5 329l-3 366q11 2 36 4t57 4t65.5 3.5t62.5 1.5q68 0 118 -21t77 -68.5t27 -126.5q0 -87 -38 -138t-110 -68v-3l157 -283h-99l-140 276l-130 5v-281h-85zM338 346q74 0 98.5 35.5t24.5 111.5q0 62 -10.5 94.5t-28.5 42.5q-11 7 -33.5 10.5t-48.5 3.5
q-41 0 -83.5 -4t-65.5 -7l-2 -277q35 -4 74.5 -7t74.5 -3zM255 -233l-22 41q30 16 38.5 38t8.5 74v25h78l-1 -20q-3 -55 -18.5 -86.5t-38 -47t-45.5 -24.5z" />
    <glyph glyph-name="uni0157" unicode="&#x157;" horiz-adv-x="395" 
d="M101 0v582h53l11 -59h6l15.5 11t40.5 25t53.5 25t53.5 11q15 0 28 -2.5l13 -2.5l-7 -80l-13 1t-24 1q-28 0 -56.5 -8t-52.5 -20t-38 -23v-461h-83zM82 -233l-22 41q30 16 38.5 38t8.5 74v25h78l-1 -20q-3 -55 -18.5 -86.5t-38 -47t-45.5 -24.5z" />
    <glyph glyph-name="Ldotaccent" unicode="&#x13f;" horiz-adv-x="446" 
d="M275 333v87h98v-87h-98zM105 0v695h84l-5 -661l-38 38l289 2v-74h-330z" />
    <glyph glyph-name="ldot" unicode="&#x140;" horiz-adv-x="382" 
d="M259 361v86h98v-86h-98zM121 0v753h83v-753h-83z" />
    <glyph glyph-name="uni0137" unicode="&#x137;" horiz-adv-x="522" 
d="M423 0l-249 314l232 268h107l-244 -262v-5l262 -315h-108zM90 0l5 321l-5 432h83v-753h-83zM216 -233l-22 41q30 16 38.5 38t8.5 74v25h78l-1 -20q-3 -55 -18.5 -86.5t-38 -47t-45.5 -24.5z" />
    <glyph glyph-name="kgreenlandic" unicode="&#x138;" horiz-adv-x="522" 
d="M423 0h108l-263 314v5l245 263h-107l-257 -297l2 59zM90 0l5 300l-3 282h57l24 -76v-506h-83z" />
    <glyph glyph-name="oslash" unicode="&#xf8;" horiz-adv-x="579" 
d="M90 -45l44 91l250 532l19 42h76l-39 -81l-251 -533l-23 -51h-76zM289 -13q-83 0 -130.5 37t-67.5 105t-20 162t20 162t67.5 105t130.5 37t130.5 -37t67.5 -105t20 -162t-20 -162t-67.5 -105t-130.5 -37zM289 59q38 0 63.5 9t41 33t22 70t6.5 120t-6.5 120t-22 70.5
t-41 33t-63.5 8.5t-63.5 -8.5t-41 -33t-22.5 -70.5t-7 -120t7 -120t22.5 -70t41 -33t63.5 -9z" />
    <glyph glyph-name="degree" unicode="&#xb0;" horiz-adv-x="347" 
d="M174 407q-37 0 -72 15t-57 48t-22 88t22 87.5t57 47t72 14.5t71.5 -14.5t56.5 -47t22 -87.5t-22 -88t-56.5 -48t-71.5 -15zM174 474q35 0 57 18t22 66q0 47 -22 64.5t-57 17.5q-36 0 -58 -17.5t-22 -64.5q0 -48 22 -66t58 -18z" />
    <glyph glyph-name="at" unicode="@" horiz-adv-x="835" 
d="M413 -38q-64 0 -125.5 23t-111.5 69t-80 115t-30 161q0 95 32 165t84.5 116t117.5 68.5t131 22.5q64 0 124 -20.5t107.5 -60t75 -97t27.5 -132.5q0 -58 -17 -107.5t-45 -85t-61.5 -55.5t-67.5 -20q-43 0 -59 32.5t-18 86.5h-4q-10 -20 -28 -48.5t-42.5 -49.5t-56.5 -21
q-17 0 -36.5 9.5t-37 33t-28.5 66t-11 107.5q0 80 18.5 126t53.5 65.5t86 19.5q27 0 54.5 -4t50.5 -8.5t37.5 -8.5l14.5 -4l-0.5 -21.5t-0.5 -55.5t-0.5 -72t-0.5 -70q0 -52 1.5 -76.5t5 -31.5t10.5 -7q19 0 44.5 23.5t45 67.5t19.5 106q0 109 -69 174t-191 65
q-83 0 -149 -32.5t-104 -97t-38 -161.5q0 -98 38.5 -165.5t101 -102.5t135.5 -35q21 0 41 2t33 4.5l13 2.5l8 -67l-27 -7t-71 -7zM377 204q18 0 37 26t36 66.5t27.5 85.5t10.5 84q-8 2 -30.5 5.5t-48.5 3.5q-39 0 -50 -10q-10 -8 -15.5 -41t-5.5 -86q0 -71 10.5 -102.5
t28.5 -31.5z" />
    <glyph glyph-name="percent" unicode="%" horiz-adv-x="799" 
d="M188 -9l186 391l156 351h74l-177 -382l-164 -360h-75zM203 407q-37 0 -71.5 15t-56.5 48t-22 88t22 87.5t56.5 47t71.5 14.5t71.5 -14.5t56.5 -47t22 -87.5t-22 -88t-56.5 -48t-71.5 -15zM203 474q35 0 57.5 18t22.5 66q0 47 -22.5 64.5t-57.5 17.5t-57.5 -17.5
t-22.5 -64.5q0 -48 22.5 -66t57.5 -18zM596 -7q-38 0 -72.5 15t-56.5 48t-22 88t22 87.5t56.5 47t72.5 14.5q37 0 71.5 -14.5t56.5 -47t22 -87.5t-22 -88t-56.5 -48t-71.5 -15zM596 60q35 0 57 18t22 66q0 47 -22 64.5t-57 17.5q-36 0 -58 -17.5t-22 -64.5q0 -48 22 -66
t58 -18z" />
    <glyph glyph-name="section" unicode="&#xa7;" horiz-adv-x="521" 
d="M259 -93q-42 0 -78.5 7.5t-63.5 17t-42 16.5l-15 7l21 71l16 -7t42 -16.5t58 -16.5t64 -7q52 0 71 15q12 8 20.5 27t8.5 49q0 31 -18.5 49t-47.5 29t-63 21q-43 13 -82.5 31.5t-65 49t-25.5 78.5q0 36 17 66.5t45 52.5q-19 18 -30.5 43.5t-11.5 60.5q0 70 40.5 113.5
t132.5 43.5q51 0 95 -9t60 -14l-13 -70l-12.5 3.5t-34 7.5t-49.5 7.5t-60 3.5q-21 0 -37 -4t-24 -11t-14 -22t-6 -38q0 -33 20.5 -52.5t53.5 -32t70 -25.5q41 -14 80 -31t64 -44.5t25 -74.5q0 -43 -21.5 -76t-46.5 -56q17 -16 27 -40t10 -56q0 -38 -13 -69t-37 -53
t-57 -33.5t-73 -11.5zM343 208q17 17 34 40.5t17 45.5q0 32 -33 48.5t-79 32.5q-25 9 -52 18.5t-52 20.5q-17 -18 -29 -39t-12 -49q0 -21 16 -36.5t41 -26.5t51 -20q33 -11 56 -19.5t42 -15.5z" />
    <glyph glyph-name="uni00AD" unicode="&#xad;" horiz-adv-x="389" 
d="M80 258v71h229v-71h-229z" />
    <glyph glyph-name="asciicircum" unicode="^" horiz-adv-x="506" 
d="M133 316l-75 9l146 370h98l146 -370l-74 -9l-117 314h-7z" />
    <glyph glyph-name="uni0237" unicode="&#x237;" horiz-adv-x="307" 
d="M43 -180q-13 0 -27 1.5t-23.5 2.5l-9.5 1l9 74l8.5 -1t22.5 -2t30 -1q26 0 40 8.5t19.5 41.5t5.5 105v532h83v-529q0 -88 -21 -139t-57 -72.5t-80 -21.5z" />
    <glyph glyph-name="agrave" unicode="&#xe0;" horiz-adv-x="569" 
d="M211 -13q-46 0 -81.5 21.5t-55.5 63t-20 100.5q0 71 28.5 111.5t80.5 57.5t121 17h106q0 50 -2.5 87.5t-16.5 55.5q-10 14 -27.5 18t-36.5 4q-39 0 -76.5 -7.5t-68 -17.5t-48.5 -17.5l-18 -7.5l-29 65l19 8.5t51 20t71.5 20t81.5 8.5q68 0 108 -26.5t57.5 -74
t17.5 -111.5v-383h-54l-12 61h-6q-10 -7 -28.5 -19.5t-43 -25t-54.5 -21t-64 -8.5zM225 60q36 0 68.5 10.5t58 23.5t38.5 21v166q-13 2 -39 4.5t-68 2.5q-93 0 -115 -19q-13 -10 -20 -35.5t-7 -61.5q0 -59 19.5 -85.5t64.5 -26.5zM345 654l-194 67l30 67l184 -84z" />
    <glyph glyph-name="uni00B9" unicode="&#xb9;" horiz-adv-x="371" 
d="M64 298v58h101v280h-4l-86 -73l-36 46l122 93l72 -5v-341h88v-58h-257z" />
    <glyph glyph-name="uni00B2" unicode="&#xb2;" horiz-adv-x="370" 
d="M55 298v50l95 112q35 41 53 67t24.5 43.5t6.5 31.5q0 18 -9.5 29.5t-32.5 11.5q-22 0 -42.5 -5t-38.5 -13.5t-35 -18.5l-26 52q9 8 29.5 18.5t48 18.5t57.5 8q32 0 57.5 -12t40.5 -34t15 -54q0 -31 -12.5 -60t-50.5 -76l-90 -110v-4l160 4v-59h-250z" />
    <glyph glyph-name="uni00B3" unicode="&#xb3;" horiz-adv-x="355" 
d="M169 290q-35 0 -64 8.5t-46 17l-17 8.5l19 52l9.5 -4t25 -10t35 -10t38.5 -4q33 0 46 15.5t13 49.5q0 39 -19 53.5t-55 14.5h-50v54q44 4 68.5 7.5t34.5 14.5t10 36q0 27 -12 39q-7 6 -21.5 9.5t-38.5 3.5q-16 0 -31 -1t-45 -5l-5 55q11 2 27 4t33.5 3.5t31.5 1.5
q55 0 91 -21.5t36 -80.5q0 -36 -13.5 -54.5t-29 -24.5t-22.5 -7v-4q15 -2 33 -11t31 -30t13 -60q0 -33 -12 -60.5t-39.5 -43.5t-74.5 -16z" />
    <glyph glyph-name="onequarter" unicode="&#xbc;" horiz-adv-x="881" 
d="M248 -9l186 391l156 351h74l-177 -382l-164 -360h-75zM64 298v58h101v280h-4l-86 -73l-36 46l122 93l72 -5v-341h88v-58h-257zM722 0l2 82h-178v52l95 272l61 -7l-94 -259v-2l116 3l11 152h52v-152l37 1v-60h-37v-82h-65z" />
    <glyph glyph-name="onehalf" unicode="&#xbd;" horiz-adv-x="909" 
d="M252 -9l186 391l156 351h74l-177 -382l-164 -360h-75zM64 298v58h101v280h-4l-86 -73l-36 46l122 93l72 -5v-341h88v-58h-257zM594 0v51l10 11t26 28.5t33 37.5t31 37q20 25 38 49t29.5 47t11.5 43q0 18 -9.5 29.5t-32.5 11.5q-22 0 -42.5 -5t-38.5 -13.5t-35 -18.5
l-26 52q9 8 29 18.5t46.5 18.5t52.5 8q36 0 63 -12t42 -34t15 -54q0 -33 -19.5 -69t-44.5 -69q-10 -14 -25.5 -32.5t-30 -35.5t-24.5 -28.5l-10 -11.5v-4l161 4v-59h-250z" />
    <glyph glyph-name="threequarters" unicode="&#xbe;" horiz-adv-x="857" 
d="M228 -9l186 391l156 351h74l-177 -382l-164 -360h-75zM169 290q-35 0 -64 8.5t-46 17l-17 8.5l19 52l9.5 -4t25 -10t35 -10t38.5 -4q33 0 46 15.5t13 49.5q0 39 -19 53.5t-55 14.5h-50v54q44 4 68.5 7.5t34.5 14.5t10 36q0 27 -12 39q-7 6 -21.5 9.5t-38.5 3.5
q-16 0 -31 -1t-45 -5l-5 55q11 2 27 4t33.5 3.5t31.5 1.5q55 0 91 -21.5t36 -80.5q0 -36 -13.5 -55t-29 -25.5t-22.5 -7.5v-4q15 -2 33 -10.5t31 -29t13 -59.5q0 -33 -12 -60.5t-39.5 -43.5t-74.5 -16zM700 0l2 82h-178v52l95 272l61 -7l-94 -259v-2l116 3l11 152h52v-152
l37 1v-60h-37v-82h-65z" />
    <glyph glyph-name="ordfeminine" unicode="&#xaa;" horiz-adv-x="424" 
d="M159 289q-49 0 -79 32t-30 101q0 46 21 73t57 39t80 12h33h26.5h10.5q0 38 -4 58.5t-18 28t-44 7.5q-31 0 -62.5 -8.5t-52 -17.5l-20.5 -9l-18 58l14 6t36.5 13.5t49 13.5t50.5 6q78 0 107.5 -37.5t29.5 -107.5v-259h-46l-10 38h-4l-19 -11.5t-48 -23.5t-60 -12zM177 352
q21 0 44.5 8.5t40 17l16.5 8.5v97l-19 1.5t-52 1.5q-25 0 -42.5 -3.5t-23.5 -9.5q-9 -7 -14.5 -20.5t-5.5 -36.5q0 -35 14 -49.5t42 -14.5z" />
    <glyph glyph-name="ordmasculine" unicode="&#xba;" horiz-adv-x="357" 
d="M178 289q-58 0 -92 25t-48.5 71.5t-14.5 109.5q0 64 14.5 110.5t48.5 71.5t92 25q60 0 94 -25t48 -71.5t14 -110.5q0 -63 -14 -109.5t-48 -71.5t-94 -25zM178 350q32 0 51 11t27.5 42.5t8.5 91.5q0 62 -8.5 93t-27.5 42t-51 11q-31 0 -49.5 -11t-27 -42t-8.5 -93
q0 -60 8.5 -91.5t27 -42.5t49.5 -11z" />
    <glyph glyph-name="ccedilla" unicode="&#xe7;" horiz-adv-x="518" 
d="M271 -179q-27 0 -50 4.5l-23 4.5v62l12 -1t27 -2.5t25 -1.5q30 0 42 5.5t12 25.5q0 26 -5 50t-9 38l59 4q4 -9 8 -24t7.5 -32t3.5 -33q0 -46 -31 -73t-78 -27zM300 -13q-68 0 -120 31t-81 98.5t-29 176.5q0 89 19.5 148t53.5 92.5t80 47.5t98 14q38 0 77.5 -5t64.5 -11
l-10 -70q-19 2 -60 7.5t-88 5.5q-37 0 -62.5 -6t-39.5 -20q-19 -21 -32.5 -76.5t-13.5 -132.5q0 -71 11 -114.5t26 -66t27 -31.5q8 -6 21.5 -11t38.5 -5q29 0 59 7t55 16t40.5 16l15.5 7l26 -65l-22 -13t-62 -26.5t-93 -13.5z" />
    <glyph glyph-name="Ccedilla" unicode="&#xc7;" horiz-adv-x="583" 
d="M284 -179q-27 0 -50 4.5l-23 4.5v62l12 -1t27 -2.5t25 -1.5q30 0 42 5.5t12 25.5q0 26 -5 50t-9 38l59 4q4 -9 8 -24t7.5 -32t3.5 -33q0 -46 -31 -73t-78 -27zM312 -14q-71 0 -125 34.5t-84.5 112.5t-30.5 207q0 114 19.5 186.5t54 112.5t81.5 55t102 15q24 0 57 -2.5
t64 -6t47 -7.5l-10 -72q-9 1 -29 3t-44 4t-46 3.5t-34 1.5q-49 0 -78.5 -5t-43.5 -22q-13 -16 -25 -47t-19 -84.5t-7 -137.5q0 -106 20.5 -169.5t40.5 -83.5q14 -14 34 -19.5t45 -5.5q38 0 73.5 8t63 19t43.5 19l16 8l29 -66l-15.5 -9t-43.5 -21.5t-67.5 -21.5t-87.5 -9z
" />
    <glyph glyph-name="Abreve" unicode="&#x102;" horiz-adv-x="506" 
d="M5 0l189 695h118l189 -695h-86l-53 208l42 -24h-300l40 24l-53 -208h-86zM146 219l-28 39h270l-28 -39l-113 439l47 -37h-82l47 37zM253 739q-37 0 -70.5 14t-55 42.5t-23.5 73.5l57 5q4 -37 29 -53t63 -16t63 16t29 53l57 -5q-2 -45 -24 -73.5t-55 -42.5t-70 -14z" />
    <glyph glyph-name="uni1EAE" unicode="&#x1eae;" horiz-adv-x="506" 
d="M5 0l189 695h118l189 -695h-86l-53 208l42 -24h-300l40 24l-53 -208h-86zM146 219l-28 39h270l-28 -39l-113 439l47 -37h-82l47 37zM253 739q-37 0 -70.5 14t-55 42.5t-23.5 73.5l57 5q4 -37 29 -53t63 -16t63 16t29 53l57 -5q-2 -45 -24 -73.5t-55 -42.5t-70 -14z
M154 878l-18 51l225 82l28 -73z" />
    <glyph glyph-name="uni1EB6" unicode="&#x1eb6;" horiz-adv-x="506" 
d="M199 -166v85h102v-85h-102zM253 739q-37 0 -70.5 14t-55 42.5t-23.5 73.5l57 5q4 -37 29 -53t63 -16t63 16t29 53l57 -5q-2 -45 -24 -73.5t-55 -42.5t-70 -14zM5 0l189 695h118l189 -695h-86l-53 208l42 -24h-300l40 24l-53 -208h-86zM146 219l-28 39h270l-28 -39
l-113 439l47 -37h-82l47 37z" />
    <glyph glyph-name="uni1EB0" unicode="&#x1eb0;" horiz-adv-x="506" 
d="M5 0l189 695h118l189 -695h-86l-53 208l42 -24h-300l40 24l-53 -208h-86zM146 219l-28 39h270l-28 -39l-113 439l47 -37h-82l47 37zM253 739q-37 0 -70.5 14t-55 42.5t-23.5 73.5l57 5q4 -37 29 -53t63 -16t63 16t29 53l57 -5q-2 -45 -24 -73.5t-55 -42.5t-70 -14z
M362 878l-235 66l26 68l227 -83z" />
    <glyph glyph-name="uni1EB2" unicode="&#x1eb2;" horiz-adv-x="506" 
d="M5 0l189 695h118l189 -695h-86l-53 208l42 -24h-300l40 24l-53 -208h-86zM146 219l-28 39h270l-28 -39l-113 439l47 -37h-82l47 37zM253 739q-37 0 -70.5 14t-55 42.5t-23.5 73.5l57 5q4 -37 29 -53t63 -16t63 16t29 53l57 -5q-2 -45 -24 -73.5t-55 -42.5t-70 -14z
M409 962v54q2 2 20 3t31 1q47 0 69 -21.5t22 -52.5q0 -22 -8.5 -40.5t-27 -35.5t-48.5 -36l-33 29q32 29 44.5 44.5t12.5 29.5q0 25 -27 25h-55z" />
    <glyph glyph-name="uni1EB4" unicode="&#x1eb4;" horiz-adv-x="506" 
d="M5 0l189 695h118l189 -695h-86l-53 208l42 -24h-300l40 24l-53 -208h-86zM146 219l-28 39h270l-28 -39l-113 439l47 -37h-82l47 37zM253 739q-37 0 -70.5 14t-55 42.5t-23.5 73.5l57 5q4 -37 29 -53t63 -16t63 16t29 53l57 -5q-2 -45 -24 -73.5t-55 -42.5t-70 -14z
M354 891q-16 0 -45.5 7.5t-61.5 17t-56.5 16.5t-31.5 7q-6 0 -12.5 -11t-10.5 -22l-4 -11l-52 6q0 57 19.5 79t53.5 22q17 0 46 -7t60.5 -16l56 -16t31.5 -7t12.5 11t9.5 21.5l4 10.5l53 -7q0 -56 -18.5 -78.5t-53.5 -22.5z" />
    <glyph glyph-name="uni01CD" unicode="&#x1cd;" horiz-adv-x="506" 
d="M5 0l189 695h118l189 -695h-86l-53 208l42 -24h-300l40 24l-53 -208h-86zM146 219l-28 39h270l-28 -39l-113 439l47 -37h-82l47 37zM227 746l-121 95l28 38l115 -61h7l115 61l28 -38l-121 -95h-51z" />
    <glyph glyph-name="uni1EA4" unicode="&#x1ea4;" horiz-adv-x="506" 
d="M5 0l189 695h118l189 -695h-86l-53 208l42 -24h-300l40 24l-53 -208h-86zM146 219l-28 39h270l-28 -39l-113 439l47 -37h-82l47 37zM134 733l-28 38l121 95h51l121 -95l-28 -38l-115 61h-7zM154 878l-18 51l225 82l28 -73z" />
    <glyph glyph-name="uni1EAC" unicode="&#x1eac;" horiz-adv-x="506" 
d="M5 0l189 695h118l189 -695h-86l-53 208l42 -24h-300l40 24l-53 -208h-86zM146 219l-28 39h270l-28 -39l-113 439l47 -37h-82l47 37zM134 733l-28 38l121 95h51l121 -95l-28 -38l-115 61h-7zM199 -166v85h102v-85h-102z" />
    <glyph glyph-name="uni1EA6" unicode="&#x1ea6;" horiz-adv-x="506" 
d="M5 0l189 695h118l189 -695h-86l-53 208l42 -24h-300l40 24l-53 -208h-86zM146 219l-28 39h270l-28 -39l-113 439l47 -37h-82l47 37zM134 733l-28 38l121 95h51l121 -95l-28 -38l-115 61h-7zM362 878l-235 66l26 68l227 -83z" />
    <glyph glyph-name="uni1EA8" unicode="&#x1ea8;" horiz-adv-x="506" 
d="M5 0l189 695h118l189 -695h-86l-53 208l42 -24h-300l40 24l-53 -208h-86zM146 219l-28 39h270l-28 -39l-113 439l47 -37h-82l47 37zM135 723l-29 34l121 109h51l121 -109l-29 -34l-114 71h-7zM312 953v54q2 2 20 3t31 1q47 0 69 -21.5t22 -52.5q0 -22 -8.5 -40.5
t-27 -35.5t-48.5 -36l-33 29q32 29 44.5 44.5t12.5 29.5q0 25 -27 25h-55z" />
    <glyph glyph-name="uni1EAA" unicode="&#x1eaa;" horiz-adv-x="506" 
d="M5 0l189 695h118l189 -695h-86l-53 208l42 -24h-300l40 24l-53 -208h-86zM146 219l-28 39h270l-28 -39l-113 439l47 -37h-82l47 37zM134 733l-28 38l121 95h51l121 -95l-28 -38l-115 61h-7zM354 891q-16 0 -45.5 7.5t-61.5 17t-56.5 16.5t-31.5 7q-6 0 -12.5 -11
t-10.5 -22l-4 -11l-52 6q0 57 19.5 79t53.5 22q17 0 46 -7t60.5 -16l56 -16t31.5 -7t12.5 11t9.5 21.5l4 10.5l53 -7q0 -56 -18.5 -78.5t-53.5 -22.5z" />
    <glyph glyph-name="uni01DE" unicode="&#x1de;" horiz-adv-x="506" 
d="M5 0l189 695h118l189 -695h-86l-53 208l42 -24h-300l40 24l-53 -208h-86zM146 219l-28 39h270l-28 -39l-113 439l47 -37h-82l47 37zM110 762v82h99v-82h-99zM297 762v82h98v-82h-98zM93 918v65h320v-65h-320z" />
    <glyph glyph-name="uni1EA0" unicode="&#x1ea0;" horiz-adv-x="506" 
d="M5 0l189 695h118l189 -695h-86l-53 208l42 -24h-300l40 24l-53 -208h-86zM146 219l-28 39h270l-28 -39l-113 439l47 -37h-82l47 37zM199 -166v85h102v-85h-102z" />
    <glyph glyph-name="uni1EA2" unicode="&#x1ea2;" horiz-adv-x="506" 
d="M5 0l189 695h118l189 -695h-86l-53 208l42 -24h-300l40 24l-53 -208h-86zM146 219l-28 39h270l-28 -39l-113 439l47 -37h-82l47 37zM212 848v54q2 2 20 3t31 1q47 0 69 -21.5t22 -52.5q0 -22 -8.5 -40.5t-27 -35.5t-48.5 -36l-33 29q32 29 44.5 44.5t12.5 29.5
q0 25 -27 25h-55z" />
    <glyph glyph-name="Amacron" unicode="&#x100;" horiz-adv-x="506" 
d="M5 0l189 695h118l189 -695h-86l-53 208l42 -24h-300l40 24l-53 -208h-86zM146 219l-28 39h270l-28 -39l-113 439l47 -37h-82l47 37zM93 767v65h320v-65h-320z" />
    <glyph glyph-name="Aogonek" unicode="&#x104;" horiz-adv-x="506" 
d="M5 0l189 695h118l189 -695h-86l-53 208l42 -24h-300l40 24l-53 -208h-86zM146 219l-28 39h270l-28 -39l-113 439l47 -37h-82l47 37zM440 -179q-43 0 -72.5 17.5t-29.5 58.5q0 28 19.5 52.5t48 43t53.5 28.5l42 -21q-40 -16 -68 -41.5t-28 -44.5q0 -18 12.5 -24t33.5 -6
q16 0 33 2l17 2v-59l-17.5 -4t-43.5 -4z" />
    <glyph glyph-name="Cacute" unicode="&#x106;" horiz-adv-x="583" 
d="M312 -14q-71 0 -125 34.5t-84.5 112.5t-30.5 207q0 114 19.5 186.5t54 112.5t81.5 55t102 15q24 0 57 -2.5t64 -6t47 -7.5l-10 -72q-9 1 -29 3t-44 4t-46 3.5t-34 1.5q-49 0 -78.5 -5t-43.5 -22q-13 -16 -25 -47t-19 -84.5t-7 -137.5q0 -106 20.5 -169.5t40.5 -83.5
q14 -14 34 -19.5t45 -5.5q38 0 73.5 8t63 19t43.5 19l16 8l29 -66l-15.5 -9t-43.5 -21.5t-67.5 -21.5t-87.5 -9zM225 733l-18 51l225 82l28 -73z" />
    <glyph glyph-name="Ccaron" unicode="&#x10c;" horiz-adv-x="583" 
d="M312 -14q-71 0 -125 34.5t-84.5 112.5t-30.5 207q0 114 19.5 186.5t54 112.5t81.5 55t102 15q24 0 57 -2.5t64 -6t47 -7.5l-10 -72q-9 1 -29 3t-44 4t-46 3.5t-34 1.5q-49 0 -78.5 -5t-43.5 -22q-13 -16 -25 -47t-19 -84.5t-7 -137.5q0 -106 20.5 -169.5t40.5 -83.5
q14 -14 34 -19.5t45 -5.5q38 0 73.5 8t63 19t43.5 19l16 8l29 -66l-15.5 -9t-43.5 -21.5t-67.5 -21.5t-87.5 -9zM298 746l-121 95l28 38l115 -61h7l115 61l28 -38l-121 -95h-51z" />
    <glyph glyph-name="Cdotaccent" unicode="&#x10a;" horiz-adv-x="583" 
d="M312 -14q-71 0 -125 34.5t-84.5 112.5t-30.5 207q0 114 19.5 186.5t54 112.5t81.5 55t102 15q24 0 57 -2.5t64 -6t47 -7.5l-10 -72q-9 1 -29 3t-44 4t-46 3.5t-34 1.5q-49 0 -78.5 -5t-43.5 -22q-13 -16 -25 -47t-19 -84.5t-7 -137.5q0 -106 20.5 -169.5t40.5 -83.5
q14 -14 34 -19.5t45 -5.5q38 0 73.5 8t63 19t43.5 19l16 8l29 -66l-15.5 -9t-43.5 -21.5t-67.5 -21.5t-87.5 -9zM272 763v82h104v-82h-104z" />
    <glyph glyph-name="Dcaron" unicode="&#x10e;" horiz-adv-x="631" 
d="M302 -14q-20 0 -49.5 1.5t-60 4t-54.5 4.5t-33 3v697q4 0 26 2t54 4.5t66.5 4.5t61.5 2q77 0 125.5 -28.5t74.5 -78t36 -113t10 -133.5q0 -138 -33.5 -219t-91.5 -116t-132 -35zM291 59q54 0 80 7.5t39 20.5q14 14 26.5 44t20.5 86t8 146q0 91 -12.5 160t-40.5 93
q-10 9 -31.5 14.5t-65.5 5.5q-40 0 -77 -3.5t-64 -5.5l15 40v-636l-18 41q29 -4 57 -8.5t63 -4.5zM278 746l-121 95l28 38l115 -61h7l115 61l28 -38l-121 -95h-51z" />
    <glyph glyph-name="uni1E12" unicode="&#x1e12;" horiz-adv-x="631" 
d="M302 -14q-20 0 -49.5 1.5t-60 4t-54.5 4.5t-33 3v697q4 0 26 2t54 4.5t66.5 4.5t61.5 2q77 0 125.5 -28.5t74.5 -78t36 -113t10 -133.5q0 -138 -33.5 -219t-91.5 -116t-132 -35zM291 59q54 0 80 7.5t39 20.5q14 14 26.5 44t20.5 86t8 146q0 91 -12.5 160t-40.5 93
q-10 9 -31.5 14.5t-65.5 5.5q-40 0 -77 -3.5t-64 -5.5l15 40v-636l-18 41q29 -4 57 -8.5t63 -4.5zM183 -196l-29 34l121 109h51l121 -109l-29 -34l-114 71h-7z" />
    <glyph glyph-name="Dcroat" unicode="&#x110;" horiz-adv-x="643" 
d="M52 321v70h256v-70h-256zM314 -14q-20 0 -49.5 1.5t-60 4t-54.5 4.5t-33 3v697q4 0 26 2t54 4.5t66.5 4.5t61.5 2q77 0 125.5 -28.5t74.5 -78t36 -113t10 -133.5q0 -138 -33.5 -219t-91.5 -116t-132 -35zM303 59q54 0 80 7.5t39 20.5q14 14 26.5 44t20.5 86t8 146
q0 91 -12.5 160t-40.5 93q-10 9 -31.5 14.5t-65.5 5.5q-40 0 -77 -3.5t-64 -5.5l15 40v-636l-18 41q29 -4 57 -8.5t63 -4.5z" />
    <glyph glyph-name="Ecaron" unicode="&#x11a;" horiz-adv-x="514" 
d="M105 0v695h341v-74l-295 3l39 38l-7 -298l-37 25h276v-71h-276l37 29l7 -313l-39 38l295 2v-74h-341zM250 746l-121 95l28 38l115 -61h7l115 61l28 -38l-121 -95h-51z" />
    <glyph glyph-name="uni1EBE" unicode="&#x1ebe;" horiz-adv-x="514" 
d="M105 0v695h341v-74l-295 3l39 38l-7 -298l-37 25h276v-71h-276l37 29l7 -313l-39 38l295 2v-74h-341zM157 733l-28 38l121 95h51l121 -95l-28 -38l-115 61h-7zM177 878l-18 51l225 82l28 -73z" />
    <glyph glyph-name="uni1EC6" unicode="&#x1ec6;" horiz-adv-x="514" 
d="M105 0v695h341v-74l-295 3l39 38l-7 -298l-37 25h276v-71h-276l37 29l7 -313l-39 38l295 2v-74h-341zM225 -166v85h102v-85h-102zM157 733l-28 38l121 95h51l121 -95l-28 -38l-115 61h-7z" />
    <glyph glyph-name="uni1EC0" unicode="&#x1ec0;" horiz-adv-x="514" 
d="M105 0v695h341v-74l-295 3l39 38l-7 -298l-37 25h276v-71h-276l37 29l7 -313l-39 38l295 2v-74h-341zM157 733l-28 38l121 95h51l121 -95l-28 -38l-115 61h-7zM385 878l-235 66l26 68l227 -83z" />
    <glyph glyph-name="uni1EC2" unicode="&#x1ec2;" horiz-adv-x="514" 
d="M105 0v695h341v-74l-295 3l39 38l-7 -298l-37 25h276v-71h-276l37 29l7 -313l-39 38l295 2v-74h-341zM162 723l-29 34l121 109h51l121 -109l-29 -34l-114 71h-7zM339 953v54q2 2 20 3t31 1q47 0 69 -21.5t22 -52.5q0 -22 -8.5 -40.5t-27 -35.5t-48.5 -36l-33 29
q32 29 44.5 44.5t12.5 29.5q0 25 -27 25h-55z" />
    <glyph glyph-name="uni1EC4" unicode="&#x1ec4;" horiz-adv-x="514" 
d="M105 0v695h341v-74l-295 3l39 38l-7 -298l-37 25h276v-71h-276l37 29l7 -313l-39 38l295 2v-74h-341zM157 733l-28 38l121 95h51l121 -95l-28 -38l-115 61h-7zM377 891q-16 0 -45.5 7.5t-61.5 17t-56.5 16.5t-31.5 7q-6 0 -12.5 -11t-10.5 -22l-4 -11l-52 6q0 57 19.5 79
t53.5 22q17 0 46 -7t60.5 -16l56 -16t31.5 -7t12.5 11t9.5 21.5l4 10.5l53 -7q0 -56 -18.5 -78.5t-53.5 -22.5z" />
    <glyph glyph-name="Edotaccent" unicode="&#x116;" horiz-adv-x="514" 
d="M105 0v695h341v-74l-295 3l39 38l-7 -298l-37 25h276v-71h-276l37 29l7 -313l-39 38l295 2v-74h-341zM224 763v82h104v-82h-104z" />
    <glyph glyph-name="uni1EB8" unicode="&#x1eb8;" horiz-adv-x="514" 
d="M105 0v695h341v-74l-295 3l39 38l-7 -298l-37 25h276v-71h-276l37 29l7 -313l-39 38l295 2v-74h-341zM225 -166v85h102v-85h-102z" />
    <glyph glyph-name="uni1EBA" unicode="&#x1eba;" horiz-adv-x="514" 
d="M105 0v695h341v-74l-295 3l39 38l-7 -298l-37 25h276v-71h-276l37 29l7 -313l-39 38l295 2v-74h-341zM232 848v54q2 2 20 3t31 1q47 0 69 -21.5t22 -52.5q0 -22 -8.5 -40.5t-27 -35.5t-48.5 -36l-33 29q32 29 44.5 44.5t12.5 29.5q0 25 -27 25h-55z" />
    <glyph glyph-name="Emacron" unicode="&#x112;" horiz-adv-x="514" 
d="M105 0v695h341v-74l-295 3l39 38l-7 -298l-37 25h276v-71h-276l37 29l7 -313l-39 38l295 2v-74h-341zM116 767v65h320v-65h-320z" />
    <glyph glyph-name="Eogonek" unicode="&#x118;" horiz-adv-x="514" 
d="M105 0v695h341v-74l-295 3l39 38l-7 -298l-37 25h276v-71h-276l37 29l7 -313l-39 38l295 2v-74h-341zM385 -179q-43 0 -72.5 17.5t-29.5 58.5q0 28 19.5 52.5t48 43t53.5 28.5l42 -21q-40 -16 -68 -41.5t-28 -44.5q0 -18 12.5 -24t33.5 -6q16 0 33 2l17 2v-59l-17.5 -4
t-43.5 -4z" />
    <glyph glyph-name="uni1EBC" unicode="&#x1ebc;" horiz-adv-x="514" 
d="M105 0v695h341v-74l-295 3l39 38l-7 -298l-37 25h276v-71h-276l37 29l7 -313l-39 38l295 2v-74h-341zM377 746q-16 0 -45.5 7.5t-61.5 17t-56.5 16.5t-31.5 7q-6 0 -12.5 -11t-10.5 -22l-4 -11l-52 6q0 57 19.5 79t53.5 22q17 0 46 -7t60.5 -16l56 -16t31.5 -7t12.5 11
t9.5 21.5l4 10.5l53 -7q0 -56 -18.5 -78.5t-53.5 -22.5z" />
    <glyph glyph-name="Gbreve" unicode="&#x11e;" horiz-adv-x="612" 
d="M331 -13q-52 0 -99 14.5t-83 53.5t-56.5 110.5t-20.5 184.5q0 111 19.5 181.5t55.5 109t86 53t111 14.5q32 0 65 -2.5t61.5 -6.5t44.5 -8l-10 -72q-19 2 -60.5 7.5t-106.5 5.5q-50 0 -80.5 -5.5t-45.5 -21.5q-19 -19 -34.5 -79t-15.5 -174q0 -87 9.5 -141t21.5 -81.5
t21 -37.5q12 -13 39.5 -22.5t81.5 -9.5q35 0 61.5 4t42.5 11v258l38 -40l-144 7v62h186v-336l-23.5 -9.5t-66 -19.5t-98.5 -10zM333 739q-37 0 -70.5 14t-55 42.5t-23.5 73.5l57 5q4 -37 29 -53t63 -16t63 16t29 53l57 -5q-2 -45 -24 -73.5t-55 -42.5t-70 -14z" />
    <glyph glyph-name="Gcaron" unicode="&#x1e6;" horiz-adv-x="612" 
d="M331 -13q-52 0 -99 14.5t-83 53.5t-56.5 110.5t-20.5 184.5q0 111 19.5 181.5t55.5 109t86 53t111 14.5q32 0 65 -2.5t61.5 -6.5t44.5 -8l-10 -72q-19 2 -60.5 7.5t-106.5 5.5q-50 0 -80.5 -5.5t-45.5 -21.5q-19 -19 -34.5 -79t-15.5 -174q0 -87 9.5 -141t21.5 -81.5
t21 -37.5q12 -13 39.5 -22.5t81.5 -9.5q35 0 61.5 4t42.5 11v258l38 -40l-144 7v62h186v-336l-23.5 -9.5t-66 -19.5t-98.5 -10zM307 746l-121 95l28 38l115 -61h7l115 61l28 -38l-121 -95h-51z" />
    <glyph glyph-name="uni0122" unicode="&#x122;" horiz-adv-x="612" 
d="M331 -13q-52 0 -99 14.5t-83 53.5t-56.5 110.5t-20.5 184.5q0 111 19.5 181.5t55.5 109t86 53t111 14.5q32 0 65 -2.5t61.5 -6.5t44.5 -8l-10 -72q-19 2 -60.5 7.5t-106.5 5.5q-50 0 -80.5 -5.5t-45.5 -21.5q-19 -19 -34.5 -79t-15.5 -174q0 -87 9.5 -141t21.5 -81.5
t21 -37.5q12 -13 39.5 -22.5t81.5 -9.5q35 0 61.5 4t42.5 11v258l38 -40l-144 7v62h186v-336l-23.5 -9.5t-66 -19.5t-98.5 -10zM261 -233l-22 41q30 16 38.5 38t8.5 74v25h78l-1 -20q-3 -55 -18.5 -86.5t-38 -47t-45.5 -24.5z" />
    <glyph glyph-name="Gdotaccent" unicode="&#x120;" horiz-adv-x="612" 
d="M331 -13q-52 0 -99 14.5t-83 53.5t-56.5 110.5t-20.5 184.5q0 111 19.5 181.5t55.5 109t86 53t111 14.5q32 0 65 -2.5t61.5 -6.5t44.5 -8l-10 -72q-19 2 -60.5 7.5t-106.5 5.5q-50 0 -80.5 -5.5t-45.5 -21.5q-19 -19 -34.5 -79t-15.5 -174q0 -87 9.5 -141t21.5 -81.5
t21 -37.5q12 -13 39.5 -22.5t81.5 -9.5q35 0 61.5 4t42.5 11v258l38 -40l-144 7v62h186v-336l-23.5 -9.5t-66 -19.5t-98.5 -10zM281 763v82h104v-82h-104z" />
    <glyph glyph-name="Hbar" unicode="&#x126;" horiz-adv-x="665" 
d="M633 601v-66h-597v66h597zM105 0v695h84l-3 -332l-38 28h368l-38 -28l-2 332h84v-695h-84l2 345l38 -28h-368l38 28l3 -345h-84z" />
    <glyph glyph-name="uni01CF" unicode="&#x1cf;" 
d="M105 -1l3 319l-3 377h85l-4 -307l4 -388zM122 746l-121 95l28 38l115 -61h7l115 61l28 -38l-121 -95h-51z" />
    <glyph glyph-name="Idotaccent" unicode="&#x130;" 
d="M105 -1l3 319l-3 377h85l-4 -307l4 -388zM96 763v82h104v-82h-104z" />
    <glyph glyph-name="uni1ECA" unicode="&#x1eca;" 
d="M105 -1l3 319l-3 377h85l-4 -307l4 -388zM97 -166v85h102v-85h-102z" />
    <glyph glyph-name="uni1EC8" unicode="&#x1ec8;" 
d="M105 -1l3 319l-3 377h85l-4 -307l4 -388zM72 848v54q2 2 20 3t31 1q47 0 69 -21.5t22 -52.5q0 -22 -8.5 -40.5t-27 -35.5t-48.5 -36l-33 29q32 29 44.5 44.5t12.5 29.5q0 25 -27 25h-55z" />
    <glyph glyph-name="Imacron" unicode="&#x12a;" 
d="M26 752v60h244v-60h-244zM105 -1l3 319l-3 377h85l-4 -307l4 -388z" />
    <glyph glyph-name="Iogonek" unicode="&#x12e;" 
d="M105 -1l3 319l-3 377h85l-4 -307l4 -388zM128 -179q-43 0 -72.5 17.5t-29.5 58.5q0 28 19.5 52.5t48 43t53.5 28.5l42 -21q-40 -16 -68 -41.5t-28 -44.5q0 -18 12.5 -24t33.5 -6q16 0 33 2l17 2v-59l-17.5 -4t-43.5 -4z" />
    <glyph glyph-name="uni0136" unicode="&#x136;" horiz-adv-x="577" 
d="M485 0l-293 357l268 338h106l-275 -331v-6l306 -358h-112zM105 0l3 353l-3 342h84v-695h-84zM240 -233l-22 41q30 16 38.5 38t8.5 74v25h78l-1 -20q-3 -55 -18.5 -86.5t-38 -47t-45.5 -24.5z" />
    <glyph glyph-name="Lacute" unicode="&#x139;" horiz-adv-x="446" 
d="M105 0v695h84l-5 -661l-38 38l289 2v-74h-330zM53 733l-18 51l225 82l28 -73z" />
    <glyph glyph-name="Lcaron" unicode="&#x13d;" horiz-adv-x="446" 
d="M105 0v695h84l-5 -661l-38 38l289 2v-74h-330zM120 746l-121 95l28 38l115 -61h7l115 61l28 -38l-121 -95h-51z" />
    <glyph glyph-name="uni013B" unicode="&#x13b;" horiz-adv-x="446" 
d="M105 0v695h84l-5 -661l-38 38l289 2v-74h-330zM186 -233l-22 41q30 16 38.5 38t8.5 74v25h78l-1 -20q-3 -55 -18.5 -86.5t-38 -47t-45.5 -24.5z" />
    <glyph glyph-name="Ncaron" unicode="&#x147;" horiz-adv-x="680" 
d="M105 0v695h113l283 -594h3l-13 594h84v-695h-113l-283 594h-3l13 -594h-84zM313 746l-121 95l28 38l115 -61h7l115 61l28 -38l-121 -95h-51z" />
    <glyph glyph-name="uni0145" unicode="&#x145;" horiz-adv-x="680" 
d="M105 0v695h113l283 -594h3l-13 594h84v-695h-113l-283 594h-3l13 -594h-84zM276 -233l-22 41q30 16 38.5 38t8.5 74v25h78l-1 -20q-3 -55 -18.5 -86.5t-38 -47t-45.5 -24.5z" />
    <glyph glyph-name="uni1E44" unicode="&#x1e44;" horiz-adv-x="680" 
d="M105 0v695h113l283 -594h3l-13 594h84v-695h-113l-283 594h-3l13 -594h-84zM287 763v82h104v-82h-104z" />
    <glyph glyph-name="Eng" unicode="&#x14a;" horiz-adv-x="680" 
d="M422 -129h35q15 0 28 8t13 25q0 23 -12.5 47.5t-23.5 48.5h113v-40v-48t-10.5 -52t-34 -40.5t-63.5 -15.5h-45v67zM105 0v695h113l283 -594h3l-13 594h84v-695h-113l-283 594h-3l13 -594h-84z" />
    <glyph glyph-name="uni01D1" unicode="&#x1d1;" horiz-adv-x="656" 
d="M328 -14q-52 0 -98.5 16t-82 55.5t-55.5 110.5t-20 181t20 180t55.5 109.5t82 55t98.5 15.5q53 0 99 -15.5t81.5 -55t55.5 -109.5t20 -180t-20 -181t-55.5 -110.5t-81.5 -55.5t-99 -16zM328 62q43 0 74.5 9.5t52 38.5t30.5 85.5t10 150.5t-9.5 151t-29.5 86.5t-52 39.5
t-76 10q-45 0 -76.5 -10t-51.5 -39.5t-29.5 -86.5t-9.5 -151t10 -150.5t30 -85.5t52 -38.5t75 -9.5zM302 746l-121 95l28 38l115 -61h7l115 61l28 -38l-121 -95h-51z" />
    <glyph glyph-name="uni1ED0" unicode="&#x1ed0;" horiz-adv-x="656" 
d="M328 -14q-52 0 -98.5 16t-82 55.5t-55.5 110.5t-20 181t20 180t55.5 109.5t82 55t98.5 15.5q53 0 99 -15.5t81.5 -55t55.5 -109.5t20 -180t-20 -181t-55.5 -110.5t-81.5 -55.5t-99 -16zM328 62q43 0 74.5 9.5t52 38.5t30.5 85.5t10 150.5t-9.5 151t-29.5 86.5t-52 39.5
t-76 10q-45 0 -76.5 -10t-51.5 -39.5t-29.5 -86.5t-9.5 -151t10 -150.5t30 -85.5t52 -38.5t75 -9.5zM209 733l-28 38l121 95h51l121 -95l-28 -38l-115 61h-7zM229 878l-18 51l225 82l28 -73z" />
    <glyph glyph-name="uni1ED8" unicode="&#x1ed8;" horiz-adv-x="656" 
d="M328 -14q-52 0 -98.5 16t-82 55.5t-55.5 110.5t-20 181t20 180t55.5 109.5t82 55t98.5 15.5q53 0 99 -15.5t81.5 -55t55.5 -109.5t20 -180t-20 -181t-55.5 -110.5t-81.5 -55.5t-99 -16zM328 62q43 0 74.5 9.5t52 38.5t30.5 85.5t10 150.5t-9.5 151t-29.5 86.5t-52 39.5
t-76 10q-45 0 -76.5 -10t-51.5 -39.5t-29.5 -86.5t-9.5 -151t10 -150.5t30 -85.5t52 -38.5t75 -9.5zM277 -166v85h102v-85h-102zM209 733l-28 38l121 95h51l121 -95l-28 -38l-115 61h-7z" />
    <glyph glyph-name="uni1ED2" unicode="&#x1ed2;" horiz-adv-x="656" 
d="M328 -14q-52 0 -98.5 16t-82 55.5t-55.5 110.5t-20 181t20 180t55.5 109.5t82 55t98.5 15.5q53 0 99 -15.5t81.5 -55t55.5 -109.5t20 -180t-20 -181t-55.5 -110.5t-81.5 -55.5t-99 -16zM328 62q43 0 74.5 9.5t52 38.5t30.5 85.5t10 150.5t-9.5 151t-29.5 86.5t-52 39.5
t-76 10q-45 0 -76.5 -10t-51.5 -39.5t-29.5 -86.5t-9.5 -151t10 -150.5t30 -85.5t52 -38.5t75 -9.5zM209 733l-28 38l121 95h51l121 -95l-28 -38l-115 61h-7zM437 878l-235 66l26 68l227 -83z" />
    <glyph glyph-name="uni1ED4" unicode="&#x1ed4;" horiz-adv-x="656" 
d="M328 -14q-52 0 -98.5 16t-82 55.5t-55.5 110.5t-20 181t20 180t55.5 109.5t82 55t98.5 15.5q53 0 99 -15.5t81.5 -55t55.5 -109.5t20 -180t-20 -181t-55.5 -110.5t-81.5 -55.5t-99 -16zM328 62q43 0 74.5 9.5t52 38.5t30.5 85.5t10 150.5t-9.5 151t-29.5 86.5t-52 39.5
t-76 10q-45 0 -76.5 -10t-51.5 -39.5t-29.5 -86.5t-9.5 -151t10 -150.5t30 -85.5t52 -38.5t75 -9.5zM212 723l-29 34l121 109h51l121 -109l-29 -34l-114 71h-7zM389 953v54q2 2 20 3t31 1q47 0 69 -21.5t22 -52.5q0 -22 -8.5 -40.5t-27 -35.5t-48.5 -36l-33 29
q32 29 44.5 44.5t12.5 29.5q0 25 -27 25h-55z" />
    <glyph glyph-name="uni1ED6" unicode="&#x1ed6;" horiz-adv-x="656" 
d="M328 -14q-52 0 -98.5 16t-82 55.5t-55.5 110.5t-20 181t20 180t55.5 109.5t82 55t98.5 15.5q53 0 99 -15.5t81.5 -55t55.5 -109.5t20 -180t-20 -181t-55.5 -110.5t-81.5 -55.5t-99 -16zM328 62q43 0 74.5 9.5t52 38.5t30.5 85.5t10 150.5t-9.5 151t-29.5 86.5t-52 39.5
t-76 10q-45 0 -76.5 -10t-51.5 -39.5t-29.5 -86.5t-9.5 -151t10 -150.5t30 -85.5t52 -38.5t75 -9.5zM209 733l-28 38l121 95h51l121 -95l-28 -38l-115 61h-7zM429 891q-16 0 -45.5 7.5t-61.5 17t-56.5 16.5t-31.5 7q-6 0 -12.5 -11t-10.5 -22l-4 -11l-52 6q0 57 19.5 79
t53.5 22q17 0 46 -7t60.5 -16l56 -16t31.5 -7t12.5 11t9.5 21.5l4 10.5l53 -7q0 -56 -18.5 -78.5t-53.5 -22.5z" />
    <glyph glyph-name="uni1ECC" unicode="&#x1ecc;" horiz-adv-x="656" 
d="M328 -14q-52 0 -98.5 16t-82 55.5t-55.5 110.5t-20 181t20 180t55.5 109.5t82 55t98.5 15.5q53 0 99 -15.5t81.5 -55t55.5 -109.5t20 -180t-20 -181t-55.5 -110.5t-81.5 -55.5t-99 -16zM328 62q43 0 74.5 9.5t52 38.5t30.5 85.5t10 150.5t-9.5 151t-29.5 86.5t-52 39.5
t-76 10q-45 0 -76.5 -10t-51.5 -39.5t-29.5 -86.5t-9.5 -151t10 -150.5t30 -85.5t52 -38.5t75 -9.5zM282 -166v85h102v-85h-102z" />
    <glyph glyph-name="uni1ECE" unicode="&#x1ece;" horiz-adv-x="656" 
d="M328 -14q-52 0 -98.5 16t-82 55.5t-55.5 110.5t-20 181t20 180t55.5 109.5t82 55t98.5 15.5q53 0 99 -15.5t81.5 -55t55.5 -109.5t20 -180t-20 -181t-55.5 -110.5t-81.5 -55.5t-99 -16zM328 62q43 0 74.5 9.5t52 38.5t30.5 85.5t10 150.5t-9.5 151t-29.5 86.5t-52 39.5
t-76 10q-45 0 -76.5 -10t-51.5 -39.5t-29.5 -86.5t-9.5 -151t10 -150.5t30 -85.5t52 -38.5t75 -9.5zM280 848v54q2 2 20 3t31 1q47 0 69 -21.5t22 -52.5q0 -22 -8.5 -40.5t-27 -35.5t-48.5 -36l-33 29q32 29 44.5 44.5t12.5 29.5q0 25 -27 25h-55z" />
    <glyph glyph-name="Ohorn" unicode="&#x1a0;" horiz-adv-x="656" 
d="M328 -14q-52 0 -98.5 16t-82 55.5t-55.5 110.5t-20 181t20 180t55.5 109.5t82 55t98.5 15.5q53 0 99 -15.5t81.5 -55t55.5 -109.5t20 -180t-20 -181t-55.5 -110.5t-81.5 -55.5t-99 -16zM328 62q43 0 74.5 9.5t52 38.5t30.5 85.5t10 150.5t-9.5 151t-29.5 86.5t-52 39.5
t-76 10q-45 0 -76.5 -10t-51.5 -39.5t-29.5 -86.5t-9.5 -151t10 -150.5t30 -85.5t52 -38.5t75 -9.5zM417 696h86q15 0 26 7t11 24q0 11 -3 30t-7 40t-8 37h73q5 -19 10 -44t5 -49q0 -33 -15.5 -56t-42 -35t-59.5 -12h-63z" />
    <glyph glyph-name="uni1EDA" unicode="&#x1eda;" horiz-adv-x="656" 
d="M328 -14q-52 0 -98.5 16t-82 55.5t-55.5 110.5t-20 181t20 180t55.5 109.5t82 55t98.5 15.5q53 0 99 -15.5t81.5 -55t55.5 -109.5t20 -180t-20 -181t-55.5 -110.5t-81.5 -55.5t-99 -16zM328 62q43 0 74.5 9.5t52 38.5t30.5 85.5t10 150.5t-9.5 151t-29.5 86.5t-52 39.5
t-76 10q-45 0 -76.5 -10t-51.5 -39.5t-29.5 -86.5t-9.5 -151t10 -150.5t30 -85.5t52 -38.5t75 -9.5zM417 696h86q15 0 26 7t11 24q0 11 -3 30t-7 40t-8 37h73q5 -19 10 -44t5 -49q0 -33 -15.5 -56t-42 -35t-59.5 -12h-63zM229 733l-18 51l225 82l28 -73z" />
    <glyph glyph-name="uni1EE2" unicode="&#x1ee2;" horiz-adv-x="656" 
d="M328 -14q-52 0 -98.5 16t-82 55.5t-55.5 110.5t-20 181t20 180t55.5 109.5t82 55t98.5 15.5q53 0 99 -15.5t81.5 -55t55.5 -109.5t20 -180t-20 -181t-55.5 -110.5t-81.5 -55.5t-99 -16zM328 62q43 0 74.5 9.5t52 38.5t30.5 85.5t10 150.5t-9.5 151t-29.5 86.5t-52 39.5
t-76 10q-45 0 -76.5 -10t-51.5 -39.5t-29.5 -86.5t-9.5 -151t10 -150.5t30 -85.5t52 -38.5t75 -9.5zM417 696h86q15 0 26 7t11 24q0 11 -3 30t-7 40t-8 37h73q5 -19 10 -44t5 -49q0 -33 -15.5 -56t-42 -35t-59.5 -12h-63zM259 -166v85h102v-85h-102z" />
    <glyph glyph-name="uni1EDC" unicode="&#x1edc;" horiz-adv-x="656" 
d="M328 -14q-52 0 -98.5 16t-82 55.5t-55.5 110.5t-20 181t20 180t55.5 109.5t82 55t98.5 15.5q53 0 99 -15.5t81.5 -55t55.5 -109.5t20 -180t-20 -181t-55.5 -110.5t-81.5 -55.5t-99 -16zM328 62q43 0 74.5 9.5t52 38.5t30.5 85.5t10 150.5t-9.5 151t-29.5 86.5t-52 39.5
t-76 10q-45 0 -76.5 -10t-51.5 -39.5t-29.5 -86.5t-9.5 -151t10 -150.5t30 -85.5t52 -38.5t75 -9.5zM417 696h86q15 0 26 7t11 24q0 11 -3 30t-7 40t-8 37h73q5 -19 10 -44t5 -49q0 -33 -15.5 -56t-42 -35t-59.5 -12h-63zM437 733l-235 66l26 68l227 -83z" />
    <glyph glyph-name="uni1EDE" unicode="&#x1ede;" horiz-adv-x="656" 
d="M328 -14q-52 0 -98.5 16t-82 55.5t-55.5 110.5t-20 181t20 180t55.5 109.5t82 55t98.5 15.5q53 0 99 -15.5t81.5 -55t55.5 -109.5t20 -180t-20 -181t-55.5 -110.5t-81.5 -55.5t-99 -16zM328 62q43 0 74.5 9.5t52 38.5t30.5 85.5t10 150.5t-9.5 151t-29.5 86.5t-52 39.5
t-76 10q-45 0 -76.5 -10t-51.5 -39.5t-29.5 -86.5t-9.5 -151t10 -150.5t30 -85.5t52 -38.5t75 -9.5zM417 696h86q15 0 26 7t11 24q0 11 -3 30t-7 40t-8 37h73q5 -19 10 -44t5 -49q0 -33 -15.5 -56t-42 -35t-59.5 -12h-63zM272 848v54q2 2 20 3t31 1q47 0 69 -21.5t22 -52.5
q0 -22 -8.5 -40.5t-27 -35.5t-48.5 -36l-33 29q32 29 44.5 44.5t12.5 29.5q0 25 -27 25h-55z" />
    <glyph glyph-name="uni1EE0" unicode="&#x1ee0;" horiz-adv-x="656" 
d="M328 -14q-52 0 -98.5 16t-82 55.5t-55.5 110.5t-20 181t20 180t55.5 109.5t82 55t98.5 15.5q53 0 99 -15.5t81.5 -55t55.5 -109.5t20 -180t-20 -181t-55.5 -110.5t-81.5 -55.5t-99 -16zM328 62q43 0 74.5 9.5t52 38.5t30.5 85.5t10 150.5t-9.5 151t-29.5 86.5t-52 39.5
t-76 10q-45 0 -76.5 -10t-51.5 -39.5t-29.5 -86.5t-9.5 -151t10 -150.5t30 -85.5t52 -38.5t75 -9.5zM417 696h86q15 0 26 7t11 24q0 11 -3 30t-7 40t-8 37h73q5 -19 10 -44t5 -49q0 -33 -15.5 -56t-42 -35t-59.5 -12h-63zM429 746q-16 0 -45.5 7.5t-61.5 17t-56.5 16.5
t-31.5 7q-6 0 -12.5 -11t-10.5 -22l-4 -11l-52 6q0 57 19.5 79t53.5 22q17 0 46 -7t60.5 -16l56 -16t31.5 -7t12.5 11t9.5 21.5l4 10.5l53 -7q0 -56 -18.5 -78.5t-53.5 -22.5z" />
    <glyph glyph-name="Ohungarumlaut" unicode="&#x150;" horiz-adv-x="656" 
d="M328 -14q-52 0 -98.5 16t-82 55.5t-55.5 110.5t-20 181t20 180t55.5 109.5t82 55t98.5 15.5q53 0 99 -15.5t81.5 -55t55.5 -109.5t20 -180t-20 -181t-55.5 -110.5t-81.5 -55.5t-99 -16zM328 62q43 0 74.5 9.5t52 38.5t30.5 85.5t10 150.5t-9.5 151t-29.5 86.5t-52 39.5
t-76 10q-45 0 -76.5 -10t-51.5 -39.5t-29.5 -86.5t-9.5 -151t10 -150.5t30 -85.5t52 -38.5t75 -9.5zM178 740l-26 47l181 100l40 -58zM387 740l-25 46l175 90l39 -63z" />
    <glyph glyph-name="Omacron" unicode="&#x14c;" horiz-adv-x="656" 
d="M328 -14q-52 0 -98.5 16t-82 55.5t-55.5 110.5t-20 181t20 180t55.5 109.5t82 55t98.5 15.5q53 0 99 -15.5t81.5 -55t55.5 -109.5t20 -180t-20 -181t-55.5 -110.5t-81.5 -55.5t-99 -16zM328 62q43 0 74.5 9.5t52 38.5t30.5 85.5t10 150.5t-9.5 151t-29.5 86.5t-52 39.5
t-76 10q-45 0 -76.5 -10t-51.5 -39.5t-29.5 -86.5t-9.5 -151t10 -150.5t30 -85.5t52 -38.5t75 -9.5zM168 767v65h320v-65h-320z" />
    <glyph glyph-name="Sacute" unicode="&#x15a;" horiz-adv-x="511" 
d="M246 -14q-41 0 -79 9.5t-67.5 22.5t-46.5 22.5l-17 9.5l4.5 10.5t10.5 24t10.5 23.5l4.5 10l16.5 -8.5t44.5 -19t64 -19t75 -8.5q25 0 39.5 4.5t20.5 8.5q20 14 31 38.5t11 63.5q0 38 -16 63t-42.5 42t-57.5 30q-40 17 -75 34t-62 39t-42 55.5t-15 83.5q0 52 23 93.5
t69 66t114 24.5q33 0 62 -3.5t52 -7.5t36 -7.5l13 -3.5l-14 -72l-14 2.5t-38 6.5t-54 6.5t-61 2.5q-25 0 -39.5 -3t-25.5 -10q-13 -7 -24.5 -28.5t-11.5 -58.5q0 -41 21 -67t55 -42.5t72 -32.5q30 -12 59 -27.5t52 -37.5t37 -55.5t14 -81.5q0 -61 -26.5 -106.5t-73.5 -71
t-109 -25.5zM157 733l-18 51l225 82l28 -73z" />
    <glyph glyph-name="Scaron" unicode="&#x160;" horiz-adv-x="511" 
d="M246 -14q-41 0 -79 9.5t-67.5 22.5t-46.5 22.5l-17 9.5l4.5 10.5t10.5 24t10.5 23.5l4.5 10l16.5 -8.5t44.5 -19t64 -19t75 -8.5q25 0 39.5 4.5t20.5 8.5q20 14 31 38.5t11 63.5q0 38 -16 63t-42.5 42t-57.5 30q-40 17 -75 34t-62 39t-42 55.5t-15 83.5q0 52 23 93.5
t69 66t114 24.5q33 0 62 -3.5t52 -7.5t36 -7.5l13 -3.5l-14 -72l-14 2.5t-38 6.5t-54 6.5t-61 2.5q-25 0 -39.5 -3t-25.5 -10q-13 -7 -24.5 -28.5t-11.5 -58.5q0 -41 21 -67t55 -42.5t72 -32.5q30 -12 59 -27.5t52 -37.5t37 -55.5t14 -81.5q0 -61 -26.5 -106.5t-73.5 -71
t-109 -25.5zM230 746l-121 95l28 38l115 -61h7l115 61l28 -38l-121 -95h-51z" />
    <glyph glyph-name="Scedilla" unicode="&#x15e;" horiz-adv-x="511" 
d="M246 -14q-41 0 -79 9.5t-67.5 22.5t-46.5 22.5l-17 9.5l4.5 10.5t10.5 24t10.5 23.5l4.5 10l16.5 -8.5t44.5 -19t64 -19t75 -8.5q25 0 39.5 4.5t20.5 8.5q20 14 31 38.5t11 63.5q0 38 -16 63t-42.5 42t-57.5 30q-40 17 -75 34t-62 39t-42 55.5t-15 83.5q0 52 23 93.5
t69 66t114 24.5q33 0 62 -3.5t52 -7.5t36 -7.5l13 -3.5l-14 -72l-14 2.5t-38 6.5t-54 6.5t-61 2.5q-25 0 -39.5 -3t-25.5 -10q-13 -7 -24.5 -28.5t-11.5 -58.5q0 -41 21 -67t55 -42.5t72 -32.5q30 -12 59 -27.5t52 -37.5t37 -55.5t14 -81.5q0 -61 -26.5 -106.5t-73.5 -71
t-109 -25.5zM238 -179q-27 0 -50 4.5l-23 4.5v62l12 -1t27 -2.5t25 -1.5q30 0 42 5.5t12 25.5q0 26 -5 50t-9 38l59 4q4 -9 8 -24t7.5 -32t3.5 -33q0 -46 -31 -73t-78 -27z" />
    <glyph glyph-name="uni0218" unicode="&#x218;" horiz-adv-x="511" 
d="M246 -14q-41 0 -79 9.5t-67.5 22.5t-46.5 22.5l-17 9.5l4.5 10.5t10.5 24t10.5 23.5l4.5 10l16.5 -8.5t44.5 -19t64 -19t75 -8.5q25 0 39.5 4.5t20.5 8.5q20 14 31 38.5t11 63.5q0 38 -16 63t-42.5 42t-57.5 30q-40 17 -75 34t-62 39t-42 55.5t-15 83.5q0 52 23 93.5
t69 66t114 24.5q33 0 62 -3.5t52 -7.5t36 -7.5l13 -3.5l-14 -72l-14 2.5t-38 6.5t-54 6.5t-61 2.5q-25 0 -39.5 -3t-25.5 -10q-13 -7 -24.5 -28.5t-11.5 -58.5q0 -41 21 -67t55 -42.5t72 -32.5q30 -12 59 -27.5t52 -37.5t37 -55.5t14 -81.5q0 -61 -26.5 -106.5t-73.5 -71
t-109 -25.5zM193 -233l-22 41q30 16 38.5 38t8.5 74v25h78l-1 -20q-3 -55 -18.5 -86.5t-38 -47t-45.5 -24.5z" />
    <glyph glyph-name="Tbar" unicode="&#x166;" horiz-adv-x="474" 
d="M443 416v-66h-404v66h404zM195 0l2 624l-195 -3v74h470v-74l-195 3l2 -624h-84z" />
    <glyph glyph-name="Tcaron" unicode="&#x164;" horiz-adv-x="474" 
d="M195 0l2 624l-195 -3v74h470v-74l-195 3l2 -624h-84zM211 746l-121 95l28 38l115 -61h7l115 61l28 -38l-121 -95h-51z" />
    <glyph glyph-name="uni0162" unicode="&#x162;" horiz-adv-x="474" 
d="M195 0l2 624l-195 -3v74h470v-74l-195 3l2 -624h-84zM186 -179q-27 0 -50 4.5l-23 4.5v62l12 -1t27 -2.5t25 -1.5q30 0 42 5.5t12 25.5q0 26 -5 50t-9 38l59 4q4 -9 8 -24t7.5 -32t3.5 -33q0 -46 -31 -73t-78 -27z" />
    <glyph glyph-name="uni021A" unicode="&#x21a;" horiz-adv-x="474" 
d="M195 0l2 624l-195 -3v74h470v-74l-195 3l2 -624h-84zM174 -233l-22 41q30 16 38.5 38t8.5 74v25h78l-1 -20q-3 -55 -18.5 -86.5t-38 -47t-45.5 -24.5z" />
    <glyph glyph-name="uni01D3" unicode="&#x1d3;" horiz-adv-x="661" 
d="M330 -14q-72 0 -122.5 27.5t-76.5 96.5t-26 192v393h84v-366q0 -90 6 -143t21 -80t42.5 -35.5t71.5 -8.5t72 9t43 35.5t21 80t6 142.5v366h84v-384q0 -128 -26.5 -198.5t-76.5 -98.5t-123 -28zM305 746l-121 95l28 38l115 -61h7l115 61l28 -38l-121 -95h-51z" />
    <glyph glyph-name="uni01D7" unicode="&#x1d7;" horiz-adv-x="661" 
d="M330 -14q-72 0 -122.5 27.5t-76.5 96.5t-26 192v393h84v-366q0 -90 6 -143t21 -80t42.5 -35.5t71.5 -8.5t72 9t43 35.5t21 80t6 142.5v366h84v-384q0 -128 -26.5 -198.5t-76.5 -98.5t-123 -28zM188 762v82h99v-82h-99zM375 762v82h98v-82h-98zM232 884l-18 51l225 82
l28 -73z" />
    <glyph glyph-name="uni01D9" unicode="&#x1d9;" horiz-adv-x="661" 
d="M330 -14q-72 0 -122.5 27.5t-76.5 96.5t-26 192v393h84v-366q0 -90 6 -143t21 -80t42.5 -35.5t71.5 -8.5t72 9t43 35.5t21 80t6 142.5v366h84v-384q0 -128 -26.5 -198.5t-76.5 -98.5t-123 -28zM188 762v82h99v-82h-99zM375 762v82h98v-82h-98zM305 897l-121 95l28 38
l115 -61h7l115 61l28 -38l-121 -95h-51z" />
    <glyph glyph-name="uni01DB" unicode="&#x1db;" horiz-adv-x="661" 
d="M330 -14q-72 0 -122.5 27.5t-76.5 96.5t-26 192v393h84v-366q0 -90 6 -143t21 -80t42.5 -35.5t71.5 -8.5t72 9t43 35.5t21 80t6 142.5v366h84v-384q0 -128 -26.5 -198.5t-76.5 -98.5t-123 -28zM188 762v82h99v-82h-99zM375 762v82h98v-82h-98zM440 884l-235 66l26 68
l227 -83z" />
    <glyph glyph-name="uni01D5" unicode="&#x1d5;" horiz-adv-x="661" 
d="M330 -14q-72 0 -122.5 27.5t-76.5 96.5t-26 192v393h84v-366q0 -90 6 -143t21 -80t42.5 -35.5t71.5 -8.5t72 9t43 35.5t21 80t6 142.5v366h84v-384q0 -128 -26.5 -198.5t-76.5 -98.5t-123 -28zM188 762v82h99v-82h-99zM375 762v82h98v-82h-98zM171 918v65h320v-65h-320z
" />
    <glyph glyph-name="uni1EE4" unicode="&#x1ee4;" horiz-adv-x="661" 
d="M330 -14q-72 0 -122.5 27.5t-76.5 96.5t-26 192v393h84v-366q0 -90 6 -143t21 -80t42.5 -35.5t71.5 -8.5t72 9t43 35.5t21 80t6 142.5v366h84v-384q0 -128 -26.5 -198.5t-76.5 -98.5t-123 -28zM287 -166v85h102v-85h-102z" />
    <glyph glyph-name="uni1EE6" unicode="&#x1ee6;" horiz-adv-x="661" 
d="M330 -14q-72 0 -122.5 27.5t-76.5 96.5t-26 192v393h84v-366q0 -90 6 -143t21 -80t42.5 -35.5t71.5 -8.5t72 9t43 35.5t21 80t6 142.5v366h84v-384q0 -128 -26.5 -198.5t-76.5 -98.5t-123 -28zM260 848v54q2 2 20 3t31 1q47 0 69 -21.5t22 -52.5q0 -22 -8.5 -40.5
t-27 -35.5t-48.5 -36l-33 29q32 29 44.5 44.5t12.5 29.5q0 25 -27 25h-55z" />
    <glyph glyph-name="Uhorn" unicode="&#x1af;" horiz-adv-x="661" 
d="M330 -14q-72 0 -122.5 27.5t-76.5 96.5t-26 192v393h84v-366q0 -90 6 -143t21 -80t42.5 -35.5t71.5 -8.5t72 9t43 35.5t21 80t6 142.5v366h84v-384q0 -128 -26.5 -198.5t-76.5 -98.5t-123 -28zM482 695h86q15 0 26 7t11 24q0 11 -3 30t-7 40t-8 37h73q5 -19 10 -44t5 -49
q0 -33 -15.5 -56t-42 -35t-59.5 -12h-63z" />
    <glyph glyph-name="uni1EE8" unicode="&#x1ee8;" horiz-adv-x="661" 
d="M330 -14q-72 0 -122.5 27.5t-76.5 96.5t-26 192v393h84v-366q0 -90 6 -143t21 -80t42.5 -35.5t71.5 -8.5t72 9t43 35.5t21 80t6 142.5v366h84v-384q0 -128 -26.5 -198.5t-76.5 -98.5t-123 -28zM482 695h86q15 0 26 7t11 24q0 11 -3 30t-7 40t-8 37h73q5 -19 10 -44t5 -49
q0 -33 -15.5 -56t-42 -35t-59.5 -12h-63zM232 733l-18 51l225 82l28 -73z" />
    <glyph glyph-name="uni1EF0" unicode="&#x1ef0;" horiz-adv-x="661" 
d="M330 -14q-72 0 -122.5 27.5t-76.5 96.5t-26 192v393h84v-366q0 -90 6 -143t21 -80t42.5 -35.5t71.5 -8.5t72 9t43 35.5t21 80t6 142.5v366h84v-384q0 -128 -26.5 -198.5t-76.5 -98.5t-123 -28zM482 695h86q15 0 26 7t11 24q0 11 -3 30t-7 40t-8 37h73q5 -19 10 -44t5 -49
q0 -33 -15.5 -56t-42 -35t-59.5 -12h-63zM267 -166v85h102v-85h-102z" />
    <glyph glyph-name="uni1EEA" unicode="&#x1eea;" horiz-adv-x="661" 
d="M330 -14q-72 0 -122.5 27.5t-76.5 96.5t-26 192v393h84v-366q0 -90 6 -143t21 -80t42.5 -35.5t71.5 -8.5t72 9t43 35.5t21 80t6 142.5v366h84v-384q0 -128 -26.5 -198.5t-76.5 -98.5t-123 -28zM482 695h86q15 0 26 7t11 24q0 11 -3 30t-7 40t-8 37h73q5 -19 10 -44t5 -49
q0 -33 -15.5 -56t-42 -35t-59.5 -12h-63zM440 733l-235 66l26 68l227 -83z" />
    <glyph glyph-name="uni1EEC" unicode="&#x1eec;" horiz-adv-x="661" 
d="M330 -14q-72 0 -122.5 27.5t-76.5 96.5t-26 192v393h84v-366q0 -90 6 -143t21 -80t42.5 -35.5t71.5 -8.5t72 9t43 35.5t21 80t6 142.5v366h84v-384q0 -128 -26.5 -198.5t-76.5 -98.5t-123 -28zM482 695h86q15 0 26 7t11 24q0 11 -3 30t-7 40t-8 37h73q5 -19 10 -44t5 -49
q0 -33 -15.5 -56t-42 -35t-59.5 -12h-63zM276 848v54q2 2 20 3t31 1q47 0 69 -21.5t22 -52.5q0 -22 -8.5 -40.5t-27 -35.5t-48.5 -36l-33 29q32 29 44.5 44.5t12.5 29.5q0 25 -27 25h-55z" />
    <glyph glyph-name="uni1EEE" unicode="&#x1eee;" horiz-adv-x="661" 
d="M330 -14q-72 0 -122.5 27.5t-76.5 96.5t-26 192v393h84v-366q0 -90 6 -143t21 -80t42.5 -35.5t71.5 -8.5t72 9t43 35.5t21 80t6 142.5v366h84v-384q0 -128 -26.5 -198.5t-76.5 -98.5t-123 -28zM482 695h86q15 0 26 7t11 24q0 11 -3 30t-7 40t-8 37h73q5 -19 10 -44t5 -49
q0 -33 -15.5 -56t-42 -35t-59.5 -12h-63zM432 746q-16 0 -45.5 7.5t-61.5 17t-56.5 16.5t-31.5 7q-6 0 -12.5 -11t-10.5 -22l-4 -11l-52 6q0 57 19.5 79t53.5 22q17 0 46 -7t60.5 -16l56 -16t31.5 -7t12.5 11t9.5 21.5l4 10.5l53 -7q0 -56 -18.5 -78.5t-53.5 -22.5z" />
    <glyph glyph-name="Uhungarumlaut" unicode="&#x170;" horiz-adv-x="661" 
d="M330 -14q-72 0 -122.5 27.5t-76.5 96.5t-26 192v393h84v-366q0 -90 6 -143t21 -80t42.5 -35.5t71.5 -8.5t72 9t43 35.5t21 80t6 142.5v366h84v-384q0 -128 -26.5 -198.5t-76.5 -98.5t-123 -28zM181 740l-26 47l181 100l40 -58zM390 740l-25 46l175 90l39 -63z" />
    <glyph glyph-name="Umacron" unicode="&#x16a;" horiz-adv-x="661" 
d="M330 -14q-72 0 -122.5 27.5t-76.5 96.5t-26 192v393h84v-366q0 -90 6 -143t21 -80t42.5 -35.5t71.5 -8.5t72 9t43 35.5t21 80t6 142.5v366h84v-384q0 -128 -26.5 -198.5t-76.5 -98.5t-123 -28zM171 767v65h320v-65h-320z" />
    <glyph glyph-name="Uogonek" unicode="&#x172;" horiz-adv-x="661" 
d="M330 -14q-72 0 -122.5 27.5t-76.5 96.5t-26 192v393h84v-366q0 -90 6 -143t21 -80t42.5 -35.5t71.5 -8.5t72 9t43 35.5t21 80t6 142.5v366h84v-384q0 -128 -26.5 -198.5t-76.5 -98.5t-123 -28zM361 -179q-43 0 -72.5 17.5t-29.5 58.5q0 28 19.5 52.5t48 43t53.5 28.5
l42 -21q-40 -16 -68 -41.5t-28 -44.5q0 -18 12.5 -24t33.5 -6q16 0 33 2l17 2v-59l-17.5 -4t-43.5 -4z" />
    <glyph glyph-name="Uring" unicode="&#x16e;" horiz-adv-x="661" 
d="M330 -14q-72 0 -122.5 27.5t-76.5 96.5t-26 192v393h84v-366q0 -90 6 -143t21 -80t42.5 -35.5t71.5 -8.5t72 9t43 35.5t21 80t6 142.5v366h84v-384q0 -128 -26.5 -198.5t-76.5 -98.5t-123 -28zM331 722q-21 0 -40 7.5t-31.5 25.5t-12.5 49q0 32 12.5 50t31.5 25.5t40 7.5
t40 -7.5t31.5 -25.5t12.5 -50q0 -31 -12.5 -49t-31.5 -25.5t-40 -7.5zM331 768q18 0 26 7t8 29q0 23 -8 30t-26 7t-27 -7t-9 -30q0 -22 9 -29t27 -7z" />
    <glyph glyph-name="Utilde" unicode="&#x168;" horiz-adv-x="661" 
d="M330 -14q-72 0 -122.5 27.5t-76.5 96.5t-26 192v393h84v-366q0 -90 6 -143t21 -80t42.5 -35.5t71.5 -8.5t72 9t43 35.5t21 80t6 142.5v366h84v-384q0 -128 -26.5 -198.5t-76.5 -98.5t-123 -28zM432 746q-16 0 -45.5 7.5t-61.5 17t-56.5 16.5t-31.5 7q-6 0 -12.5 -11
t-10.5 -22l-4 -11l-52 6q0 57 19.5 79t53.5 22q17 0 46 -7t60.5 -16l56 -16t31.5 -7t12.5 11t9.5 21.5l4 10.5l53 -7q0 -56 -18.5 -78.5t-53.5 -22.5z" />
    <glyph glyph-name="Wacute" unicode="&#x1e82;" horiz-adv-x="748" 
d="M139 0l-126 695h86l97 -621h7l111 458h120l111 -458h7l97 621h86l-125 -695h-122l-111 458h-6l-112 -458h-120zM275 733l-18 51l225 82l28 -73z" />
    <glyph glyph-name="Wcircumflex" unicode="&#x174;" horiz-adv-x="748" 
d="M139 0l-126 695h86l97 -621h7l111 458h120l111 -458h7l97 621h86l-125 -695h-122l-111 458h-6l-112 -458h-120zM255 733l-28 38l121 95h51l121 -95l-28 -38l-115 61h-7z" />
    <glyph glyph-name="Wdieresis" unicode="&#x1e84;" horiz-adv-x="748" 
d="M139 0l-126 695h86l97 -621h7l111 458h120l111 -458h7l97 621h86l-125 -695h-122l-111 458h-6l-112 -458h-120zM231 762v82h99v-82h-99zM418 762v82h98v-82h-98z" />
    <glyph glyph-name="Wgrave" unicode="&#x1e80;" horiz-adv-x="748" 
d="M139 0l-126 695h86l97 -621h7l111 458h120l111 -458h7l97 621h86l-125 -695h-122l-111 458h-6l-112 -458h-120zM483 733l-235 66l26 68l227 -83z" />
    <glyph glyph-name="Ycircumflex" unicode="&#x176;" horiz-adv-x="505" 
d="M210 0l3 259l-197 436h91l143 -348h6l142 348h91l-197 -436l3 -259h-85zM134 733l-28 38l121 95h51l121 -95l-28 -38l-115 61h-7z" />
    <glyph glyph-name="Ydieresis" unicode="&#x178;" horiz-adv-x="505" 
d="M210 0l3 259l-197 436h91l143 -348h6l142 348h91l-197 -436l3 -259h-85zM110 762v82h99v-82h-99zM297 762v82h98v-82h-98z" />
    <glyph glyph-name="uni1EF4" unicode="&#x1ef4;" horiz-adv-x="505" 
d="M210 0l3 259l-197 436h91l143 -348h6l142 348h91l-197 -436l3 -259h-85zM199 -166v85h102v-85h-102z" />
    <glyph glyph-name="Ygrave" unicode="&#x1ef2;" horiz-adv-x="505" 
d="M210 0l3 259l-197 436h91l143 -348h6l142 348h91l-197 -436l3 -259h-85zM355 733l-235 66l26 68l227 -83z" />
    <glyph glyph-name="uni1EF6" unicode="&#x1ef6;" horiz-adv-x="505" 
d="M210 0l3 259l-197 436h91l143 -348h6l142 348h91l-197 -436l3 -259h-85zM200 848v54q2 2 20 3t31 1q47 0 69 -21.5t22 -52.5q0 -22 -8.5 -40.5t-27 -35.5t-48.5 -36l-33 29q32 29 44.5 44.5t12.5 29.5q0 25 -27 25h-55z" />
    <glyph glyph-name="uni1EF8" unicode="&#x1ef8;" horiz-adv-x="505" 
d="M210 0l3 259l-197 436h91l143 -348h6l142 348h91l-197 -436l3 -259h-85zM354 746q-16 0 -45.5 7.5t-61.5 17t-56.5 16.5t-31.5 7q-6 0 -12.5 -11t-10.5 -22l-4 -11l-52 6q0 57 19.5 79t53.5 22q17 0 46 -7t60.5 -16l56 -16t31.5 -7t12.5 11t9.5 21.5l4 10.5l53 -7
q0 -56 -18.5 -78.5t-53.5 -22.5z" />
    <glyph glyph-name="Zacute" unicode="&#x179;" horiz-adv-x="529" 
d="M27 0v72l351 545v7l-331 -3v74h428v-72l-348 -543v-9l362 3v-74h-462zM167 733l-18 51l225 82l28 -73z" />
    <glyph glyph-name="Zcaron" unicode="&#x17d;" horiz-adv-x="529" 
d="M27 0v72l351 545v7l-331 -3v74h428v-72l-348 -543v-9l362 3v-74h-462zM240 746l-121 95l28 38l115 -61h7l115 61l28 -38l-121 -95h-51z" />
    <glyph glyph-name="Zdotaccent" unicode="&#x17b;" horiz-adv-x="529" 
d="M27 0v72l351 545v7l-331 -3v74h428v-72l-348 -543v-9l362 3v-74h-462zM214 763v82h104v-82h-104z" />
    <glyph glyph-name="abreve" unicode="&#x103;" horiz-adv-x="569" 
d="M211 -13q-46 0 -81.5 21.5t-55.5 63t-20 100.5q0 71 28.5 111.5t80.5 57.5t121 17h106q0 50 -2.5 87.5t-16.5 55.5q-10 14 -27.5 18t-36.5 4q-39 0 -76.5 -7.5t-68 -17.5t-48.5 -17.5l-18 -7.5l-29 65l19 8.5t51 20t71.5 20t81.5 8.5q68 0 108 -26.5t57.5 -74
t17.5 -111.5v-383h-54l-12 61h-6q-10 -7 -28.5 -19.5t-43 -25t-54.5 -21t-64 -8.5zM225 60q36 0 68.5 10.5t58 23.5t38.5 21v166q-13 2 -39 4.5t-68 2.5q-93 0 -115 -19q-13 -10 -20 -35.5t-7 -61.5q0 -59 19.5 -85.5t64.5 -26.5zM277 657q-37 0 -70.5 14.5t-55 46
t-23.5 82.5l57 6q4 -46 29 -64t63 -18t63 18t29 64l57 -6q-2 -51 -24 -82.5t-55 -46t-70 -14.5z" />
    <glyph glyph-name="uni1EAF" unicode="&#x1eaf;" horiz-adv-x="569" 
d="M211 -13q-46 0 -81.5 21.5t-55.5 63t-20 100.5q0 71 28.5 111.5t80.5 57.5t121 17h106q0 50 -2.5 87.5t-16.5 55.5q-10 14 -27.5 18t-36.5 4q-39 0 -76.5 -7.5t-68 -17.5t-48.5 -17.5l-18 -7.5l-29 65l19 8.5t51 20t71.5 20t81.5 8.5q68 0 108 -26.5t57.5 -74
t17.5 -111.5v-383h-54l-12 61h-6q-10 -7 -28.5 -19.5t-43 -25t-54.5 -21t-64 -8.5zM225 60q36 0 68.5 10.5t58 23.5t38.5 21v166q-13 2 -39 4.5t-68 2.5q-93 0 -115 -19q-13 -10 -20 -35.5t-7 -61.5q0 -59 19.5 -85.5t64.5 -26.5zM277 657q-37 0 -70.5 14.5t-55 46
t-23.5 82.5l57 6q4 -46 29 -64t63 -18t63 18t29 64l57 -6q-2 -51 -24 -82.5t-55 -46t-70 -14.5zM170 832l-20 50l184 84l30 -67z" />
    <glyph glyph-name="uni1EB7" unicode="&#x1eb7;" horiz-adv-x="569" 
d="M211 -13q-46 0 -81.5 21.5t-55.5 63t-20 100.5q0 71 28.5 111.5t80.5 57.5t121 17h106q0 50 -2.5 87.5t-16.5 55.5q-10 14 -27.5 18t-36.5 4q-39 0 -76.5 -7.5t-68 -17.5t-48.5 -17.5l-18 -7.5l-29 65l19 8.5t51 20t71.5 20t81.5 8.5q68 0 108 -26.5t57.5 -74
t17.5 -111.5v-383h-54l-12 61h-6q-10 -7 -28.5 -19.5t-43 -25t-54.5 -21t-64 -8.5zM225 60q36 0 68.5 10.5t58 23.5t38.5 21v166q-13 2 -39 4.5t-68 2.5q-93 0 -115 -19q-13 -10 -20 -35.5t-7 -61.5q0 -59 19.5 -85.5t64.5 -26.5zM216 -166v85h102v-85h-102zM277 657
q-37 0 -70.5 14.5t-55 46t-23.5 82.5l57 6q4 -46 29 -64t63 -18t63 18t29 64l57 -6q-2 -51 -24 -82.5t-55 -46t-70 -14.5z" />
    <glyph glyph-name="uni1EB1" unicode="&#x1eb1;" horiz-adv-x="569" 
d="M211 -13q-46 0 -81.5 21.5t-55.5 63t-20 100.5q0 71 28.5 111.5t80.5 57.5t121 17h106q0 50 -2.5 87.5t-16.5 55.5q-10 14 -27.5 18t-36.5 4q-39 0 -76.5 -7.5t-68 -17.5t-48.5 -17.5l-18 -7.5l-29 65l19 8.5t51 20t71.5 20t81.5 8.5q68 0 108 -26.5t57.5 -74
t17.5 -111.5v-383h-54l-12 61h-6q-10 -7 -28.5 -19.5t-43 -25t-54.5 -21t-64 -8.5zM225 60q36 0 68.5 10.5t58 23.5t38.5 21v166q-13 2 -39 4.5t-68 2.5q-93 0 -115 -19q-13 -10 -20 -35.5t-7 -61.5q0 -59 19.5 -85.5t64.5 -26.5zM277 657q-37 0 -70.5 14.5t-55 46
t-23.5 82.5l57 6q4 -46 29 -64t63 -18t63 18t29 64l57 -6q-2 -51 -24 -82.5t-55 -46t-70 -14.5zM345 832l-194 67l30 67l184 -84z" />
    <glyph glyph-name="uni1EB3" unicode="&#x1eb3;" horiz-adv-x="569" 
d="M211 -13q-46 0 -81.5 21.5t-55.5 63t-20 100.5q0 71 28.5 111.5t80.5 57.5t121 17h106q0 50 -2.5 87.5t-16.5 55.5q-10 14 -27.5 18t-36.5 4q-39 0 -76.5 -7.5t-68 -17.5t-48.5 -17.5l-18 -7.5l-29 65l19 8.5t51 20t71.5 20t81.5 8.5q68 0 108 -26.5t57.5 -74
t17.5 -111.5v-383h-54l-12 61h-6q-10 -7 -28.5 -19.5t-43 -25t-54.5 -21t-64 -8.5zM225 60q36 0 68.5 10.5t58 23.5t38.5 21v166q-13 2 -39 4.5t-68 2.5q-93 0 -115 -19q-13 -10 -20 -35.5t-7 -61.5q0 -59 19.5 -85.5t64.5 -26.5zM277 657q-37 0 -70.5 14.5t-55 46
t-23.5 82.5l57 6q4 -46 29 -64t63 -18t63 18t29 64l57 -6q-2 -51 -24 -82.5t-55 -46t-70 -14.5z" />
    <glyph glyph-name="uni1EB5" unicode="&#x1eb5;" horiz-adv-x="569" 
d="M211 -13q-46 0 -81.5 21.5t-55.5 63t-20 100.5q0 71 28.5 111.5t80.5 57.5t121 17h106q0 50 -2.5 87.5t-16.5 55.5q-10 14 -27.5 18t-36.5 4q-39 0 -76.5 -7.5t-68 -17.5t-48.5 -17.5l-18 -7.5l-29 65l19 8.5t51 20t71.5 20t81.5 8.5q68 0 108 -26.5t57.5 -74
t17.5 -111.5v-383h-54l-12 61h-6q-10 -7 -28.5 -19.5t-43 -25t-54.5 -21t-64 -8.5zM225 60q36 0 68.5 10.5t58 23.5t38.5 21v166q-13 2 -39 4.5t-68 2.5q-93 0 -115 -19q-13 -10 -20 -35.5t-7 -61.5q0 -59 19.5 -85.5t64.5 -26.5zM277 657q-37 0 -70.5 14.5t-55 46
t-23.5 82.5l57 6q4 -46 29 -64t63 -18t63 18t29 64l57 -6q-2 -51 -24 -82.5t-55 -46t-70 -14.5zM358 853q-16 0 -39.5 7.5t-47.5 17.5t-42.5 17.5t-25.5 7.5q-6 0 -12.5 -11.5t-10.5 -23l-4 -11.5l-52 6q0 57 19.5 79t53.5 22q17 0 39.5 -7t45.5 -16.5t41.5 -17t25.5 -7.5
t13 11t10.5 22.5l4.5 11.5l53 -7q0 -56 -18.5 -78.5t-53.5 -22.5z" />
    <glyph glyph-name="uni01CE" unicode="&#x1ce;" horiz-adv-x="569" 
d="M211 -13q-46 0 -81.5 21.5t-55.5 63t-20 100.5q0 71 28.5 111.5t80.5 57.5t121 17h106q0 50 -2.5 87.5t-16.5 55.5q-10 14 -27.5 18t-36.5 4q-39 0 -76.5 -7.5t-68 -17.5t-48.5 -17.5l-18 -7.5l-29 65l19 8.5t51 20t71.5 20t81.5 8.5q68 0 108 -26.5t57.5 -74
t17.5 -111.5v-383h-54l-12 61h-6q-10 -7 -28.5 -19.5t-43 -25t-54.5 -21t-64 -8.5zM225 60q36 0 68.5 10.5t58 23.5t38.5 21v166q-13 2 -39 4.5t-68 2.5q-93 0 -115 -19q-13 -10 -20 -35.5t-7 -61.5q0 -59 19.5 -85.5t64.5 -26.5zM251 663l-121 109l29 34l114 -71h7l114 71
l29 -34l-121 -109h-51z" />
    <glyph glyph-name="uni1EA5" unicode="&#x1ea5;" horiz-adv-x="569" 
d="M211 -13q-46 0 -81.5 21.5t-55.5 63t-20 100.5q0 71 28.5 111.5t80.5 57.5t121 17h106q0 50 -2.5 87.5t-16.5 55.5q-10 14 -27.5 18t-36.5 4q-39 0 -76.5 -7.5t-68 -17.5t-48.5 -17.5l-18 -7.5l-29 65l19 8.5t51 20t71.5 20t81.5 8.5q68 0 108 -26.5t57.5 -74
t17.5 -111.5v-383h-54l-12 61h-6q-10 -7 -28.5 -19.5t-43 -25t-54.5 -21t-64 -8.5zM225 60q36 0 68.5 10.5t58 23.5t38.5 21v166q-13 2 -39 4.5t-68 2.5q-93 0 -115 -19q-13 -10 -20 -35.5t-7 -61.5q0 -59 19.5 -85.5t64.5 -26.5zM159 659l-29 34l121 109h51l121 -109
l-29 -34l-114 71h-7zM170 832l-20 50l184 84l30 -67z" />
    <glyph glyph-name="uni1EAD" unicode="&#x1ead;" horiz-adv-x="569" 
d="M211 -13q-46 0 -81.5 21.5t-55.5 63t-20 100.5q0 71 28.5 111.5t80.5 57.5t121 17h106q0 50 -2.5 87.5t-16.5 55.5q-10 14 -27.5 18t-36.5 4q-39 0 -76.5 -7.5t-68 -17.5t-48.5 -17.5l-18 -7.5l-29 65l19 8.5t51 20t71.5 20t81.5 8.5q68 0 108 -26.5t57.5 -74
t17.5 -111.5v-383h-54l-12 61h-6q-10 -7 -28.5 -19.5t-43 -25t-54.5 -21t-64 -8.5zM225 60q36 0 68.5 10.5t58 23.5t38.5 21v166q-13 2 -39 4.5t-68 2.5q-93 0 -115 -19q-13 -10 -20 -35.5t-7 -61.5q0 -59 19.5 -85.5t64.5 -26.5zM224 -166v85h102v-85h-102zM159 659l-29 34
l121 109h51l121 -109l-29 -34l-114 71h-7z" />
    <glyph glyph-name="uni1EA7" unicode="&#x1ea7;" horiz-adv-x="569" 
d="M211 -13q-46 0 -81.5 21.5t-55.5 63t-20 100.5q0 71 28.5 111.5t80.5 57.5t121 17h106q0 50 -2.5 87.5t-16.5 55.5q-10 14 -27.5 18t-36.5 4q-39 0 -76.5 -7.5t-68 -17.5t-48.5 -17.5l-18 -7.5l-29 65l19 8.5t51 20t71.5 20t81.5 8.5q68 0 108 -26.5t57.5 -74
t17.5 -111.5v-383h-54l-12 61h-6q-10 -7 -28.5 -19.5t-43 -25t-54.5 -21t-64 -8.5zM225 60q36 0 68.5 10.5t58 23.5t38.5 21v166q-13 2 -39 4.5t-68 2.5q-93 0 -115 -19q-13 -10 -20 -35.5t-7 -61.5q0 -59 19.5 -85.5t64.5 -26.5zM159 659l-29 34l121 109h51l121 -109
l-29 -34l-114 71h-7zM345 832l-194 67l30 67l184 -84z" />
    <glyph glyph-name="uni1EA9" unicode="&#x1ea9;" horiz-adv-x="569" 
d="M211 -13q-46 0 -81.5 21.5t-55.5 63t-20 100.5q0 71 28.5 111.5t80.5 57.5t121 17h106q0 50 -2.5 87.5t-16.5 55.5q-10 14 -27.5 18t-36.5 4q-39 0 -76.5 -7.5t-68 -17.5t-48.5 -17.5l-18 -7.5l-29 65l19 8.5t51 20t71.5 20t81.5 8.5q68 0 108 -26.5t57.5 -74
t17.5 -111.5v-383h-54l-12 61h-6q-10 -7 -28.5 -19.5t-43 -25t-54.5 -21t-64 -8.5zM225 60q36 0 68.5 10.5t58 23.5t38.5 21v166q-13 2 -39 4.5t-68 2.5q-93 0 -115 -19q-13 -10 -20 -35.5t-7 -61.5q0 -59 19.5 -85.5t64.5 -26.5zM159 659l-29 34l121 109h51l121 -109
l-29 -34l-114 71h-7zM336 889v54q2 2 20 3t31 1q47 0 69 -21.5t22 -52.5q0 -22 -8.5 -40.5t-27 -35.5t-48.5 -36l-33 29q32 29 44.5 44.5t12.5 29.5q0 25 -27 25h-55z" />
    <glyph glyph-name="uni1EAB" unicode="&#x1eab;" horiz-adv-x="569" 
d="M211 -13q-46 0 -81.5 21.5t-55.5 63t-20 100.5q0 71 28.5 111.5t80.5 57.5t121 17h106q0 50 -2.5 87.5t-16.5 55.5q-10 14 -27.5 18t-36.5 4q-39 0 -76.5 -7.5t-68 -17.5t-48.5 -17.5l-18 -7.5l-29 65l19 8.5t51 20t71.5 20t81.5 8.5q68 0 108 -26.5t57.5 -74
t17.5 -111.5v-383h-54l-12 61h-6q-10 -7 -28.5 -19.5t-43 -25t-54.5 -21t-64 -8.5zM225 60q36 0 68.5 10.5t58 23.5t38.5 21v166q-13 2 -39 4.5t-68 2.5q-93 0 -115 -19q-13 -10 -20 -35.5t-7 -61.5q0 -59 19.5 -85.5t64.5 -26.5zM159 659l-29 34l121 109h51l121 -109
l-29 -34l-114 71h-7zM358 853q-16 0 -39.5 7.5t-47.5 17.5t-42.5 17.5t-25.5 7.5q-6 0 -12.5 -11.5t-10.5 -23l-4 -11.5l-52 6q0 57 19.5 79t53.5 22q17 0 39.5 -7t45.5 -16.5t41.5 -17t25.5 -7.5t13 11t10.5 22.5l4.5 11.5l53 -7q0 -56 -18.5 -78.5t-53.5 -22.5z" />
    <glyph glyph-name="uni01DF" unicode="&#x1df;" horiz-adv-x="569" 
d="M211 -13q-46 0 -81.5 21.5t-55.5 63t-20 100.5q0 71 28.5 111.5t80.5 57.5t121 17h106q0 50 -2.5 87.5t-16.5 55.5q-10 14 -27.5 18t-36.5 4q-39 0 -76.5 -7.5t-68 -17.5t-48.5 -17.5l-18 -7.5l-29 65l19 8.5t51 20t71.5 20t81.5 8.5q68 0 108 -26.5t57.5 -74
t17.5 -111.5v-383h-54l-12 61h-6q-10 -7 -28.5 -19.5t-43 -25t-54.5 -21t-64 -8.5zM225 60q36 0 68.5 10.5t58 23.5t38.5 21v166q-13 2 -39 4.5t-68 2.5q-93 0 -115 -19q-13 -10 -20 -35.5t-7 -61.5q0 -59 19.5 -85.5t64.5 -26.5zM134 684v82h99v-82h-99zM321 684v82h98v-82
h-98zM117 868v65h320v-65h-320z" />
    <glyph glyph-name="uni1EA1" unicode="&#x1ea1;" horiz-adv-x="569" 
d="M211 -13q-46 0 -81.5 21.5t-55.5 63t-20 100.5q0 71 28.5 111.5t80.5 57.5t121 17h106q0 50 -2.5 87.5t-16.5 55.5q-10 14 -27.5 18t-36.5 4q-39 0 -76.5 -7.5t-68 -17.5t-48.5 -17.5l-18 -7.5l-29 65l19 8.5t51 20t71.5 20t81.5 8.5q68 0 108 -26.5t57.5 -74
t17.5 -111.5v-383h-54l-12 61h-6q-10 -7 -28.5 -19.5t-43 -25t-54.5 -21t-64 -8.5zM225 60q36 0 68.5 10.5t58 23.5t38.5 21v166q-13 2 -39 4.5t-68 2.5q-93 0 -115 -19q-13 -10 -20 -35.5t-7 -61.5q0 -59 19.5 -85.5t64.5 -26.5zM225 -166v85h102v-85h-102z" />
    <glyph glyph-name="uni1EA3" unicode="&#x1ea3;" horiz-adv-x="569" 
d="M211 -13q-46 0 -81.5 21.5t-55.5 63t-20 100.5q0 71 28.5 111.5t80.5 57.5t121 17h106q0 50 -2.5 87.5t-16.5 55.5q-10 14 -27.5 18t-36.5 4q-39 0 -76.5 -7.5t-68 -17.5t-48.5 -17.5l-18 -7.5l-29 65l19 8.5t51 20t71.5 20t81.5 8.5q68 0 108 -26.5t57.5 -74
t17.5 -111.5v-383h-54l-12 61h-6q-10 -7 -28.5 -19.5t-43 -25t-54.5 -21t-64 -8.5zM225 60q36 0 68.5 10.5t58 23.5t38.5 21v166q-13 2 -39 4.5t-68 2.5q-93 0 -115 -19q-13 -10 -20 -35.5t-7 -61.5q0 -59 19.5 -85.5t64.5 -26.5zM210 799v54q2 2 20 3t31 1q47 0 69 -21.5
t22 -52.5q0 -22 -8.5 -40.5t-27 -35.5t-48.5 -36l-33 29q32 29 44.5 44.5t12.5 29.5q0 25 -27 25h-55z" />
    <glyph glyph-name="amacron" unicode="&#x101;" horiz-adv-x="569" 
d="M211 -13q-46 0 -81.5 21.5t-55.5 63t-20 100.5q0 71 28.5 111.5t80.5 57.5t121 17h106q0 50 -2.5 87.5t-16.5 55.5q-10 14 -27.5 18t-36.5 4q-39 0 -76.5 -7.5t-68 -17.5t-48.5 -17.5l-18 -7.5l-29 65l19 8.5t51 20t71.5 20t81.5 8.5q68 0 108 -26.5t57.5 -74
t17.5 -111.5v-383h-54l-12 61h-6q-10 -7 -28.5 -19.5t-43 -25t-54.5 -21t-64 -8.5zM225 60q36 0 68.5 10.5t58 23.5t38.5 21v166q-13 2 -39 4.5t-68 2.5q-93 0 -115 -19q-13 -10 -20 -35.5t-7 -61.5q0 -59 19.5 -85.5t64.5 -26.5zM117 690v65h320v-65h-320z" />
    <glyph glyph-name="aogonek" unicode="&#x105;" horiz-adv-x="569" 
d="M211 -13q-46 0 -81.5 21.5t-55.5 63t-20 100.5q0 71 28.5 111.5t80.5 57.5t121 17h106q0 50 -2.5 87.5t-16.5 55.5q-10 14 -27.5 18t-36.5 4q-39 0 -76.5 -7.5t-68 -17.5t-48.5 -17.5l-18 -7.5l-29 65l19 8.5t51 20t71.5 20t81.5 8.5q68 0 108 -26.5t57.5 -74
t17.5 -111.5v-383h-54l-12 61h-6q-10 -7 -28.5 -19.5t-43 -25t-54.5 -21t-64 -8.5zM225 60q36 0 68.5 10.5t58 23.5t38.5 21v166q-13 2 -39 4.5t-68 2.5q-93 0 -115 -19q-13 -10 -20 -35.5t-7 -61.5q0 -59 19.5 -85.5t64.5 -26.5zM412 -179q-43 0 -72.5 17.5t-29.5 58.5
q0 28 19.5 52.5t48 43t53.5 28.5l42 -21q-40 -16 -68 -41.5t-28 -44.5q0 -18 12.5 -24t33.5 -6q16 0 33 2l17 2v-59l-17.5 -4t-43.5 -4z" />
    <glyph glyph-name="cacute" unicode="&#x107;" horiz-adv-x="518" 
d="M300 -13q-68 0 -120 31t-81 98.5t-29 176.5q0 89 19.5 148t53.5 92.5t80 47.5t98 14q38 0 77.5 -5t64.5 -11l-10 -70q-19 2 -60 7.5t-88 5.5q-37 0 -62.5 -6t-39.5 -20q-19 -21 -32.5 -76.5t-13.5 -132.5q0 -71 11 -114.5t26 -66t27 -31.5q8 -6 21.5 -11t38.5 -5
q29 0 59 7t55 16t40.5 16l15.5 7l26 -65l-22 -13t-62 -26.5t-93 -13.5zM204 654l-20 50l184 84l30 -67z" />
    <glyph glyph-name="ccaron" unicode="&#x10d;" horiz-adv-x="518" 
d="M300 -13q-68 0 -120 31t-81 98.5t-29 176.5q0 89 19.5 148t53.5 92.5t80 47.5t98 14q38 0 77.5 -5t64.5 -11l-10 -70q-19 2 -60 7.5t-88 5.5q-37 0 -62.5 -6t-39.5 -20q-19 -21 -32.5 -76.5t-13.5 -132.5q0 -71 11 -114.5t26 -66t27 -31.5q8 -6 21.5 -11t38.5 -5
q29 0 59 7t55 16t40.5 16l15.5 7l26 -65l-22 -13t-62 -26.5t-93 -13.5zM285 663l-121 109l29 34l114 -71h7l114 71l29 -34l-121 -109h-51z" />
    <glyph glyph-name="cdotaccent" unicode="&#x10b;" horiz-adv-x="518" 
d="M300 -13q-68 0 -120 31t-81 98.5t-29 176.5q0 89 19.5 148t53.5 92.5t80 47.5t98 14q38 0 77.5 -5t64.5 -11l-10 -70q-19 2 -60 7.5t-88 5.5q-37 0 -62.5 -6t-39.5 -20q-19 -21 -32.5 -76.5t-13.5 -132.5q0 -71 11 -114.5t26 -66t27 -31.5q8 -6 21.5 -11t38.5 -5
q29 0 59 7t55 16t40.5 16l15.5 7l26 -65l-22 -13t-62 -26.5t-93 -13.5zM260 681v85h102v-85h-102z" />
    <glyph glyph-name="dcaron" unicode="&#x10f;" horiz-adv-x="611" 
d="M254 -13q-54 0 -95.5 31t-65 96t-23.5 166q0 97 17.5 158.5t47.5 95.5t66.5 47.5t75.5 13.5q33 0 58 -4t43.5 -9t29.5 -10v181h83v-753h-55l-11 60h-5q-13 -10 -36 -27.5t-55.5 -31.5t-74.5 -14zM259 61q20 0 41 5.5t41.5 13.5t38 17t28.5 16v382q-12 5 -33.5 11
t-48.5 10.5t-57 4.5q-56 0 -76 -24q-8 -11 -16.5 -35t-14 -68.5t-5.5 -117.5q0 -82 8.5 -124t19.5 -58t17 -21q8 -7 23 -9.5t34 -2.5zM572 554l-15 199h86l-18 -199h-53z" />
    <glyph glyph-name="uni1E13" unicode="&#x1e13;" horiz-adv-x="581" 
d="M191 -196l-29 34l121 109h51l121 -109l-29 -34l-114 71h-7zM254 -13q-54 0 -95.5 31t-65 96t-23.5 166q0 97 17.5 158.5t47.5 95.5t66.5 47.5t75.5 13.5q33 0 58 -4t43.5 -9t29.5 -10v181h83v-753h-55l-11 60h-5q-13 -10 -36 -27.5t-55.5 -31.5t-74.5 -14zM259 61
q20 0 41 5.5t41.5 13.5t38 17t28.5 16v382q-12 5 -33.5 11t-48.5 10.5t-57 4.5q-56 0 -76 -24q-8 -11 -16.5 -35t-14 -68.5t-5.5 -117.5q0 -82 8.5 -124t19.5 -58t17 -21q8 -7 23 -9.5t34 -2.5z" />
    <glyph glyph-name="dcroat" unicode="&#x111;" horiz-adv-x="581" 
d="M592 689v-64l-156 3l-218 -3v64h374zM254 -13q-54 0 -95.5 31t-65 96t-23.5 166q0 97 17.5 158.5t47.5 95.5t66.5 47.5t75.5 13.5q33 0 58 -4t43.5 -9t29.5 -10v181h83v-753h-55l-11 60h-5q-13 -10 -36 -27.5t-55.5 -31.5t-74.5 -14zM259 61q20 0 41 5.5t41.5 13.5t38 17
t28.5 16v382q-12 5 -33.5 11t-48.5 10.5t-57 4.5q-56 0 -76 -24q-8 -11 -16.5 -35t-14 -68.5t-5.5 -117.5q0 -82 8.5 -124t19.5 -58t17 -21q8 -7 23 -9.5t34 -2.5z" />
    <glyph glyph-name="ecaron" unicode="&#x11b;" horiz-adv-x="571" 
d="M304 -14q-69 0 -121.5 29.5t-81.5 97t-29 179.5q0 117 30.5 183t82.5 93.5t117 27.5t110.5 -26t69.5 -86.5t24 -162.5v-63h-384l39 15q-4 -66 3.5 -105.5t19 -58.5t19.5 -27q14 -12 34 -18t49 -6t57 4.5t52 11t43 13t31 9.5l21 -67q-9 -4 -35 -14.5t-64.5 -19.5t-86.5 -9
zM161 288l-39 36l337 7l-38 -37q1 71 -2.5 122t-20.5 78q-7 11 -24 20.5t-66 9.5q-51 0 -76.5 -11t-39.5 -29q-37 -49 -31 -196zM276 663l-121 109l29 34l114 -71h7l114 71l29 -34l-121 -109h-51z" />
    <glyph glyph-name="uni1EBF" unicode="&#x1ebf;" horiz-adv-x="571" 
d="M304 -14q-69 0 -121.5 29.5t-81.5 97t-29 179.5q0 117 30.5 183t82.5 93.5t117 27.5t110.5 -26t69.5 -86.5t24 -162.5v-63h-384l39 15q-4 -66 3.5 -105.5t19 -58.5t19.5 -27q14 -12 34 -18t49 -6t57 4.5t52 11t43 13t31 9.5l21 -67q-9 -4 -35 -14.5t-64.5 -19.5t-86.5 -9
zM161 288l-39 36l337 7l-38 -37q1 71 -2.5 122t-20.5 78q-7 11 -24 20.5t-66 9.5q-51 0 -76.5 -11t-39.5 -29q-37 -49 -31 -196zM184 659l-29 34l121 109h51l121 -109l-29 -34l-114 71h-7zM195 832l-20 50l184 84l30 -67z" />
    <glyph glyph-name="uni1EC7" unicode="&#x1ec7;" horiz-adv-x="571" 
d="M304 -14q-69 0 -121.5 29.5t-81.5 97t-29 179.5q0 117 30.5 183t82.5 93.5t117 27.5t110.5 -26t69.5 -86.5t24 -162.5v-63h-384l39 15q-4 -66 3.5 -105.5t19 -58.5t19.5 -27q14 -12 34 -18t49 -6t57 4.5t52 11t43 13t31 9.5l21 -67q-9 -4 -35 -14.5t-64.5 -19.5t-86.5 -9
zM161 288l-39 36l337 7l-38 -37q1 71 -2.5 122t-20.5 78q-7 11 -24 20.5t-66 9.5q-51 0 -76.5 -11t-39.5 -29q-37 -49 -31 -196zM241 -166v85h102v-85h-102zM184 659l-29 34l121 109h51l121 -109l-29 -34l-114 71h-7z" />
    <glyph glyph-name="uni1EC1" unicode="&#x1ec1;" horiz-adv-x="571" 
d="M304 -14q-69 0 -121.5 29.5t-81.5 97t-29 179.5q0 117 30.5 183t82.5 93.5t117 27.5t110.5 -26t69.5 -86.5t24 -162.5v-63h-384l39 15q-4 -66 3.5 -105.5t19 -58.5t19.5 -27q14 -12 34 -18t49 -6t57 4.5t52 11t43 13t31 9.5l21 -67q-9 -4 -35 -14.5t-64.5 -19.5t-86.5 -9
zM161 288l-39 36l337 7l-38 -37q1 71 -2.5 122t-20.5 78q-7 11 -24 20.5t-66 9.5q-51 0 -76.5 -11t-39.5 -29q-37 -49 -31 -196zM184 659l-29 34l121 109h51l121 -109l-29 -34l-114 71h-7zM370 832l-194 67l30 67l184 -84z" />
    <glyph glyph-name="uni1EC3" unicode="&#x1ec3;" horiz-adv-x="571" 
d="M304 -14q-69 0 -121.5 29.5t-81.5 97t-29 179.5q0 117 30.5 183t82.5 93.5t117 27.5t110.5 -26t69.5 -86.5t24 -162.5v-63h-384l39 15q-4 -66 3.5 -105.5t19 -58.5t19.5 -27q14 -12 34 -18t49 -6t57 4.5t52 11t43 13t31 9.5l21 -67q-9 -4 -35 -14.5t-64.5 -19.5t-86.5 -9
zM161 288l-39 36l337 7l-38 -37q1 71 -2.5 122t-20.5 78q-7 11 -24 20.5t-66 9.5q-51 0 -76.5 -11t-39.5 -29q-37 -49 -31 -196zM184 659l-29 34l121 109h51l121 -109l-29 -34l-114 71h-7zM361 889v54q2 2 20 3t31 1q47 0 69 -21.5t22 -52.5q0 -22 -8.5 -40.5t-27 -35.5
t-48.5 -36l-33 29q32 29 44.5 44.5t12.5 29.5q0 25 -27 25h-55z" />
    <glyph glyph-name="uni1EC5" unicode="&#x1ec5;" horiz-adv-x="571" 
d="M304 -14q-69 0 -121.5 29.5t-81.5 97t-29 179.5q0 117 30.5 183t82.5 93.5t117 27.5t110.5 -26t69.5 -86.5t24 -162.5v-63h-384l39 15q-4 -66 3.5 -105.5t19 -58.5t19.5 -27q14 -12 34 -18t49 -6t57 4.5t52 11t43 13t31 9.5l21 -67q-9 -4 -35 -14.5t-64.5 -19.5t-86.5 -9
zM161 288l-39 36l337 7l-38 -37q1 71 -2.5 122t-20.5 78q-7 11 -24 20.5t-66 9.5q-51 0 -76.5 -11t-39.5 -29q-37 -49 -31 -196zM184 659l-29 34l121 109h51l121 -109l-29 -34l-114 71h-7zM383 853q-16 0 -39.5 7.5t-47.5 17.5t-42.5 17.5t-25.5 7.5q-6 0 -12.5 -11.5
t-10.5 -23l-4 -11.5l-52 6q0 57 19.5 79t53.5 22q17 0 39.5 -7t45.5 -16.5t41.5 -17t25.5 -7.5t13 11t10.5 22.5l4.5 11.5l53 -7q0 -56 -18.5 -78.5t-53.5 -22.5z" />
    <glyph glyph-name="edotaccent" unicode="&#x117;" horiz-adv-x="571" 
d="M304 -14q-69 0 -121.5 29.5t-81.5 97t-29 179.5q0 117 30.5 183t82.5 93.5t117 27.5t110.5 -26t69.5 -86.5t24 -162.5v-63h-384l39 15q-4 -66 3.5 -105.5t19 -58.5t19.5 -27q14 -12 34 -18t49 -6t57 4.5t52 11t43 13t31 9.5l21 -67q-9 -4 -35 -14.5t-64.5 -19.5t-86.5 -9
zM161 288l-39 36l337 7l-38 -37q1 71 -2.5 122t-20.5 78q-7 11 -24 20.5t-66 9.5q-51 0 -76.5 -11t-39.5 -29q-37 -49 -31 -196zM251 681v85h102v-85h-102z" />
    <glyph glyph-name="uni1EB9" unicode="&#x1eb9;" horiz-adv-x="571" 
d="M304 -14q-69 0 -121.5 29.5t-81.5 97t-29 179.5q0 117 30.5 183t82.5 93.5t117 27.5t110.5 -26t69.5 -86.5t24 -162.5v-63h-384l39 15q-4 -66 3.5 -105.5t19 -58.5t19.5 -27q14 -12 34 -18t49 -6t57 4.5t52 11t43 13t31 9.5l21 -67q-9 -4 -35 -14.5t-64.5 -19.5t-86.5 -9
zM161 288l-39 36l337 7l-38 -37q1 71 -2.5 122t-20.5 78q-7 11 -24 20.5t-66 9.5q-51 0 -76.5 -11t-39.5 -29q-37 -49 -31 -196zM238 -166v85h102v-85h-102z" />
    <glyph glyph-name="uni1EBB" unicode="&#x1ebb;" horiz-adv-x="571" 
d="M304 -14q-69 0 -121.5 29.5t-81.5 97t-29 179.5q0 117 30.5 183t82.5 93.5t117 27.5t110.5 -26t69.5 -86.5t24 -162.5v-63h-384l39 15q-4 -66 3.5 -105.5t19 -58.5t19.5 -27q14 -12 34 -18t49 -6t57 4.5t52 11t43 13t31 9.5l21 -67q-9 -4 -35 -14.5t-64.5 -19.5t-86.5 -9
zM161 288l-39 36l337 7l-38 -37q1 71 -2.5 122t-20.5 78q-7 11 -24 20.5t-66 9.5q-51 0 -76.5 -11t-39.5 -29q-37 -49 -31 -196zM258 799v54q2 2 20 3t31 1q47 0 69 -21.5t22 -52.5q0 -22 -8.5 -40.5t-27 -35.5t-48.5 -36l-33 29q32 29 44.5 44.5t12.5 29.5q0 25 -27 25h-55
z" />
    <glyph glyph-name="emacron" unicode="&#x113;" horiz-adv-x="571" 
d="M304 -14q-69 0 -121.5 29.5t-81.5 97t-29 179.5q0 117 30.5 183t82.5 93.5t117 27.5t110.5 -26t69.5 -86.5t24 -162.5v-63h-384l39 15q-4 -66 3.5 -105.5t19 -58.5t19.5 -27q14 -12 34 -18t49 -6t57 4.5t52 11t43 13t31 9.5l21 -67q-9 -4 -35 -14.5t-64.5 -19.5t-86.5 -9
zM161 288l-39 36l337 7l-38 -37q1 71 -2.5 122t-20.5 78q-7 11 -24 20.5t-66 9.5q-51 0 -76.5 -11t-39.5 -29q-37 -49 -31 -196zM142 690v65h320v-65h-320z" />
    <glyph glyph-name="eogonek" unicode="&#x119;" horiz-adv-x="571" 
d="M304 -14q-69 0 -121.5 29.5t-81.5 97t-29 179.5q0 117 30.5 183t82.5 93.5t117 27.5t110.5 -26t69.5 -86.5t24 -162.5v-63h-384l39 15q-4 -66 3.5 -105.5t19 -58.5t19.5 -27q14 -12 34 -18t49 -6t57 4.5t52 11t43 13t31 9.5l21 -67q-9 -4 -35 -14.5t-64.5 -19.5t-86.5 -9
zM161 288l-39 36l337 7l-38 -37q1 71 -2.5 122t-20.5 78q-7 11 -24 20.5t-66 9.5q-51 0 -76.5 -11t-39.5 -29q-37 -49 -31 -196zM344 -179q-43 0 -72.5 17.5t-29.5 58.5q0 28 19.5 52.5t48 43t53.5 28.5l42 -21q-40 -16 -68 -41.5t-28 -44.5q0 -18 12.5 -24t33.5 -6
q16 0 33 2l17 2v-59l-17.5 -4t-43.5 -4z" />
    <glyph glyph-name="uni1EBD" unicode="&#x1ebd;" horiz-adv-x="571" 
d="M304 -14q-69 0 -121.5 29.5t-81.5 97t-29 179.5q0 117 30.5 183t82.5 93.5t117 27.5t110.5 -26t69.5 -86.5t24 -162.5v-63h-384l39 15q-4 -66 3.5 -105.5t19 -58.5t19.5 -27q14 -12 34 -18t49 -6t57 4.5t52 11t43 13t31 9.5l21 -67q-9 -4 -35 -14.5t-64.5 -19.5t-86.5 -9
zM161 288l-39 36l337 7l-38 -37q1 71 -2.5 122t-20.5 78q-7 11 -24 20.5t-66 9.5q-51 0 -76.5 -11t-39.5 -29q-37 -49 -31 -196zM383 675q-16 0 -39.5 7.5t-47.5 17.5t-42.5 17.5t-25.5 7.5q-6 0 -12.5 -11.5t-10.5 -23l-4 -11.5l-52 6q0 57 19.5 79t53.5 22q17 0 39.5 -7
t45.5 -16.5t41.5 -17t25.5 -7.5t13 11t10.5 22.5l4.5 11.5l53 -7q0 -56 -18.5 -78.5t-53.5 -22.5z" />
    <glyph glyph-name="gbreve" unicode="&#x11f;" horiz-adv-x="521" 
d="M253 -179q-40 0 -75 4t-61 9.5t-41 9.5l-15 4l10 75q56 -10 115 -17.5t114 -7.5q56 0 75 9t19 28q0 11 -5 20t-18 18.5t-38 21.5t-66 29q-57 24 -82.5 34.5t-32 14t-6.5 6.5q0 1 5 13.5t13 30.5t16 37.5t14 33.5q-66 13 -106.5 64t-40.5 124q0 82 32 128t84.5 65.5
t113.5 19.5q20 0 47.5 -1t56 -3t53 -4t39.5 -3l15 -1v-53l-66 -10q0 1 8.5 -20.5t17 -53t8.5 -61.5q0 -57 -25 -101.5t-72 -70t-113 -25.5q-3 -16 -7 -37.5t-4 -25.5q0 -2 6.5 -5.5t26 -11t57.5 -24.5q58 -24 89 -47t43 -45t12 -44q0 -40 -27.5 -68.5t-76 -43.5t-112.5 -15z
M251 260q45 0 72.5 11t40 38.5t12.5 77.5q0 57 -7 91.5t-13 37.5q-2 2 -17 3.5t-33 2t-31.5 1l-13.5 0.5q-47 0 -76.5 -11t-43 -40t-13.5 -85q0 -74 28.5 -100.5t94.5 -26.5zM268 657q-37 0 -70.5 14.5t-55 46t-23.5 82.5l57 6q4 -46 29 -64t63 -18t63 18t29 64l57 -6
q-2 -51 -24 -82.5t-55 -46t-70 -14.5z" />
    <glyph glyph-name="gcaron" unicode="&#x1e7;" horiz-adv-x="521" 
d="M253 -179q-40 0 -75 4t-61 9.5t-41 9.5l-15 4l10 75q56 -10 115 -17.5t114 -7.5q56 0 75 9t19 28q0 11 -5 20t-18 18.5t-38 21.5t-66 29q-57 24 -82.5 34.5t-32 14t-6.5 6.5q0 1 5 13.5t13 30.5t16 37.5t14 33.5q-66 13 -106.5 64t-40.5 124q0 82 32 128t84.5 65.5
t113.5 19.5q20 0 47.5 -1t56 -3t53 -4t39.5 -3l15 -1v-53l-66 -10q0 1 8.5 -20.5t17 -53t8.5 -61.5q0 -57 -25 -101.5t-72 -70t-113 -25.5q-3 -16 -7 -37.5t-4 -25.5q0 -2 6.5 -5.5t26 -11t57.5 -24.5q58 -24 89 -47t43 -45t12 -44q0 -40 -27.5 -68.5t-76 -43.5t-112.5 -15z
M251 260q45 0 72.5 11t40 38.5t12.5 77.5q0 57 -7 91.5t-13 37.5q-2 2 -17 3.5t-33 2t-31.5 1l-13.5 0.5q-47 0 -76.5 -11t-43 -40t-13.5 -85q0 -74 28.5 -100.5t94.5 -26.5zM242 663l-121 109l29 34l114 -71h7l114 71l29 -34l-121 -109h-51z" />
    <glyph glyph-name="uni0123" unicode="&#x123;" horiz-adv-x="521" 
d="M203 827q23 -8 45.5 -24t38 -47t18.5 -87l1 -20h-78v25q0 52 -8.5 74t-38.5 38zM253 -179q-40 0 -75 4t-61 9.5t-41 9.5l-15 4l10 75q56 -10 115 -17.5t114 -7.5q56 0 75 9t19 28q0 11 -5 20t-18 18.5t-38 21.5t-66 29q-57 24 -82.5 34.5t-32 14t-6.5 6.5q0 1 5 13.5
t13 30.5t16 37.5t14 33.5q-66 13 -106.5 64t-40.5 124q0 82 32 128t84.5 65.5t113.5 19.5q20 0 47.5 -1t56 -3t53 -4t39.5 -3l15 -1v-53l-66 -10q0 1 8.5 -20.5t17 -53t8.5 -61.5q0 -57 -25 -101.5t-72 -70t-113 -25.5q-3 -16 -7 -37.5t-4 -25.5q0 -2 6.5 -5.5t26 -11
t57.5 -24.5q58 -24 89 -47t43 -45t12 -44q0 -40 -27.5 -68.5t-76 -43.5t-112.5 -15zM251 260q45 0 72.5 11t40 38.5t12.5 77.5q0 57 -7 91.5t-13 37.5q-2 2 -17 3.5t-33 2t-31.5 1l-13.5 0.5q-47 0 -76.5 -11t-43 -40t-13.5 -85q0 -74 28.5 -100.5t94.5 -26.5z" />
    <glyph glyph-name="gdotaccent" unicode="&#x121;" horiz-adv-x="521" 
d="M253 -179q-40 0 -75 4t-61 9.5t-41 9.5l-15 4l10 75q56 -10 115 -17.5t114 -7.5q56 0 75 9t19 28q0 11 -5 20t-18 18.5t-38 21.5t-66 29q-57 24 -82.5 34.5t-32 14t-6.5 6.5q0 1 5 13.5t13 30.5t16 37.5t14 33.5q-66 13 -106.5 64t-40.5 124q0 82 32 128t84.5 65.5
t113.5 19.5q20 0 47.5 -1t56 -3t53 -4t39.5 -3l15 -1v-53l-66 -10q0 1 8.5 -20.5t17 -53t8.5 -61.5q0 -57 -25 -101.5t-72 -70t-113 -25.5q-3 -16 -7 -37.5t-4 -25.5q0 -2 6.5 -5.5t26 -11t57.5 -24.5q58 -24 89 -47t43 -45t12 -44q0 -40 -27.5 -68.5t-76 -43.5t-112.5 -15z
M251 260q45 0 72.5 11t40 38.5t12.5 77.5q0 57 -7 91.5t-13 37.5q-2 2 -17 3.5t-33 2t-31.5 1l-13.5 0.5q-47 0 -76.5 -11t-43 -40t-13.5 -85q0 -74 28.5 -100.5t94.5 -26.5zM217 681v85h102v-85h-102z" />
    <glyph glyph-name="uni01D0" unicode="&#x1d0;" 
d="M121 663l-111 109l29 34l104 -71h7l104 71l29 -34l-111 -109h-51zM106 0v582h83v-582h-83z" />
    <glyph glyph-name="i.loclTRK" 
d="M106 0v582h83v-582h-83zM97 681v85h102v-85h-102z" />
    <glyph glyph-name="uni1ECB" unicode="&#x1ecb;" 
d="M106 0v582h83v-582h-83zM97 681v85h102v-85h-102zM97 -166v85h102v-85h-102z" />
    <glyph glyph-name="uni1EC9" unicode="&#x1ec9;" 
d="M106 0v582h83v-582h-83zM85 799v54q2 2 20 3t31 1q47 0 69 -21.5t22 -52.5q0 -22 -8.5 -40.5t-27 -35.5t-48.5 -36l-33 29q32 29 44.5 44.5t12.5 29.5q0 25 -27 25h-55z" />
    <glyph glyph-name="imacron" unicode="&#x12b;" 
d="M7 690v65h281v-65h-281zM106 0v582h83v-582h-83z" />
    <glyph glyph-name="iogonek" unicode="&#x12f;" 
d="M106 0v582h83v-582h-83zM97 681v85h102v-85h-102zM126 -179q-43 0 -72.5 17.5t-29.5 58.5q0 28 19.5 52.5t48 43t53.5 28.5l42 -21q-40 -16 -68 -41.5t-28 -44.5q0 -18 12.5 -24t33.5 -6q16 0 33 2l17 2v-59l-17.5 -4t-43.5 -4z" />
    <glyph glyph-name="lacute" unicode="&#x13a;" 
d="M53 806l-18 51l225 82l28 -73zM106 0v753h83v-753h-83z" />
    <glyph glyph-name="lcaron" unicode="&#x13e;" horiz-adv-x="310" 
d="M107 0v753h83v-753h-83zM271 554l-15 199h86l-18 -199h-53z" />
    <glyph glyph-name="uni013C" unicode="&#x13c;" 
d="M106 0v753h83v-753h-83zM86 -233l-22 41q30 16 38.5 38t8.5 74v25h78l-1 -20q-3 -55 -18.5 -86.5t-38 -47t-45.5 -24.5z" />
    <glyph glyph-name="ncaron" unicode="&#x148;" horiz-adv-x="601" 
d="M101 0v582h56l9 -57h5q9 5 30 16.5t50 24t62 21t66 8.5q55 0 84 -27.5t39.5 -74.5t10.5 -106v-387h-83v358q0 59 -2 90t-13 47q-8 13 -23 17t-32 4q-36 0 -73.5 -11.5t-65.5 -24t-37 -17.5v-463h-83zM286 663l-121 109l29 34l114 -71h7l114 71l29 -34l-121 -109h-51z" />
    <glyph glyph-name="uni0146" unicode="&#x146;" horiz-adv-x="601" 
d="M101 0v582h56l9 -57h5q9 5 30 16.5t50 24t62 21t66 8.5q55 0 84 -27.5t39.5 -74.5t10.5 -106v-387h-83v358q0 59 -2 90t-13 47q-8 13 -23 17t-32 4q-36 0 -73.5 -11.5t-65.5 -24t-37 -17.5v-463h-83zM251 -233l-22 41q30 16 38.5 38t8.5 74v25h78l-1 -20
q-3 -55 -18.5 -86.5t-38 -47t-45.5 -24.5z" />
    <glyph glyph-name="uni1E45" unicode="&#x1e45;" horiz-adv-x="601" 
d="M101 0v582h56l9 -57h5q9 5 30 16.5t50 24t62 21t66 8.5q55 0 84 -27.5t39.5 -74.5t10.5 -106v-387h-83v358q0 59 -2 90t-13 47q-8 13 -23 17t-32 4q-36 0 -73.5 -11.5t-65.5 -24t-37 -17.5v-463h-83zM260 681v85h102v-85h-102z" />
    <glyph glyph-name="eng" unicode="&#x14b;" horiz-adv-x="601" 
d="M101 0v582h56l9 -57h5q9 5 30 16.5t50 24t62 21t66 8.5q55 0 84 -27.5t39.5 -74.5t10.5 -106v-293q0 -87 -22.5 -137.5t-59.5 -72.5t-83 -22q-10 0 -23.5 1t-32.5 5l10 72q14 -2 30 -3.5t36 -1.5q18 0 32 6.5t22 29.5t8 71v316q0 59 -2 90t-13 47q-8 13 -23 17t-32 4
q-36 0 -73.5 -11.5t-65.5 -24t-37 -17.5v-463h-83z" />
    <glyph glyph-name="uni01D2" unicode="&#x1d2;" horiz-adv-x="576" 
d="M288 -13q-83 0 -130.5 37t-67.5 105t-20 162t20 162t67.5 105t130.5 37t130.5 -37t67.5 -105t20 -162t-20 -162t-67.5 -105t-130.5 -37zM288 59q38 0 63.5 9t41 33t22 70t6.5 120t-6.5 120t-22 70.5t-41 33t-63.5 8.5t-63.5 -8.5t-41 -33t-22.5 -70.5t-7 -120t7 -120
t22.5 -70t41 -33t63.5 -9zM262 663l-121 109l29 34l114 -71h7l114 71l29 -34l-121 -109h-51z" />
    <glyph glyph-name="uni1ED1" unicode="&#x1ed1;" horiz-adv-x="576" 
d="M288 -13q-83 0 -130.5 37t-67.5 105t-20 162t20 162t67.5 105t130.5 37t130.5 -37t67.5 -105t20 -162t-20 -162t-67.5 -105t-130.5 -37zM288 59q38 0 63.5 9t41 33t22 70t6.5 120t-6.5 120t-22 70.5t-41 33t-63.5 8.5t-63.5 -8.5t-41 -33t-22.5 -70.5t-7 -120t7 -120
t22.5 -70t41 -33t63.5 -9zM170 659l-29 34l121 109h51l121 -109l-29 -34l-114 71h-7zM181 832l-20 50l184 84l30 -67z" />
    <glyph glyph-name="uni1ED9" unicode="&#x1ed9;" horiz-adv-x="576" 
d="M288 -13q-83 0 -130.5 37t-67.5 105t-20 162t20 162t67.5 105t130.5 37t130.5 -37t67.5 -105t20 -162t-20 -162t-67.5 -105t-130.5 -37zM288 59q38 0 63.5 9t41 33t22 70t6.5 120t-6.5 120t-22 70.5t-41 33t-63.5 8.5t-63.5 -8.5t-41 -33t-22.5 -70.5t-7 -120t7 -120
t22.5 -70t41 -33t63.5 -9zM237 -166v85h102v-85h-102zM170 659l-29 34l121 109h51l121 -109l-29 -34l-114 71h-7z" />
    <glyph glyph-name="uni1ED3" unicode="&#x1ed3;" horiz-adv-x="576" 
d="M288 -13q-83 0 -130.5 37t-67.5 105t-20 162t20 162t67.5 105t130.5 37t130.5 -37t67.5 -105t20 -162t-20 -162t-67.5 -105t-130.5 -37zM288 59q38 0 63.5 9t41 33t22 70t6.5 120t-6.5 120t-22 70.5t-41 33t-63.5 8.5t-63.5 -8.5t-41 -33t-22.5 -70.5t-7 -120t7 -120
t22.5 -70t41 -33t63.5 -9zM170 659l-29 34l121 109h51l121 -109l-29 -34l-114 71h-7zM356 832l-194 67l30 67l184 -84z" />
    <glyph glyph-name="uni1ED5" unicode="&#x1ed5;" horiz-adv-x="576" 
d="M288 -13q-83 0 -130.5 37t-67.5 105t-20 162t20 162t67.5 105t130.5 37t130.5 -37t67.5 -105t20 -162t-20 -162t-67.5 -105t-130.5 -37zM288 59q38 0 63.5 9t41 33t22 70t6.5 120t-6.5 120t-22 70.5t-41 33t-63.5 8.5t-63.5 -8.5t-41 -33t-22.5 -70.5t-7 -120t7 -120
t22.5 -70t41 -33t63.5 -9zM170 659l-29 34l121 109h51l121 -109l-29 -34l-114 71h-7zM347 889v54q2 2 20 3t31 1q47 0 69 -21.5t22 -52.5q0 -22 -8.5 -40.5t-27 -35.5t-48.5 -36l-33 29q32 29 44.5 44.5t12.5 29.5q0 25 -27 25h-55z" />
    <glyph glyph-name="uni1ED7" unicode="&#x1ed7;" horiz-adv-x="576" 
d="M288 -13q-83 0 -130.5 37t-67.5 105t-20 162t20 162t67.5 105t130.5 37t130.5 -37t67.5 -105t20 -162t-20 -162t-67.5 -105t-130.5 -37zM288 59q38 0 63.5 9t41 33t22 70t6.5 120t-6.5 120t-22 70.5t-41 33t-63.5 8.5t-63.5 -8.5t-41 -33t-22.5 -70.5t-7 -120t7 -120
t22.5 -70t41 -33t63.5 -9zM170 659l-29 34l121 109h51l121 -109l-29 -34l-114 71h-7zM369 853q-16 0 -39.5 7.5t-47.5 17.5t-42.5 17.5t-25.5 7.5q-6 0 -12.5 -11.5t-10.5 -23l-4 -11.5l-52 6q0 57 19.5 79t53.5 22q17 0 39.5 -7t45.5 -16.5t41.5 -17t25.5 -7.5t13 11
t10.5 22.5l4.5 11.5l53 -7q0 -56 -18.5 -78.5t-53.5 -22.5z" />
    <glyph glyph-name="uni1ECD" unicode="&#x1ecd;" horiz-adv-x="576" 
d="M288 -13q-83 0 -130.5 37t-67.5 105t-20 162t20 162t67.5 105t130.5 37t130.5 -37t67.5 -105t20 -162t-20 -162t-67.5 -105t-130.5 -37zM288 59q38 0 63.5 9t41 33t22 70t6.5 120t-6.5 120t-22 70.5t-41 33t-63.5 8.5t-63.5 -8.5t-41 -33t-22.5 -70.5t-7 -120t7 -120
t22.5 -70t41 -33t63.5 -9zM237 -166v85h102v-85h-102z" />
    <glyph glyph-name="uni1ECF" unicode="&#x1ecf;" horiz-adv-x="576" 
d="M288 -13q-83 0 -130.5 37t-67.5 105t-20 162t20 162t67.5 105t130.5 37t130.5 -37t67.5 -105t20 -162t-20 -162t-67.5 -105t-130.5 -37zM288 59q38 0 63.5 9t41 33t22 70t6.5 120t-6.5 120t-22 70.5t-41 33t-63.5 8.5t-63.5 -8.5t-41 -33t-22.5 -70.5t-7 -120t7 -120
t22.5 -70t41 -33t63.5 -9zM239 799v54q2 2 20 3t31 1q47 0 69 -21.5t22 -52.5q0 -22 -8.5 -40.5t-27 -35.5t-48.5 -36l-33 29q32 29 44.5 44.5t12.5 29.5q0 25 -27 25h-55z" />
    <glyph glyph-name="ohorn" unicode="&#x1a1;" horiz-adv-x="576" 
d="M288 -13q-83 0 -130.5 37t-67.5 105t-20 162t20 162t67.5 105t130.5 37t130.5 -37t67.5 -105t20 -162t-20 -162t-67.5 -105t-130.5 -37zM288 59q38 0 63.5 9t41 33t22 70t6.5 120t-6.5 120t-22 70.5t-41 33t-63.5 8.5t-63.5 -8.5t-41 -33t-22.5 -70.5t-7 -120t7 -120
t22.5 -70t41 -33t63.5 -9zM338 588h86q15 0 26 7t11 24q0 11 -3 30t-7 40t-8 37h73q5 -19 10 -44t5 -49q0 -33 -15.5 -56t-42 -35t-59.5 -12h-63z" />
    <glyph glyph-name="uni1EDB" unicode="&#x1edb;" horiz-adv-x="576" 
d="M288 -13q-83 0 -130.5 37t-67.5 105t-20 162t20 162t67.5 105t130.5 37t130.5 -37t67.5 -105t20 -162t-20 -162t-67.5 -105t-130.5 -37zM288 59q38 0 63.5 9t41 33t22 70t6.5 120t-6.5 120t-22 70.5t-41 33t-63.5 8.5t-63.5 -8.5t-41 -33t-22.5 -70.5t-7 -120t7 -120
t22.5 -70t41 -33t63.5 -9zM338 588h86q15 0 26 7t11 24q0 11 -3 30t-7 40t-8 37h73q5 -19 10 -44t5 -49q0 -33 -15.5 -56t-42 -35t-59.5 -12h-63zM181 654l-20 50l184 84l30 -67z" />
    <glyph glyph-name="uni1EE3" unicode="&#x1ee3;" horiz-adv-x="576" 
d="M288 -13q-83 0 -130.5 37t-67.5 105t-20 162t20 162t67.5 105t130.5 37t130.5 -37t67.5 -105t20 -162t-20 -162t-67.5 -105t-130.5 -37zM288 59q38 0 63.5 9t41 33t22 70t6.5 120t-6.5 120t-22 70.5t-41 33t-63.5 8.5t-63.5 -8.5t-41 -33t-22.5 -70.5t-7 -120t7 -120
t22.5 -70t41 -33t63.5 -9zM338 588h86q15 0 26 7t11 24q0 11 -3 30t-7 40t-8 37h73q5 -19 10 -44t5 -49q0 -33 -15.5 -56t-42 -35t-59.5 -12h-63zM237 -166v85h102v-85h-102z" />
    <glyph glyph-name="uni1EDD" unicode="&#x1edd;" horiz-adv-x="576" 
d="M288 -13q-83 0 -130.5 37t-67.5 105t-20 162t20 162t67.5 105t130.5 37t130.5 -37t67.5 -105t20 -162t-20 -162t-67.5 -105t-130.5 -37zM288 59q38 0 63.5 9t41 33t22 70t6.5 120t-6.5 120t-22 70.5t-41 33t-63.5 8.5t-63.5 -8.5t-41 -33t-22.5 -70.5t-7 -120t7 -120
t22.5 -70t41 -33t63.5 -9zM338 588h86q15 0 26 7t11 24q0 11 -3 30t-7 40t-8 37h73q5 -19 10 -44t5 -49q0 -33 -15.5 -56t-42 -35t-59.5 -12h-63zM356 654l-194 67l30 67l184 -84z" />
    <glyph glyph-name="uni1EDF" unicode="&#x1edf;" horiz-adv-x="576" 
d="M288 -13q-83 0 -130.5 37t-67.5 105t-20 162t20 162t67.5 105t130.5 37t130.5 -37t67.5 -105t20 -162t-20 -162t-67.5 -105t-130.5 -37zM288 59q38 0 63.5 9t41 33t22 70t6.5 120t-6.5 120t-22 70.5t-41 33t-63.5 8.5t-63.5 -8.5t-41 -33t-22.5 -70.5t-7 -120t7 -120
t22.5 -70t41 -33t63.5 -9zM338 588h86q15 0 26 7t11 24q0 11 -3 30t-7 40t-8 37h73q5 -19 10 -44t5 -49q0 -33 -15.5 -56t-42 -35t-59.5 -12h-63zM201 799v54q2 2 20 3t31 1q47 0 69 -21.5t22 -52.5q0 -22 -8.5 -40.5t-27 -35.5t-48.5 -36l-33 29q32 29 44.5 44.5t12.5 29.5
q0 25 -27 25h-55z" />
    <glyph glyph-name="uni1EE1" unicode="&#x1ee1;" horiz-adv-x="576" 
d="M288 -13q-83 0 -130.5 37t-67.5 105t-20 162t20 162t67.5 105t130.5 37t130.5 -37t67.5 -105t20 -162t-20 -162t-67.5 -105t-130.5 -37zM288 59q38 0 63.5 9t41 33t22 70t6.5 120t-6.5 120t-22 70.5t-41 33t-63.5 8.5t-63.5 -8.5t-41 -33t-22.5 -70.5t-7 -120t7 -120
t22.5 -70t41 -33t63.5 -9zM338 588h86q15 0 26 7t11 24q0 11 -3 30t-7 40t-8 37h73q5 -19 10 -44t5 -49q0 -33 -15.5 -56t-42 -35t-59.5 -12h-63zM334 677q-15 0 -30.5 7.5t-30 17t-27 16.5t-21.5 7t-13.5 -11.5t-6.5 -23l-2 -11.5l-52 6q0 57 22 79t50 22q15 0 30 -7
t29 -16.5t26 -17t21 -7.5q10 0 18 11t12.5 22.5l4.5 11.5l53 -7q0 -37 -13 -59t-32.5 -31t-37.5 -9z" />
    <glyph glyph-name="ohungarumlaut" unicode="&#x151;" horiz-adv-x="576" 
d="M288 -13q-83 0 -130.5 37t-67.5 105t-20 162t20 162t67.5 105t130.5 37t130.5 -37t67.5 -105t20 -162t-20 -162t-67.5 -105t-130.5 -37zM288 59q38 0 63.5 9t41 33t22 70t6.5 120t-6.5 120t-22 70.5t-41 33t-63.5 8.5t-63.5 -8.5t-41 -33t-22.5 -70.5t-7 -120t7 -120
t22.5 -70t41 -33t63.5 -9zM148 649l-33 40l153 131l45 -59zM335 649l-32 40l160 131l45 -59z" />
    <glyph glyph-name="omacron" unicode="&#x14d;" horiz-adv-x="576" 
d="M288 -13q-83 0 -130.5 37t-67.5 105t-20 162t20 162t67.5 105t130.5 37t130.5 -37t67.5 -105t20 -162t-20 -162t-67.5 -105t-130.5 -37zM288 59q38 0 63.5 9t41 33t22 70t6.5 120t-6.5 120t-22 70.5t-41 33t-63.5 8.5t-63.5 -8.5t-41 -33t-22.5 -70.5t-7 -120t7 -120
t22.5 -70t41 -33t63.5 -9zM128 690v65h320v-65h-320z" />
    <glyph glyph-name="racute" unicode="&#x155;" horiz-adv-x="395" 
d="M101 0v582h53l11 -59h6l15.5 11t40.5 25t53.5 25t53.5 11q15 0 28 -2.5l13 -2.5l-7 -80l-13 1t-24 1q-28 0 -56.5 -8t-52.5 -20t-38 -23v-461h-83zM131 654l-20 50l184 84l30 -67z" />
    <glyph glyph-name="sacute" unicode="&#x15b;" horiz-adv-x="492" 
d="M245 -13q-37 0 -71 7.5t-61 17t-42.5 16.5l-15.5 7l21 71l15.5 -7t41.5 -16.5t59 -16.5t68 -7q20 0 37 3.5t27 12.5q11 10 20 30t9 48q0 42 -20 64t-52 34t-68 22q-29 8 -57 18t-50.5 27t-36 45.5t-13.5 73.5q0 71 43.5 114.5t146.5 43.5q35 0 67 -4.5t56.5 -10
t36.5 -9.5l-13 -70l-13.5 3.5t-36.5 7.5t-52 7.5t-61 3.5q-30 0 -48 -3.5t-27 -10.5t-15 -22.5t-6 -36.5q0 -42 23.5 -63t60 -32t75.5 -23q27 -8 52 -19t45.5 -29t32 -46t11.5 -69q0 -81 -48.5 -131.5t-140.5 -50.5zM144 654l-20 50l184 84l30 -67z" />
    <glyph glyph-name="scaron" unicode="&#x161;" horiz-adv-x="492" 
d="M245 -13q-37 0 -71 7.5t-61 17t-42.5 16.5l-15.5 7l21 71l15.5 -7t41.5 -16.5t59 -16.5t68 -7q20 0 37 3.5t27 12.5q11 10 20 30t9 48q0 42 -20 64t-52 34t-68 22q-29 8 -57 18t-50.5 27t-36 45.5t-13.5 73.5q0 71 43.5 114.5t146.5 43.5q35 0 67 -4.5t56.5 -10
t36.5 -9.5l-13 -70l-13.5 3.5t-36.5 7.5t-52 7.5t-61 3.5q-30 0 -48 -3.5t-27 -10.5t-15 -22.5t-6 -36.5q0 -42 23.5 -63t60 -32t75.5 -23q27 -8 52 -19t45.5 -29t32 -46t11.5 -69q0 -81 -48.5 -131.5t-140.5 -50.5zM225 663l-121 109l29 34l114 -71h7l114 71l29 -34
l-121 -109h-51z" />
    <glyph glyph-name="scedilla" unicode="&#x15f;" horiz-adv-x="492" 
d="M245 -13q-37 0 -71 7.5t-61 17t-42.5 16.5l-15.5 7l21 71l15.5 -7t41.5 -16.5t59 -16.5t68 -7q20 0 37 3.5t27 12.5q11 10 20 30t9 48q0 42 -20 64t-52 34t-68 22q-29 8 -57 18t-50.5 27t-36 45.5t-13.5 73.5q0 71 43.5 114.5t146.5 43.5q35 0 67 -4.5t56.5 -10
t36.5 -9.5l-13 -70l-13.5 3.5t-36.5 7.5t-52 7.5t-61 3.5q-30 0 -48 -3.5t-27 -10.5t-15 -22.5t-6 -36.5q0 -42 23.5 -63t60 -32t75.5 -23q27 -8 52 -19t45.5 -29t32 -46t11.5 -69q0 -81 -48.5 -131.5t-140.5 -50.5zM228 -179q-27 0 -50 4.5l-23 4.5v62l12 -1t27 -2.5
t25 -1.5q30 0 42 5.5t12 25.5q0 26 -5 50t-9 38l59 4q4 -9 8 -24t7.5 -32t3.5 -33q0 -46 -31 -73t-78 -27z" />
    <glyph glyph-name="uni0219" unicode="&#x219;" horiz-adv-x="492" 
d="M245 -13q-37 0 -71 7.5t-61 17t-42.5 16.5l-15.5 7l21 71l15.5 -7t41.5 -16.5t59 -16.5t68 -7q20 0 37 3.5t27 12.5q11 10 20 30t9 48q0 42 -20 64t-52 34t-68 22q-29 8 -57 18t-50.5 27t-36 45.5t-13.5 73.5q0 71 43.5 114.5t146.5 43.5q35 0 67 -4.5t56.5 -10
t36.5 -9.5l-13 -70l-13.5 3.5t-36.5 7.5t-52 7.5t-61 3.5q-30 0 -48 -3.5t-27 -10.5t-15 -22.5t-6 -36.5q0 -42 23.5 -63t60 -32t75.5 -23q27 -8 52 -19t45.5 -29t32 -46t11.5 -69q0 -81 -48.5 -131.5t-140.5 -50.5zM183 -233l-22 41q30 16 38.5 38t8.5 74v25h78l-1 -20
q-3 -55 -18.5 -86.5t-38 -47t-45.5 -24.5z" />
    <glyph glyph-name="tbar" unicode="&#x167;" horiz-adv-x="364" 
d="M45 317h265v-64l-156 3l-109 -2v63zM253 -14q-43 0 -75 14.5t-49.5 56t-17.5 123.5v303h-66v52l69 14l22 136h58v-137h116v-67h-116v-307q0 -55 3 -80t15.5 -31.5t42.5 -6.5q16 0 28 0.5t19 1l7 0.5v-67l-15 -2.5t-41 -2.5z" />
    <glyph glyph-name="tcaron" unicode="&#x165;" horiz-adv-x="382" 
d="M253 -14q-43 0 -75 14.5t-49.5 56t-17.5 123.5v303h-66v52l69 14l22 136h58v-137h116v-67h-116v-307q0 -55 3 -80t15.5 -31.5t42.5 -6.5q16 0 28 0.5t19 1l7 0.5v-67l-15 -2.5t-41 -2.5zM343 554l-15 199h86l-18 -199h-53z" />
    <glyph glyph-name="uni0163" unicode="&#x163;" horiz-adv-x="364" 
d="M253 -14q-43 0 -75 14.5t-49.5 56t-17.5 123.5v303h-66v52l69 14l22 136h58v-137h116v-67h-116v-307q0 -55 3 -80t15.5 -31.5t42.5 -6.5q16 0 28 0.5t19 1l7 0.5v-67l-15 -2.5t-41 -2.5zM169 -179q-27 0 -50 4.5l-23 4.5v62l12 -1t27 -2.5t25 -1.5q30 0 42 5.5t12 25.5
q0 26 -5 50t-9 38l59 4q4 -9 8 -24t7.5 -32t3.5 -33q0 -46 -31 -73t-78 -27z" />
    <glyph glyph-name="uni021B" unicode="&#x21b;" horiz-adv-x="364" 
d="M253 -14q-43 0 -75 14.5t-49.5 56t-17.5 123.5v303h-66v52l69 14l22 136h58v-137h116v-67h-116v-307q0 -55 3 -80t15.5 -31.5t42.5 -6.5q16 0 28 0.5t19 1l7 0.5v-67l-15 -2.5t-41 -2.5zM137 -233l-22 41q30 16 38.5 38t8.5 74v25h78l-1 -20q-3 -55 -18.5 -86.5t-38 -47
t-45.5 -24.5z" />
    <glyph glyph-name="uni01D4" unicode="&#x1d4;" horiz-adv-x="600" 
d="M234 -13q-40 0 -73.5 19.5t-53 64.5t-19.5 124v387h83v-356q0 -55 3 -90t11 -49q7 -11 22.5 -16t35.5 -5q45 0 89.5 17.5t83.5 35.5v463h83v-582h-56l-10 56h-6q-15 -8 -45 -24.5t-68 -30.5t-80 -14zM274 663l-121 109l29 34l114 -71h7l114 71l29 -34l-121 -109h-51z" />
    <glyph glyph-name="uni01D8" unicode="&#x1d8;" horiz-adv-x="600" 
d="M234 -13q-40 0 -73.5 19.5t-53 64.5t-19.5 124v387h83v-356q0 -55 3 -90t11 -49q7 -11 22.5 -16t35.5 -5q45 0 89.5 17.5t83.5 35.5v463h83v-582h-56l-10 56h-6q-15 -8 -45 -24.5t-68 -30.5t-80 -14zM157 684v82h99v-82h-99zM344 684v82h98v-82h-98zM215 832l-20 50
l184 84l30 -67z" />
    <glyph glyph-name="uni01DA" unicode="&#x1da;" horiz-adv-x="600" 
d="M234 -13q-40 0 -73.5 19.5t-53 64.5t-19.5 124v387h83v-356q0 -55 3 -90t11 -49q7 -11 22.5 -16t35.5 -5q45 0 89.5 17.5t83.5 35.5v463h83v-582h-56l-10 56h-6q-15 -8 -45 -24.5t-68 -30.5t-80 -14zM157 684v82h99v-82h-99zM344 684v82h98v-82h-98zM274 841l-121 109
l29 34l114 -71h7l114 71l29 -34l-121 -109h-51z" />
    <glyph glyph-name="uni01DC" unicode="&#x1dc;" horiz-adv-x="600" 
d="M234 -13q-40 0 -73.5 19.5t-53 64.5t-19.5 124v387h83v-356q0 -55 3 -90t11 -49q7 -11 22.5 -16t35.5 -5q45 0 89.5 17.5t83.5 35.5v463h83v-582h-56l-10 56h-6q-15 -8 -45 -24.5t-68 -30.5t-80 -14zM157 684v82h99v-82h-99zM344 684v82h98v-82h-98zM368 832l-194 67
l30 67l184 -84z" />
    <glyph glyph-name="uni01D6" unicode="&#x1d6;" horiz-adv-x="600" 
d="M234 -13q-40 0 -73.5 19.5t-53 64.5t-19.5 124v387h83v-356q0 -55 3 -90t11 -49q7 -11 22.5 -16t35.5 -5q45 0 89.5 17.5t83.5 35.5v463h83v-582h-56l-10 56h-6q-15 -8 -45 -24.5t-68 -30.5t-80 -14zM157 684v82h99v-82h-99zM344 684v82h98v-82h-98zM140 868v65h320v-65
h-320z" />
    <glyph glyph-name="uni1EE5" unicode="&#x1ee5;" horiz-adv-x="600" 
d="M234 -13q-40 0 -73.5 19.5t-53 64.5t-19.5 124v387h83v-356q0 -55 3 -90t11 -49q7 -11 22.5 -16t35.5 -5q45 0 89.5 17.5t83.5 35.5v463h83v-582h-56l-10 56h-6q-15 -8 -45 -24.5t-68 -30.5t-80 -14zM249 -166v85h102v-85h-102z" />
    <glyph glyph-name="uni1EE7" unicode="&#x1ee7;" horiz-adv-x="600" 
d="M234 -13q-40 0 -73.5 19.5t-53 64.5t-19.5 124v387h83v-356q0 -55 3 -90t11 -49q7 -11 22.5 -16t35.5 -5q45 0 89.5 17.5t83.5 35.5v463h83v-582h-56l-10 56h-6q-15 -8 -45 -24.5t-68 -30.5t-80 -14zM244 799v54q2 2 20 3t31 1q47 0 69 -21.5t22 -52.5q0 -22 -8.5 -40.5
t-27 -35.5t-48.5 -36l-33 29q32 29 44.5 44.5t12.5 29.5q0 25 -27 25h-55z" />
    <glyph glyph-name="uhorn" unicode="&#x1b0;" horiz-adv-x="600" 
d="M234 -13q-40 0 -73.5 19.5t-53 64.5t-19.5 124v387h83v-356q0 -55 3 -90t11 -49q7 -11 22.5 -16t35.5 -5q45 0 89.5 17.5t83.5 35.5v463h83v-582h-56l-10 56h-6q-15 -8 -45 -24.5t-68 -30.5t-80 -14zM427 582h86q15 0 26 7t11 24q0 11 -3 30t-7 40t-8 37h73q5 -19 10 -44
t5 -49q0 -33 -15.5 -56t-42 -35t-59.5 -12h-63z" />
    <glyph glyph-name="uni1EE9" unicode="&#x1ee9;" horiz-adv-x="600" 
d="M234 -13q-40 0 -73.5 19.5t-53 64.5t-19.5 124v387h83v-356q0 -55 3 -90t11 -49q7 -11 22.5 -16t35.5 -5q45 0 89.5 17.5t83.5 35.5v463h83v-582h-56l-10 56h-6q-15 -8 -45 -24.5t-68 -30.5t-80 -14zM427 582h86q15 0 26 7t11 24q0 11 -3 30t-7 40t-8 37h73q5 -19 10 -44
t5 -49q0 -33 -15.5 -56t-42 -35t-59.5 -12h-63zM223 654l-20 50l184 84l30 -67z" />
    <glyph glyph-name="uni1EF1" unicode="&#x1ef1;" horiz-adv-x="600" 
d="M234 -13q-40 0 -73.5 19.5t-53 64.5t-19.5 124v387h83v-356q0 -55 3 -90t11 -49q7 -11 22.5 -16t35.5 -5q45 0 89.5 17.5t83.5 35.5v463h83v-582h-56l-10 56h-6q-15 -8 -45 -24.5t-68 -30.5t-80 -14zM427 582h86q15 0 26 7t11 24q0 11 -3 30t-7 40t-8 37h73q5 -19 10 -44
t5 -49q0 -33 -15.5 -56t-42 -35t-59.5 -12h-63zM254 -166v85h102v-85h-102z" />
    <glyph glyph-name="uni1EEB" unicode="&#x1eeb;" horiz-adv-x="600" 
d="M234 -13q-40 0 -73.5 19.5t-53 64.5t-19.5 124v387h83v-356q0 -55 3 -90t11 -49q7 -11 22.5 -16t35.5 -5q45 0 89.5 17.5t83.5 35.5v463h83v-582h-56l-10 56h-6q-15 -8 -45 -24.5t-68 -30.5t-80 -14zM427 582h86q15 0 26 7t11 24q0 11 -3 30t-7 40t-8 37h73q5 -19 10 -44
t5 -49q0 -33 -15.5 -56t-42 -35t-59.5 -12h-63zM368 654l-194 67l30 67l184 -84z" />
    <glyph glyph-name="uni1EED" unicode="&#x1eed;" horiz-adv-x="600" 
d="M234 -13q-40 0 -73.5 19.5t-53 64.5t-19.5 124v387h83v-356q0 -55 3 -90t11 -49q7 -11 22.5 -16t35.5 -5q45 0 89.5 17.5t83.5 35.5v463h83v-582h-56l-10 56h-6q-15 -8 -45 -24.5t-68 -30.5t-80 -14zM427 582h86q15 0 26 7t11 24q0 11 -3 30t-7 40t-8 37h73q5 -19 10 -44
t5 -49q0 -33 -15.5 -56t-42 -35t-59.5 -12h-63zM239 799v54q2 2 20 3t31 1q47 0 69 -21.5t22 -52.5q0 -22 -8.5 -40.5t-27 -35.5t-48.5 -36l-33 29q32 29 44.5 44.5t12.5 29.5q0 25 -27 25h-55z" />
    <glyph glyph-name="uni1EEF" unicode="&#x1eef;" horiz-adv-x="600" 
d="M234 -13q-40 0 -73.5 19.5t-53 64.5t-19.5 124v387h83v-356q0 -55 3 -90t11 -49q7 -11 22.5 -16t35.5 -5q45 0 89.5 17.5t83.5 35.5v463h83v-582h-56l-10 56h-6q-15 -8 -45 -24.5t-68 -30.5t-80 -14zM427 582h86q15 0 26 7t11 24q0 11 -3 30t-7 40t-8 37h73q5 -19 10 -44
t5 -49q0 -33 -15.5 -56t-42 -35t-59.5 -12h-63zM381 675q-16 0 -39.5 7.5t-47.5 17.5t-42.5 17.5t-25.5 7.5q-6 0 -12.5 -11.5t-10.5 -23l-4 -11.5l-52 6q0 57 19.5 79t53.5 22q17 0 39.5 -7t45.5 -16.5t41.5 -17t25.5 -7.5t13 11t10.5 22.5l4.5 11.5l53 -7
q0 -56 -18.5 -78.5t-53.5 -22.5z" />
    <glyph glyph-name="uhungarumlaut" unicode="&#x171;" horiz-adv-x="600" 
d="M234 -13q-40 0 -73.5 19.5t-53 64.5t-19.5 124v387h83v-356q0 -55 3 -90t11 -49q7 -11 22.5 -16t35.5 -5q45 0 89.5 17.5t83.5 35.5v463h83v-582h-56l-10 56h-6q-15 -8 -45 -24.5t-68 -30.5t-80 -14zM160 649l-33 40l153 131l45 -59zM347 649l-32 40l160 131l45 -59z" />
    <glyph glyph-name="umacron" unicode="&#x16b;" horiz-adv-x="600" 
d="M234 -13q-40 0 -73.5 19.5t-53 64.5t-19.5 124v387h83v-356q0 -55 3 -90t11 -49q7 -11 22.5 -16t35.5 -5q45 0 89.5 17.5t83.5 35.5v463h83v-582h-56l-10 56h-6q-15 -8 -45 -24.5t-68 -30.5t-80 -14zM140 690v65h320v-65h-320z" />
    <glyph glyph-name="uogonek" unicode="&#x173;" horiz-adv-x="600" 
d="M234 -13q-40 0 -73.5 19.5t-53 64.5t-19.5 124v387h83v-356q0 -55 3 -90t11 -49q7 -11 22.5 -16t35.5 -5q45 0 89.5 17.5t83.5 35.5v463h83v-582h-56l-10 56h-6q-15 -8 -45 -24.5t-68 -30.5t-80 -14zM438 -179q-43 0 -72.5 17.5t-29.5 58.5q0 28 19.5 52.5t48 43
t53.5 28.5l42 -21q-40 -16 -68 -41.5t-28 -44.5q0 -18 12.5 -24t33.5 -6q16 0 33 2l17 2v-59l-17.5 -4t-43.5 -4z" />
    <glyph glyph-name="uring" unicode="&#x16f;" horiz-adv-x="600" 
d="M234 -13q-40 0 -73.5 19.5t-53 64.5t-19.5 124v387h83v-356q0 -55 3 -90t11 -49q7 -11 22.5 -16t35.5 -5q45 0 89.5 17.5t83.5 35.5v463h83v-582h-56l-10 56h-6q-15 -8 -45 -24.5t-68 -30.5t-80 -14zM300 647q-21 0 -40 7.5t-31.5 25.5t-12.5 50q0 33 12.5 51t31.5 25.5
t40 7.5t40 -7.5t31.5 -25.5t12.5 -51q0 -32 -12.5 -50t-31.5 -25.5t-40 -7.5zM300 693q18 0 26 7t8 30q0 24 -8 31t-26 7t-27 -7t-9 -31q0 -23 9 -30t27 -7z" />
    <glyph glyph-name="utilde" unicode="&#x169;" horiz-adv-x="600" 
d="M234 -13q-40 0 -73.5 19.5t-53 64.5t-19.5 124v387h83v-356q0 -55 3 -90t11 -49q7 -11 22.5 -16t35.5 -5q45 0 89.5 17.5t83.5 35.5v463h83v-582h-56l-10 56h-6q-15 -8 -45 -24.5t-68 -30.5t-80 -14zM381 675q-16 0 -39.5 7.5t-47.5 17.5t-42.5 17.5t-25.5 7.5
q-6 0 -12.5 -11.5t-10.5 -23l-4 -11.5l-52 6q0 57 19.5 79t53.5 22q17 0 39.5 -7t45.5 -16.5t41.5 -17t25.5 -7.5t13 11t10.5 22.5l4.5 11.5l53 -7q0 -56 -18.5 -78.5t-53.5 -22.5z" />
    <glyph glyph-name="wacute" unicode="&#x1e83;" horiz-adv-x="727" 
d="M139 0l-115 582h85l88 -517h5l101 440h122l101 -440h5l88 517h85l-115 -582h-122l-100 440h-6l-100 -440h-122zM277 654l-20 50l184 84l30 -67z" />
    <glyph glyph-name="wcircumflex" unicode="&#x175;" horiz-adv-x="727" 
d="M139 0l-115 582h85l88 -517h5l101 440h122l101 -440h5l88 517h85l-115 -582h-122l-100 440h-6l-100 -440h-122zM246 659l-29 34l121 109h51l121 -109l-29 -34l-114 71h-7z" />
    <glyph glyph-name="wdieresis" unicode="&#x1e85;" horiz-adv-x="727" 
d="M139 0l-115 582h85l88 -517h5l101 440h122l101 -440h5l88 517h85l-115 -582h-122l-100 440h-6l-100 -440h-122zM221 684v82h99v-82h-99zM408 684v82h98v-82h-98z" />
    <glyph glyph-name="wgrave" unicode="&#x1e81;" horiz-adv-x="727" 
d="M139 0l-115 582h85l88 -517h5l101 440h122l101 -440h5l88 517h85l-115 -582h-122l-100 440h-6l-100 -440h-122zM412 654l-194 67l30 67l184 -84z" />
    <glyph glyph-name="ycircumflex" unicode="&#x177;" horiz-adv-x="479" 
d="M119 -166l78 227l-186 521h89l134 -425h4l134 425h89l-196 -545l-58 -203h-88zM122 659l-29 34l121 109h51l121 -109l-29 -34l-114 71h-7z" />
    <glyph glyph-name="uni1EF5" unicode="&#x1ef5;" horiz-adv-x="479" 
d="M119 -166l78 227l-186 521h89l134 -425h4l134 425h89l-196 -545l-58 -203h-88zM323 -166v85h102v-85h-102z" />
    <glyph glyph-name="ygrave" unicode="&#x1ef3;" horiz-adv-x="479" 
d="M119 -166l78 227l-186 521h89l134 -425h4l134 425h89l-196 -545l-58 -203h-88zM308 654l-194 67l30 67l184 -84z" />
    <glyph glyph-name="uni1EF7" unicode="&#x1ef7;" horiz-adv-x="479" 
d="M119 -166l78 227l-186 521h89l134 -425h4l134 425h89l-196 -545l-58 -203h-88zM167 748v54q2 2 20 3t31 1q47 0 69 -21.5t22 -52.5q0 -22 -8.5 -40.5t-27 -35.5t-48.5 -36l-33 29q32 29 44.5 44.5t12.5 29.5q0 25 -27 25h-55z" />
    <glyph glyph-name="uni1EF9" unicode="&#x1ef9;" horiz-adv-x="479" 
d="M119 -166l78 227l-186 521h89l134 -425h4l134 425h89l-196 -545l-58 -203h-88zM321 675q-16 0 -39.5 7.5t-47.5 17.5t-42.5 17.5t-25.5 7.5q-6 0 -12.5 -11.5t-10.5 -23l-4 -11.5l-52 6q0 57 19.5 79t53.5 22q17 0 39.5 -7t45.5 -16.5t41.5 -17t25.5 -7.5t13 11
t10.5 22.5l4.5 11.5l53 -7q0 -56 -18.5 -78.5t-53.5 -22.5z" />
    <glyph glyph-name="zacute" unicode="&#x17a;" horiz-adv-x="471" 
d="M34 0v67l299 445v5l-286 -4v69h382v-67l-298 -443v-7l304 4v-69h-401zM159 654l-20 50l184 84l30 -67z" />
    <glyph glyph-name="zcaron" unicode="&#x17e;" horiz-adv-x="471" 
d="M34 0v67l299 445v5l-286 -4v69h382v-67l-298 -443v-7l304 4v-69h-401zM216 663l-121 109l29 34l114 -71h7l114 71l29 -34l-121 -109h-51z" />
    <glyph glyph-name="zdotaccent" unicode="&#x17c;" horiz-adv-x="471" 
d="M34 0v67l299 445v5l-286 -4v69h382v-67l-298 -443v-7l304 4v-69h-401zM191 681v85h102v-85h-102z" />
    <glyph glyph-name="uni0410" unicode="&#x410;" horiz-adv-x="506" 
d="M5 0l189 695h118l189 -695h-86l-53 208l42 -24h-300l40 24l-53 -208h-86zM146 219l-28 39h270l-28 -39l-113 439l47 -37h-82l47 37z" />
    <glyph glyph-name="uni0411" unicode="&#x411;" horiz-adv-x="582" 
d="M105 1l4 372l2 322h311v-74h-232l2 -216q20 2 52.5 4t69.5 2q55 0 102 -19t76.5 -65.5t29.5 -129.5q0 -66 -24 -113t-74.5 -72t-130.5 -25q-40 0 -75.5 2t-64 5t-48.5 7zM320 337q-35 0 -71 -4t-56 -7l1 -257q20 -4 52.5 -7t68.5 -3q29 0 51.5 4.5t32.5 11.5
q11 8 22.5 31.5t11.5 78.5q0 41 -6 78.5t-23 54.5q-12 12 -32 15.5t-52 3.5z" />
    <glyph glyph-name="uni0412" unicode="&#x412;" horiz-adv-x="614" 
d="M323 -14q-37 0 -74.5 2.5t-68.5 6t-51 6t-23 3.5l4 319l-5 374q4 0 24 2t51 4.5t66.5 4t69.5 1.5q55 0 99 -17t70.5 -57.5t26.5 -111.5q0 -55 -16.5 -87t-39 -47.5t-41 -20.5t-21.5 -5l6 39v-79l-11 38q12 0 35.5 -5.5t47.5 -21.5t41 -47.5t17 -83.5q0 -65 -17.5 -107.5
t-47.5 -66.5t-66.5 -33.5t-75.5 -9.5zM334 51q65 0 86 36t21 111t-34.5 103t-94.5 28h-161l38 21l2 -326l-2 37q5 0 25 -2.5t51 -5t69 -2.5zM320 394q62 0 83.5 29.5t21.5 96.5q0 71 -26 99t-87 28q-35 0 -63 -2t-46 -4t-23 -3l9 39v-306l-38 24z" />
    <glyph glyph-name="uni0413" unicode="&#x413;" horiz-adv-x="464" 
d="M105 0h84l-5 663l-34 -42h266v74h-311v-695z" />
    <glyph glyph-name="uni0403" unicode="&#x403;" horiz-adv-x="508" 
d="M105 0h84l-5 663l-34 -42h266v74h-311v-695zM163 733l-18 51l225 82l28 -73z" />
    <glyph glyph-name="uni0490" unicode="&#x490;" horiz-adv-x="455" 
d="M105 0v695h225l15 112h71v-186l-232 1l5 -622h-84z" />
    <glyph glyph-name="uni0414" unicode="&#x414;" horiz-adv-x="665" 
d="M26 -104v178q13 0 25.5 1.5t25.5 8.5q15 8 25.5 26t17 50.5t9.5 81.5l30 453h379v-621h69v-178h-84l1 104h-415l1 -104h-84zM207 206q-4 -50 -11.5 -81t-20.5 -51h279l2 278l-2 269h-217z" />
    <glyph glyph-name="uni0415" unicode="&#x415;" horiz-adv-x="514" 
d="M105 0v695h341v-74l-295 3l39 38l-7 -298l-37 25h276v-71h-276l37 29l7 -313l-39 38l295 2v-74h-341z" />
    <glyph glyph-name="uni0401" unicode="&#x401;" horiz-adv-x="514" 
d="M105 0v695h341v-74l-295 3l39 38l-7 -298l-37 25h276v-71h-276l37 29l7 -313l-39 38l295 2v-74h-341zM133 762v82h99v-82h-99zM320 762v82h98v-82h-98z" />
    <glyph glyph-name="uni0416" unicode="&#x416;" horiz-adv-x="852" 
d="M10 0l283 346l-3 -20v41l2 -20l-260 348h97l253 -348l-266 -347h-106zM378 0l6 347l-6 348h84l-6 -348l6 -347h-84zM830 0h-106l-266 347l253 348h97l-260 -348l2 20v-41l-3 20z" />
    <glyph glyph-name="uni0417" unicode="&#x417;" horiz-adv-x="560" 
d="M255 -13q-38 0 -71.5 6t-61 15t-48 19t-33.5 18l30 63q15 -6 36 -14t46 -16t54 -13t61 -5q71 0 95 30.5t24 96.5q0 69 -29.5 100.5t-107.5 32.5l-138 1v70l144 1q44 1 68.5 12t35 40t10.5 80q0 28 -4.5 50t-15.5 32q-14 14 -44 20t-66 6q-22 0 -62 -5.5t-84 -14.5l-12 71
q23 8 53 13.5t61 8.5t55 3q68 0 113.5 -17.5t68.5 -56t23 -101.5q0 -75 -26 -119t-88 -55v-4q65 -8 99.5 -46t34.5 -115q0 -56 -20.5 -103t-69 -75.5t-131.5 -28.5z" />
    <glyph glyph-name="uni0418" unicode="&#x418;" horiz-adv-x="690" 
d="M105 0v695h84l-3 -366l2 -188l271 554h126v-695h-84l3 329l-2 287l-300 -616h-97z" />
    <glyph glyph-name="uni0419" unicode="&#x419;" horiz-adv-x="690" 
d="M105 0v695h84l-3 -366l2 -188l271 554h126v-695h-84l3 329l-2 287l-300 -616h-97zM334 724q-67 0 -109 35.5t-45 112.5l62 2q4 -33 23.5 -52.5t68.5 -19.5q57 0 77.5 19.5t24.5 52.5l52 -2q-2 -51 -22 -84t-53.5 -48.5t-78.5 -15.5z" />
    <glyph glyph-name="uni041A" unicode="&#x41a;" horiz-adv-x="577" 
d="M485 0l-293 357l268 338h106l-275 -331v-6l306 -358h-112zM105 0l3 353l-3 342h84v-695h-84z" />
    <glyph glyph-name="uni040C" unicode="&#x40c;" horiz-adv-x="577" 
d="M485 0l-293 357l268 338h106l-275 -331v-6l306 -358h-112zM105 0l3 353l-3 342h84v-695h-84zM254 733l-18 51l225 82l28 -73z" />
    <glyph glyph-name="uni041B" unicode="&#x41b;" horiz-adv-x="641" 
d="M42 -14l-16 68q13 2 25 4.5t20 5.5q20 7 30.5 20.5t16 45.5t9.5 94l30 471h379v-695h-84l5 621h-221l-27 -398q-4 -71 -14.5 -120.5t-37.5 -74.5q-22 -20 -53 -31t-62 -11z" />
    <glyph glyph-name="uni041C" unicode="&#x41c;" horiz-adv-x="814" 
d="M100 0l24 695h122l157 -453h7l158 453h122l24 -695h-84l-8 611h-7l-157 -448h-103l-156 448h-7l-8 -611h-84z" />
    <glyph glyph-name="uni041D" unicode="&#x41d;" horiz-adv-x="665" 
d="M105 0v695h84l-3 -332l-38 28h368l-38 -28l-2 332h84v-695h-84l2 345l38 -28h-368l38 28l3 -345h-84z" />
    <glyph glyph-name="uni041E" unicode="&#x41e;" horiz-adv-x="656" 
d="M328 -14q-52 0 -98.5 16t-82 55.5t-55.5 110.5t-20 181t20 180t55.5 109.5t82 55t98.5 15.5q53 0 99 -15.5t81.5 -55t55.5 -109.5t20 -180t-20 -181t-55.5 -110.5t-81.5 -55.5t-99 -16zM328 62q43 0 74.5 9.5t52 38.5t30.5 85.5t10 150.5t-9.5 151t-29.5 86.5t-52 39.5
t-76 10q-45 0 -76.5 -10t-51.5 -39.5t-29.5 -86.5t-9.5 -151t10 -150.5t30 -85.5t52 -38.5t75 -9.5z" />
    <glyph glyph-name="uni041F" unicode="&#x41f;" horiz-adv-x="640" 
d="M105 0v695h430v-695h-83l2 372l1 249h-269l1 -249l2 -372h-84z" />
    <glyph glyph-name="uni0420" unicode="&#x420;" horiz-adv-x="581" 
d="M105 0l4 322l-4 373l20.5 2t54.5 5t74.5 5t80.5 2q89 0 138 -58.5t49 -175.5q0 -73 -17.5 -121t-47.5 -74.5t-67 -37.5t-76 -11q-31 0 -69 2.5t-56 3.5v-237h-84zM320 302q32 0 52 3.5t32 15.5q17 17 23 58.5t6 105.5q0 54 -5.5 83.5t-13 42.5t-15.5 18q-10 7 -32.5 11.5
t-51.5 4.5q-39 0 -73.5 -3.5t-52.5 -7.5v-320q14 -2 52.5 -7t78.5 -5z" />
    <glyph glyph-name="uni0421" unicode="&#x421;" horiz-adv-x="583" 
d="M312 -14q-71 0 -125 34.5t-84.5 112.5t-30.5 207q0 114 19.5 186.5t54 112.5t81.5 55t102 15q24 0 57 -2.5t64 -6t47 -7.5l-10 -72q-9 1 -29 3t-44 4t-46 3.5t-34 1.5q-49 0 -78.5 -5t-43.5 -22q-13 -16 -25 -47t-19 -84.5t-7 -137.5q0 -106 20.5 -169.5t40.5 -83.5
q14 -14 34 -19.5t45 -5.5q38 0 73.5 8t63 19t43.5 19l16 8l29 -66l-15.5 -9t-43.5 -21.5t-67.5 -21.5t-87.5 -9z" />
    <glyph glyph-name="uni0422" unicode="&#x422;" horiz-adv-x="474" 
d="M195 0l2 624l-195 -3v74h470v-74l-195 3l2 -624h-84z" />
    <glyph glyph-name="uni0423" unicode="&#x423;" horiz-adv-x="524" 
d="M150 -13q-20 0 -41.5 4.5t-34.5 8.5l14 70q8 -2 29.5 -6t35.5 -4q33 0 50.5 19.5t31.5 61.5l-214 554h89l160 -450h3l133 450h89l-153 -464q-30 -91 -50 -139.5t-49 -74.5q-16 -15 -43 -22.5t-50 -7.5z" />
    <glyph glyph-name="uni040E" unicode="&#x40e;" horiz-adv-x="524" 
d="M150 -13q-20 0 -41.5 4.5t-34.5 8.5l14 70q8 -2 29.5 -6t35.5 -4q33 0 50.5 19.5t31.5 61.5l-214 554h89l160 -450h3l133 450h89l-153 -464q-30 -91 -50 -139.5t-49 -74.5q-16 -15 -43 -22.5t-50 -7.5zM258 724q-67 0 -109 35.5t-45 112.5l62 2q4 -33 23.5 -52.5
t68.5 -19.5q57 0 77.5 19.5t24.5 52.5l52 -2q-2 -51 -22 -84t-53.5 -48.5t-78.5 -15.5z" />
    <glyph glyph-name="uni0424" unicode="&#x424;" horiz-adv-x="722" 
d="M361 67q-100 0 -170.5 26t-108 88t-37.5 168t37.5 166.5t108 86.5t170.5 26t170.5 -26t108 -86.5t37.5 -166.5t-37.5 -168t-108 -88t-170.5 -26zM361 138q66 0 110 9.5t69.5 32.5t36 63.5t10.5 102.5q0 64 -10.5 105t-36 64.5t-69.5 33t-110 9.5t-110 -9.5t-69.5 -33
t-36 -64.5t-10.5 -105q0 -62 10.5 -102.5t36 -63.5t69.5 -32.5t110 -9.5zM319 -1l3 319l-3 377h85l-4 -307l4 -388z" />
    <glyph glyph-name="uni0425" unicode="&#x425;" horiz-adv-x="536" 
d="M16 0l214 389l9 -51l-209 357h94l169 -313l-71 31h82l-64 -30l171 312h94l-212 -357l6 40l221 -378h-99l-177 333l47 -33h-64l53 33l-165 -333h-99z" />
    <glyph glyph-name="uni0427" unicode="&#x427;" horiz-adv-x="620" 
d="M431 0v301q-40 -11 -95 -25.5t-105 -14.5q-70 0 -107 26t-50.5 75t-13.5 117v216h84v-210q0 -49 3 -81.5t15 -44.5q16 -16 39.5 -18t41.5 -2q33 0 69 6t68 14.5t51 15.5v320h84v-695h-84z" />
    <glyph glyph-name="uni0426" unicode="&#x426;" horiz-adv-x="632" 
d="M105 0v695h84l-3 -659l-38 38h344l-38 -38l-2 659h83v-695h-430zM490 60l96 1v-185h-71z" />
    <glyph glyph-name="uni0428" unicode="&#x428;" horiz-adv-x="897" 
d="M105 0v695h84l-2 -335l-1 -324l-38 38h300l-38 -38l-1 317l-1 342h84l-1 -343v-316l-38 38h296l-38 -38l-1 321l-2 338h84v-695h-687z" />
    <glyph glyph-name="uni0429" unicode="&#x429;" horiz-adv-x="897" 
d="M105 0v695h84l-2 -335l-1 -324l-38 38h300l-38 -38l-1 317l-1 342h84l-1 -343v-316l-38 38h296l-38 -38l-1 321l-2 338h84v-695h-687zM748 60l96 1v-185h-71z" />
    <glyph glyph-name="uni040F" unicode="&#x40f;" horiz-adv-x="640" 
d="M105 0v695h84l-2 -341l-1 -318l-38 38h344l-38 -38l-1 323l-1 336h83v-695h-430zM275 60l96 1v-185h-71z" />
    <glyph glyph-name="uni042C" unicode="&#x42c;" horiz-adv-x="590" 
d="M105 1l20 -2t52 -5t68.5 -5t69.5 -2q75 0 123 25.5t71 74.5t23 120q0 88 -29.5 136.5t-79 68t-109.5 19.5q-45 0 -82.5 -2.5t-52.5 -4.5l10 -14v285h-84l4 -322zM320 359q39 0 60.5 -3.5t33.5 -15.5q17 -17 23 -57t6 -88q0 -63 -11.5 -87.5t-22.5 -32.5q-10 -7 -34 -11.5
t-60 -4.5q-46 0 -86 5t-51 9l11 -51v345l-12 -21q20 4 55 8.5t88 4.5z" />
    <glyph glyph-name="uni042A" unicode="&#x42a;" horiz-adv-x="639" 
d="M157 1l20 -2t52 -5t68.5 -5t69.5 -2q75 0 123 25.5t71 74.5t23 120q0 88 -29.5 136.5t-79 68t-109.5 19.5q-45 0 -82.5 -2.5t-52.5 -4.5l10 -14v285h-84l4 -322zM372 359q39 0 60.5 -3.5t33.5 -15.5q17 -17 23 -57t6 -88q0 -63 -11.5 -87.5t-22.5 -32.5q-10 -7 -34 -11.5
t-60 -4.5q-46 0 -86 5t-51 9l11 -51v345l-12 -21q20 4 55 8.5t88 4.5zM15 620l153 3l73 72h-226v-75z" />
    <glyph glyph-name="uni042B" unicode="&#x42b;" horiz-adv-x="854" 
d="M664 -1l3 319l-3 377h85l-4 -307l4 -388zM105 1l20 -2t52 -5t68.5 -5t69.5 -2q75 0 123 25.5t71 74.5t23 120q0 88 -29.5 136.5t-79 68t-109.5 19.5q-45 0 -82.5 -2.5t-52.5 -4.5l10 -14v285h-84l4 -322zM320 359q39 0 60.5 -3.5t33.5 -15.5q17 -17 23 -57t6 -88
q0 -63 -11.5 -87.5t-22.5 -32.5q-10 -7 -34 -11.5t-60 -4.5q-46 0 -86 5t-51 9l11 -51v345l-12 -21q20 4 55 8.5t88 4.5z" />
    <glyph glyph-name="uni0409" unicode="&#x409;" horiz-adv-x="945" 
d="M43 -14q31 0 62 11t53 31q27 25 37.5 74.5t14.5 120.5l32 472h-84l-30 -471q-4 -62 -9.5 -94t-16 -45.5t-30.5 -20.5q-8 -3 -20 -5.5t-25 -4.5zM448 1l20 -2t52 -5t68.5 -5t69.5 -2q75 0 123 25.5t71 74.5t23 120q0 88 -29.5 136.5t-79 68t-109.5 19.5q-45 0 -82.5 -2.5
t-52.5 -4.5l10 -14v285h-84l4 -322zM663 359q39 0 60.5 -3.5t33.5 -15.5q17 -17 23 -57t6 -88q0 -63 -11.5 -87.5t-22.5 -32.5q-10 -7 -34 -11.5t-60 -4.5q-46 0 -86 5t-51 9l11 -51v345l-12 -21q20 4 55 8.5t88 4.5zM213 620l246 3l73 72h-319v-75z" />
    <glyph glyph-name="uni040A" unicode="&#x40a;" horiz-adv-x="906" 
d="M105 0h84l-3 356l-38 -28h335l-1 74h-334l38 -28l3 321h-84v-695zM435 1l20 -2t52 -5t68.5 -5t69.5 -2q75 0 123 25.5t71 74.5t23 120q0 88 -29.5 136.5t-79 68t-109.5 19.5q-45 0 -82.5 -2.5t-52.5 -4.5l10 -14v285h-84l4 -322zM650 359q39 0 60.5 -3.5t33.5 -15.5
q17 -17 23 -57t6 -88q0 -63 -11.5 -87.5t-22.5 -32.5q-10 -7 -34 -11.5t-60 -4.5q-46 0 -86 5t-51 9l11 -51v345l-12 -21q20 4 55 8.5t88 4.5z" />
    <glyph glyph-name="uni0405" unicode="&#x405;" horiz-adv-x="511" 
d="M246 -14q-41 0 -79 9.5t-67.5 22.5t-46.5 22.5l-17 9.5l4.5 10.5t10.5 24t10.5 23.5l4.5 10l16.5 -8.5t44.5 -19t64 -19t75 -8.5q25 0 39.5 4.5t20.5 8.5q20 14 31 38.5t11 63.5q0 38 -16 63t-42.5 42t-57.5 30q-40 17 -75 34t-62 39t-42 55.5t-15 83.5q0 52 23 93.5
t69 66t114 24.5q33 0 62 -3.5t52 -7.5t36 -7.5l13 -3.5l-14 -72l-14 2.5t-38 6.5t-54 6.5t-61 2.5q-25 0 -39.5 -3t-25.5 -10q-13 -7 -24.5 -28.5t-11.5 -58.5q0 -41 21 -67t55 -42.5t72 -32.5q30 -12 59 -27.5t52 -37.5t37 -55.5t14 -81.5q0 -61 -26.5 -106.5t-73.5 -71
t-109 -25.5z" />
    <glyph glyph-name="uni0404" unicode="&#x404;" horiz-adv-x="583" 
d="M148 317v74h299v-74h-299zM312 -14q-71 0 -125 34.5t-84.5 112.5t-30.5 207q0 114 19.5 186.5t54 112.5t81.5 55t102 15q24 0 57 -2.5t64 -6t47 -7.5l-10 -72q-9 1 -29 3t-44 4t-46 3.5t-34 1.5q-49 0 -78.5 -5t-43.5 -22q-13 -16 -25 -47t-19 -84.5t-7 -137.5
q0 -106 20.5 -169.5t40.5 -83.5q14 -14 34 -19.5t45 -5.5q38 0 73.5 8t63 19t43.5 19l16 8l29 -66l-15.5 -9t-43.5 -21.5t-67.5 -21.5t-87.5 -9z" />
    <glyph glyph-name="uni042D" unicode="&#x42d;" horiz-adv-x="583" 
d="M435 317h-299v74h299v-74zM271 -14q-48 0 -87.5 9t-67.5 21.5t-43.5 21.5l-15.5 9l29 66l16 -8t43.5 -19t63 -19t73.5 -8q26 0 45.5 5.5t33.5 19.5q20 20 40.5 83.5t20.5 169.5q0 84 -7 137.5t-18.5 84.5t-25.5 47q-13 17 -42.5 22t-79.5 5q-12 0 -34 -1.5t-46 -3.5
t-44 -4t-29 -3l-10 72q17 4 47.5 7.5t64 6t56.5 2.5q55 0 102 -15t81.5 -55t54 -112.5t19.5 -186.5q0 -129 -30.5 -207t-84.5 -112.5t-125 -34.5z" />
    <glyph glyph-name="uni0406" unicode="&#x406;" 
d="M105 -1l3 319l-3 377h85l-4 -307l4 -388z" />
    <glyph glyph-name="uni0407" unicode="&#x407;" 
d="M17 762v82h99v-82h-99zM180 762v82h98v-82h-98zM105 -1l3 319l-3 377h85l-4 -307l4 -388z" />
    <glyph glyph-name="uni0408" unicode="&#x408;" horiz-adv-x="316" 
d="M56 -13q-14 0 -26.5 1.5t-22.5 3.5l-15 3l10 72q9 -1 28 -4t42 -3q21 0 35 9.5t21.5 44.5t7.5 109v472h84v-459q0 -93 -21.5 -147.5t-58.5 -78t-84 -23.5z" />
    <glyph glyph-name="uni040B" unicode="&#x40b;" horiz-adv-x="712" 
d="M171 0v695h84v-287q40 11 94.5 25t103.5 14q71 0 107.5 -26t50 -74.5t13.5 -117.5v-229h-84v233q0 49 -3 76.5t-15 39.5q-16 17 -39.5 18.5t-41.5 1.5q-31 0 -67 -6t-68 -14.5t-51 -15.5v-333h-84zM3 621v74h425v-74l-236 2z" />
    <glyph glyph-name="uni042E" unicode="&#x42e;" horiz-adv-x="858" 
d="M105 0v695h84l-3 -348l-38 40h206l1 -74h-207l38 40l3 -353h-84zM553 -13q-48 0 -91.5 16t-77.5 55.5t-54 110t-20 180.5q0 109 20 179t54 109.5t77.5 55t91.5 15.5t91.5 -15.5t77.5 -55t54 -109.5t20 -179q0 -110 -20 -180.5t-54 -110t-77.5 -55.5t-91.5 -16zM553 64
q38 0 67 9.5t48.5 38t29 85t9.5 149.5t-9.5 150t-28.5 86.5t-48 39.5t-68 10t-68 -10t-48 -39.5t-28 -86.5t-9 -150t9.5 -149.5t28.5 -85t48 -38t67 -9.5z" />
    <glyph glyph-name="uni042F" unicode="&#x42f;" horiz-adv-x="623" 
d="M79 0l138 291q-64 17 -101 66t-37 140q0 115 67 163t191 48q18 0 44.5 -1.5t54.5 -3.5t51.5 -4t34.5 -4l-3 -356l5 -339h-85v288q-66 -3 -95 -4t-37.5 -1h-11.5l-117 -283h-99zM291 351q35 0 74.5 3t74.5 7l-2 272q-22 3 -60 7t-79 4q-34 0 -57.5 -3.5t-34.5 -10.5
q-12 -7 -20.5 -23t-13.5 -43t-5 -66q0 -43 9 -75t33 -50q14 -10 34 -16t47 -6z" />
    <glyph glyph-name="uni0402" unicode="&#x402;" horiz-adv-x="717" 
d="M171 0v623l-168 -2v74h425v-74l-173 1v-214q40 11 94.5 25t103.5 14q71 0 107.5 -26t50 -74.5t13.5 -117.5v-138q0 -86 -22 -136t-59 -71.5t-82 -21.5q-10 0 -25.5 2t-28 3.5l-12.5 1.5l10 72q4 -1 17 -2.5t28.5 -2.5t26.5 -1q20 0 34 9t21.5 41.5t7.5 101.5v146
q0 49 -3 76.5t-15 39.5q-16 17 -39.5 18.5t-41.5 1.5q-31 0 -67 -6t-68 -14.5t-51 -15.5v-333h-84z" />
    <glyph glyph-name="uni0462" unicode="&#x462;" horiz-adv-x="643" 
d="M403 596h-371v-74l186 3l185 -3v74zM168 1l20 -2t52 -5t68.5 -5t69.5 -2q75 0 123 25.5t71 74.5t23 120q0 88 -29.5 136.5t-79 68t-109.5 19.5q-45 0 -82.5 -2.5t-52.5 -4.5l10 -14v285h-84l4 -322zM383 359q39 0 60.5 -3.5t33.5 -15.5q17 -17 23 -57t6 -88
q0 -63 -11.5 -87.5t-22.5 -32.5q-10 -7 -34 -11.5t-60 -4.5q-46 0 -86 5t-51 9l11 -51v345l-12 -21q20 4 55 8.5t88 4.5z" />
    <glyph glyph-name="uni0472" unicode="&#x472;" horiz-adv-x="656" 
d="M462 275q-31 0 -69.5 7.5t-75.5 17.5t-67.5 17.5t-46.5 7.5q-30 0 -39 -14.5t-9 -31.5l-52 16q0 57 22.5 79t75.5 22q24 0 58.5 -7t72 -16.5t72.5 -17t61 -7.5q18 0 25.5 11t9 22.5l1.5 11.5l53 -7q0 -42 -9 -66.5t-29.5 -34.5t-53.5 -10zM328 -14q-52 0 -98.5 16
t-82 55.5t-55.5 110.5t-20 181t20 180t55.5 109.5t82 55t98.5 15.5q53 0 99 -15.5t81.5 -55t55.5 -109.5t20 -180t-20 -181t-55.5 -110.5t-81.5 -55.5t-99 -16zM328 62q43 0 74.5 9.5t52 38.5t30.5 85.5t10 150.5t-9.5 151t-29.5 86.5t-52 39.5t-76 10q-45 0 -76.5 -10
t-51.5 -39.5t-29.5 -86.5t-9.5 -151t10 -150.5t30 -85.5t52 -38.5t75 -9.5z" />
    <glyph glyph-name="uni0474" unicode="&#x474;" horiz-adv-x="519" 
d="M193 0l-180 665h86l160 -628l-47 37h82l-47 -37l125 490l76 -27l-135 -500h-120zM564 707l-6 -66q-10 0 -18 -0.5t-16 -2.5q-19 -5 -31 -16.5t-22 -44.5l-27 -91l-78 14l17 71q7 29 15 50t19.5 37t29.5 29q16 11 41 16.5t43 5.5h15t18 -2z" />
    <glyph glyph-name="uni0492" unicode="&#x492;" horiz-adv-x="585" 
d="M190 0v695h341v-74l-295 3l39 38l-7 -290l5 -372h-83zM64 407h370v-74l-215 3l-155 -3v74z" />
    <glyph glyph-name="uni0496" unicode="&#x496;" horiz-adv-x="841" 
d="M773 -124l-23 198h97v-198h-74zM10 0l283 346l-3 -20v41l2 -20l-260 348h97l253 -348l-266 -347h-106zM378 0l6 347l-6 348h84l-6 -348l6 -347h-84zM830 0h-106l-266 347l253 348h97l-260 -348l2 20v-41l-3 20z" />
    <glyph glyph-name="uni049A" unicode="&#x49a;" horiz-adv-x="599" 
d="M540 -124l-23 198h97v-198h-74zM485 0l-293 357l268 338h106l-275 -331v-6l306 -358h-112zM105 0l3 353l-3 342h84v-695h-84z" />
    <glyph glyph-name="uni04A2" unicode="&#x4a2;" horiz-adv-x="665" 
d="M536 -124l-23 198h97v-198h-74zM105 0v695h84l-3 -332l-38 28h368l-38 -28l-2 332h84v-695h-84l2 345l38 -28h-368l38 28l3 -345h-84z" />
    <glyph glyph-name="Ustraitcy" unicode="&#x4ae;" horiz-adv-x="505" 
d="M210 0l3 259l-197 436h91l143 -348h6l142 348h91l-197 -436l3 -259h-85z" />
    <glyph glyph-name="Ustraitstrokecy" unicode="&#x4b0;" horiz-adv-x="506" 
d="M82 257v71h338v-71l-169 2zM210 0l3 259l-197 436h91l143 -348h6l142 348h91l-197 -436l3 -259h-85z" />
    <glyph glyph-name="uni04B2" unicode="&#x4b2;" horiz-adv-x="522" 
d="M479 -124l-23 198h97v-198h-74zM16 0l214 389l9 -51l-209 357h94l169 -313l-71 31h82l-64 -30l171 312h94l-212 -357l6 40l221 -378h-99l-177 333l47 -33h-64l53 33l-165 -333h-99z" />
    <glyph glyph-name="uni04B6" unicode="&#x4b6;" horiz-adv-x="612" 
d="M492 -124l-23 198h97v-198h-74zM431 0v301q-40 -11 -95 -25.5t-105 -14.5q-70 0 -107 26t-50.5 75t-13.5 117v216h84v-210q0 -49 3 -81.5t15 -44.5q16 -16 39.5 -18t41.5 -2q33 0 69 6t68 14.5t51 15.5v320h84v-695h-84z" />
    <glyph glyph-name="uni04BA" unicode="&#x4ba;" horiz-adv-x="645" 
d="M105 0v708h84v-285q40 16 89 26.5t87 10.5q80 0 121.5 -24t56.5 -70t15 -114v-252h-84v223q0 59 -5.5 92.5t-22.5 49.5q-13 12 -35.5 14.5t-56.5 2.5q-36 0 -70.5 -6t-60 -12.5t-34.5 -10.5v-353h-84z" />
    <glyph glyph-name="uni04C0" unicode="&#x4c0;" 
d="M105 -1l3 319l-3 377h85l-4 -307l4 -388z" />
    <glyph glyph-name="uni04D8" unicode="&#x4d8;" horiz-adv-x="654" 
d="M70 617l20 14t56 32.5t84 32.5t103 14q79 0 135 -35t86 -114t30 -212q0 -110 -20 -181t-55.5 -110.5t-81.5 -55.5t-99 -16q-49 0 -95 14.5t-82 52.5t-57 108t-21 182v48l421 -2q-2 73 -11 118t-21 69.5t-25 35.5q-14 12 -30 17t-56 5q-55 0 -101 -13.5t-80 -30.5
t-52.5 -30.5l-18.5 -13.5zM161 317q3 -100 18.5 -153t43.5 -76q20 -16 46 -21t59 -5q31 0 55.5 4t43.5 17q32 22 49 75.5t19 159.5z" />
    <glyph glyph-name="uni04E2" unicode="&#x4e2;" horiz-adv-x="690" 
d="M105 0v695h84l-3 -366l2 -188l271 554h126v-695h-84l3 329l-2 287l-300 -616h-97zM194 778v65h320v-65h-320z" />
    <glyph glyph-name="uni04E8" unicode="&#x4e8;" horiz-adv-x="656" 
d="M138 391h367l1 -74h-368v74zM328 -14q-52 0 -98.5 16t-82 55.5t-55.5 110.5t-20 181t20 180t55.5 109.5t82 55t98.5 15.5q53 0 99 -15.5t81.5 -55t55.5 -109.5t20 -180t-20 -181t-55.5 -110.5t-81.5 -55.5t-99 -16zM328 62q43 0 74.5 9.5t52 38.5t30.5 85.5t10 150.5
t-9.5 151t-29.5 86.5t-52 39.5t-76 10q-45 0 -76.5 -10t-51.5 -39.5t-29.5 -86.5t-9.5 -151t10 -150.5t30 -85.5t52 -38.5t75 -9.5z" />
    <glyph glyph-name="uni04EE" unicode="&#x4ee;" horiz-adv-x="524" 
d="M150 -13q-20 0 -41.5 4.5t-34.5 8.5l14 70q8 -2 29.5 -6t35.5 -4q33 0 50.5 19.5t31.5 61.5l-214 554h89l160 -450h3l133 450h89l-153 -464q-30 -91 -50 -139.5t-49 -74.5q-16 -15 -43 -22.5t-50 -7.5zM98 767v65h320v-65h-320z" />
    <glyph glyph-name="uni0430" unicode="&#x430;" horiz-adv-x="569" 
d="M211 -13q-46 0 -81.5 21.5t-55.5 63t-20 100.5q0 71 28.5 111.5t80.5 57.5t121 17h106q0 50 -2.5 87.5t-16.5 55.5q-10 14 -27.5 18t-36.5 4q-39 0 -76.5 -7.5t-68 -17.5t-48.5 -17.5l-18 -7.5l-29 65l19 8.5t51 20t71.5 20t81.5 8.5q68 0 108 -26.5t57.5 -74
t17.5 -111.5v-383h-54l-12 61h-6q-10 -7 -28.5 -19.5t-43 -25t-54.5 -21t-64 -8.5zM225 60q36 0 68.5 10.5t58 23.5t38.5 21v166q-13 2 -39 4.5t-68 2.5q-93 0 -115 -19q-13 -10 -20 -35.5t-7 -61.5q0 -59 19.5 -85.5t64.5 -26.5z" />
    <glyph glyph-name="uni0431" unicode="&#x431;" horiz-adv-x="579" 
d="M288 -13q-82 0 -130 37.5t-68 111t-20 180.5q0 122 12 206t40.5 135t76.5 74t121 23q23 0 44 0.5t41 0.5t41 -1l-17 -70q-6 -1 -26 -1.5t-43.5 -1t-41.5 -0.5q-55 0 -76.5 -4t-32.5 -17q-14 -15 -27 -48.5t-21.5 -81t-9.5 -105.5l-17 13q21 41 64.5 61.5t95.5 20.5
q80 0 127 -31t67.5 -86t20.5 -127q0 -89 -20.5 -154t-69 -100t-131.5 -35zM288 58q51 0 80 15.5t41.5 62.5t12.5 139q0 72 -13 109.5t-41.5 51t-74.5 13.5q-53 0 -83 -16t-42.5 -54t-12.5 -104q0 -92 12 -139t41.5 -62.5t79.5 -15.5z" />
    <glyph glyph-name="uni0432" unicode="&#x432;" horiz-adv-x="561" 
d="M305 -14q-40 0 -79.5 2.5t-72 5.5t-52.5 5.5l-20 2.5l3 270l-5 312l19 2t50.5 4t68 4t72.5 2q52 0 95 -15.5t69 -50t26 -91.5q0 -44 -16 -71t-38.5 -41t-43 -19t-30.5 -6l16 40v-79l-12 39q11 1 34 -4t48 -19t43 -42t18 -74q0 -63 -29.5 -102t-74 -57t-89.5 -18zM324 58
q35 0 54.5 12.5t27 37t7.5 60.5q0 35 -15.5 57t-42.5 32.5t-64 10.5h-167l38 13l2 -251l-7 40q11 -1 58 -6.5t109 -5.5zM293 335q60 -1 81.5 21t21.5 80q0 48 -25.5 68t-84.5 20q-46 0 -83.5 -3.5t-48.5 -5.5l8 39v-257l-8 39z" />
    <glyph glyph-name="uni0433" unicode="&#x433;" horiz-adv-x="414" 
d="M79 0v582h81l2 -582h-83zM119 582h270v-73l-270 2v71z" />
    <glyph glyph-name="uni0453" unicode="&#x453;" horiz-adv-x="414" 
d="M79 0v582h81l2 -582h-83zM119 582h270v-73l-270 2v71zM153 654l-20 50l184 84l30 -67z" />
    <glyph glyph-name="uni0491" unicode="&#x491;" horiz-adv-x="439" 
d="M301 531l26 150h62v-151zM79 0v582h81l2 -582h-83zM119 582h270v-73l-270 2v71z" />
    <glyph glyph-name="uni0434" unicode="&#x434;" horiz-adv-x="600" 
d="M3 -104v176q11 0 34.5 4t39.5 17q10 8 16 22t10.5 44t8.5 86l27 337h354v-510h79v-176h-83v104h-403v-104h-83zM189 178q-3 -34 -9.5 -59t-22.5 -47h253l2 209l-2 229h-194z" />
    <glyph glyph-name="uni0435" unicode="&#x435;" horiz-adv-x="571" 
d="M304 -14q-69 0 -121.5 29.5t-81.5 97t-29 179.5q0 117 30.5 183t82.5 93.5t117 27.5t110.5 -26t69.5 -86.5t24 -162.5v-63h-384l39 15q-4 -66 3.5 -105.5t19 -58.5t19.5 -27q14 -12 34 -18t49 -6t57 4.5t52 11t43 13t31 9.5l21 -67q-9 -4 -35 -14.5t-64.5 -19.5t-86.5 -9
zM161 288l-39 36l337 7l-38 -37q1 71 -2.5 122t-20.5 78q-7 11 -24 20.5t-66 9.5q-51 0 -76.5 -11t-39.5 -29q-37 -49 -31 -196z" />
    <glyph glyph-name="uni0451" unicode="&#x451;" horiz-adv-x="571" 
d="M304 -14q-69 0 -121.5 29.5t-81.5 97t-29 179.5q0 117 30.5 183t82.5 93.5t117 27.5t110.5 -26t69.5 -86.5t24 -162.5v-63h-384l39 15q-4 -66 3.5 -105.5t19 -58.5t19.5 -27q14 -12 34 -18t49 -6t57 4.5t52 11t43 13t31 9.5l21 -67q-9 -4 -35 -14.5t-64.5 -19.5t-86.5 -9
zM161 288l-39 36l337 7l-38 -37q1 71 -2.5 122t-20.5 78q-7 11 -24 20.5t-66 9.5q-51 0 -76.5 -11t-39.5 -29q-37 -49 -31 -196zM159 684v82h99v-82h-99zM346 684v82h98v-82h-98z" />
    <glyph glyph-name="uni0436" unicode="&#x436;" horiz-adv-x="791" 
d="M17 0l241 289v5l-226 288h102l219 -289l-233 -293h-103zM350 0l5 293l-5 289h83l-5 -289l5 -293h-83zM663 0l-233 293l219 289h102l-226 -288v-5l241 -289h-103z" />
    <glyph glyph-name="uni0437" unicode="&#x437;" horiz-adv-x="494" 
d="M246 -13q-62 0 -108 12.5t-71.5 25t-24.5 12.5l26 64l25.5 -11.5t70 -22.5t102.5 -11q35 0 54 10t26 34.5t7 67.5q0 37 -12.5 57.5t-38 29.5t-63.5 9h-113v67h70q58 0 88 9t41.5 31.5t11.5 62.5q0 26 -4 47t-12 26q-14 9 -34.5 12t-50.5 3q-22 0 -41 -1t-43.5 -4
t-64.5 -10l-7 70q39 7 65 11t50.5 5.5t55.5 1.5q52 0 90 -13.5t59.5 -45.5t21.5 -90q0 -62 -26 -99t-74 -42v-6q38 -4 64.5 -21.5t40 -46.5t13.5 -68q0 -49 -17.5 -89t-60 -63.5t-116.5 -23.5z" />
    <glyph glyph-name="uni0438" unicode="&#x438;" horiz-adv-x="627" 
d="M99 0v582h83l-10 -491h5l256 491h106v-582h-83l10 491h-4l-257 -491h-106z" />
    <glyph glyph-name="uni0439" unicode="&#x439;" horiz-adv-x="627" 
d="M99 0v582h83l-10 -491h5l256 491h106v-582h-83l10 491h-4l-257 -491h-106zM320 651q-67 0 -109 35.5t-45 112.5l62 2q4 -33 23.5 -52.5t68.5 -19.5q57 0 77.5 19.5t24.5 52.5l52 -2q-4 -77 -45.5 -112.5t-108.5 -35.5z" />
    <glyph glyph-name="uni043A" unicode="&#x43a;" horiz-adv-x="516" 
d="M417 0l-233 293l219 289h108l-236 -288v-5l250 -289h-108zM105 0l5 293l-5 289h83l-5 -289l5 -293h-83z" />
    <glyph glyph-name="uni045C" unicode="&#x45c;" horiz-adv-x="516" 
d="M417 0l-233 293l219 289h108l-236 -288v-5l250 -289h-108zM105 0l5 293l-5 289h83l-5 -289l5 -293h-83zM220 654l-20 50l184 84l30 -67z" />
    <glyph glyph-name="uni043B" unicode="&#x43b;" horiz-adv-x="573" 
d="M8 -13l-11 65q14 1 31.5 4.5t30.5 11.5q9 6 16.5 17t14 40.5t10.5 90.5l27 366h356v-582h-83l3 275l-3 235h-196l-31 -365q-6 -74 -38.5 -116t-103.5 -42h-11.5h-11.5z" />
    <glyph glyph-name="uni043C" unicode="&#x43c;" horiz-adv-x="738" 
d="M84 0l24 582h121l137 -405h5l138 405h121l24 -582h-84l-8 498h-6l-137 -400h-101l-136 400h-6l-8 -498h-84z" />
    <glyph glyph-name="uni043D" unicode="&#x43d;" horiz-adv-x="607" 
d="M90 0v582h83l-1 -289l1 -293h-83zM434 0l1 288l-1 294h83v-582h-83zM97 261v72h410v-72h-410z" />
    <glyph glyph-name="uni043E" unicode="&#x43e;" horiz-adv-x="576" 
d="M288 -13q-83 0 -130.5 37t-67.5 105t-20 162t20 162t67.5 105t130.5 37t130.5 -37t67.5 -105t20 -162t-20 -162t-67.5 -105t-130.5 -37zM288 59q38 0 63.5 9t41 33t22 70t6.5 120t-6.5 120t-22 70.5t-41 33t-63.5 8.5t-63.5 -8.5t-41 -33t-22.5 -70.5t-7 -120t7 -120
t22.5 -70t41 -33t63.5 -9z" />
    <glyph glyph-name="uni043F" unicode="&#x43f;" horiz-adv-x="611" 
d="M90 0v582h83v-582h-83zM438 0v582h83v-582h-83zM110 510v72h391v-72l-195 1z" />
    <glyph glyph-name="uni0440" unicode="&#x440;" horiz-adv-x="577" 
d="M85 -166v748h56l11 -59h6q19 14 44 30.5t57.5 29t71.5 12.5q54 0 93.5 -30.5t61 -95t21.5 -167.5q0 -97 -18 -158.5t-48 -96t-68 -48t-77 -13.5q-24 0 -49 2t-45.5 5.5t-33.5 5.5v-165h-83zM315 60q11 0 27.5 2.5t29.5 13.5q14 12 24.5 37.5t16.5 74.5t6 130
q0 66 -3.5 103.5t-10 56t-15.5 26.5q-5 5 -17.5 11t-38.5 6q-32 0 -65.5 -10.5t-60.5 -23t-40 -20.5v-386q21 -6 63 -13.5t84 -7.5z" />
    <glyph glyph-name="uni0441" unicode="&#x441;" horiz-adv-x="518" 
d="M300 -13q-68 0 -120 31t-81 98.5t-29 176.5q0 89 19.5 148t53.5 92.5t80 47.5t98 14q38 0 77.5 -5t64.5 -11l-10 -70q-19 2 -60 7.5t-88 5.5q-37 0 -62.5 -6t-39.5 -20q-19 -21 -32.5 -76.5t-13.5 -132.5q0 -71 11 -114.5t26 -66t27 -31.5q8 -6 21.5 -11t38.5 -5
q29 0 59 7t55 16t40.5 16l15.5 7l26 -65l-22 -13t-62 -26.5t-93 -13.5z" />
    <glyph glyph-name="uni0442" unicode="&#x442;" horiz-adv-x="466" 
d="M194 0v511l-192 -1v72h462v-72l-187 1v-511h-83z" />
    <glyph glyph-name="uni0443" unicode="&#x443;" horiz-adv-x="479" 
d="M119 -166l78 227l-186 521h89l134 -425h4l134 425h89l-196 -545l-58 -203h-88z" />
    <glyph glyph-name="uni045E" unicode="&#x45e;" horiz-adv-x="479" 
d="M119 -166l78 227l-186 521h89l134 -425h4l134 425h89l-196 -545l-58 -203h-88zM240 657q-37 0 -70.5 14.5t-55 46t-23.5 82.5l57 6q4 -46 29 -64t63 -18t63 18t29 64l57 -6q-2 -51 -24 -82.5t-55 -46t-70 -14.5z" />
    <glyph glyph-name="uni0444" unicode="&#x444;" horiz-adv-x="745" 
d="M372 -13q-66 0 -120 14.5t-93 49.5t-59.5 94t-20.5 147t20.5 146.5t59.5 93t93 49t120 14.5q67 0 121 -14.5t92.5 -49t59.5 -93t21 -146.5t-21 -147t-59.5 -94t-92.5 -49.5t-121 -14.5zM372 60q62 0 102.5 10.5t64 35.5t33.5 69.5t10 113.5q0 70 -10 115.5t-33.5 71.5
t-64 36.5t-102.5 10.5q-61 0 -101.5 -10.5t-64 -36.5t-33.5 -71.5t-10 -115.5q0 -69 10 -113.5t33.5 -69.5t64 -35.5t101.5 -10.5zM326 -182l4 422l-4 514h83l-5 -444l5 -492h-83z" />
    <glyph glyph-name="uni0445" unicode="&#x445;" horiz-adv-x="491" 
d="M17 0l174 303l-172 279h94l127 -233h5l124 233h94l-172 -281l175 -301h-97l-127 251h-5l-124 -251h-96z" />
    <glyph glyph-name="uni0447" unicode="&#x447;" horiz-adv-x="594" 
d="M421 0v243q-40 -16 -84.5 -26.5t-86.5 -10.5q-73 0 -112 24t-53.5 70.5t-14.5 113.5v168h83v-138q0 -58 5.5 -92t22.5 -50q14 -12 39.5 -14.5t40.5 -2.5q29 0 55 3.5t47.5 8.5t36.5 9.5t21 7.5v268h83v-582h-83z" />
    <glyph glyph-name="uni0446" unicode="&#x446;" horiz-adv-x="709" 
d="M125 0v72l201 -2l211 2v-72h-412zM105 0v582h83v-582h-83zM454 0v582h83v-582h-83zM530 -136l-24 206h88v-206h-64z" />
    <glyph glyph-name="uni0448" unicode="&#x448;" horiz-adv-x="941" 
d="M105 0v582h83v-582h-83zM125 0v72h367v-72h-367zM429 0v582h83v-582h-83zM449 0v72h367v-72h-367zM753 0v582h83v-582h-83z" />
    <glyph glyph-name="uni0449" unicode="&#x449;" horiz-adv-x="941" 
d="M105 0v582h83v-582h-83zM125 0v72h367v-72h-367zM429 0v582h83v-582h-83zM449 0v72h367v-72h-367zM753 0v582h83v-582h-83zM830 -133l-24 205h88v-205h-64z" />
    <glyph glyph-name="uni045F" unicode="&#x45f;" horiz-adv-x="642" 
d="M105 0v582h83v-582h-83zM125 0v72h392v-72h-392zM296 -136l-24 197h88v-197h-64zM454 0v582h83v-582h-83z" />
    <glyph glyph-name="uni044C" unicode="&#x44c;" horiz-adv-x="561" 
d="M284 -13q-41 0 -80 2t-71 5t-54 7l1 259l-1 322h84v-180q19 2 39 3t39 2t33 1q72 1 124 -16.5t80.5 -65.5t28.5 -139q0 -60 -23.5 -105t-72.5 -70t-127 -25zM289 58q36 0 63 4.5t37 11.5q11 8 22.5 29.5t11.5 75.5q0 45 -6 83.5t-23 55.5q-12 12 -36.5 15.5t-63.5 3.5
q-41 0 -76 -3.5t-55 -6.5v-258q12 -2 31.5 -5t44 -4.5t50.5 -1.5z" />
    <glyph glyph-name="uni044A" unicode="&#x44a;" horiz-adv-x="660" 
d="M16 509v73h231l-83 -70zM367 -13q-41 0 -80 2t-71 5t-54 7l1 259l-1 322h84v-180q19 2 39 3t39 2t33 1q72 1 124 -16.5t80.5 -65.5t28.5 -139q0 -60 -23.5 -105t-72.5 -70t-127 -25zM372 58q36 0 63 4.5t37 11.5q11 8 22.5 29.5t11.5 75.5q0 45 -6 83.5t-23 55.5
q-12 12 -36.5 15.5t-63.5 3.5q-41 0 -76 -3.5t-55 -6.5v-258q12 -2 31.5 -5t44 -4.5t50.5 -1.5z" />
    <glyph glyph-name="uni044B" unicode="&#x44b;" horiz-adv-x="820" 
d="M646 -1l4 257l-4 326h84l-5 -256l5 -326zM306 -13q-41 0 -80 2t-71 5t-54 7l1 259l-1 322h84v-180q19 2 39 3t39 2t33 1q72 1 124 -16.5t80.5 -65.5t28.5 -139q0 -60 -23.5 -105t-72.5 -70t-127 -25zM311 58q36 0 63 4.5t37 11.5q11 8 22.5 29.5t11.5 75.5q0 45 -6 83.5
t-23 55.5q-12 12 -36.5 15.5t-63.5 3.5q-41 0 -76 -3.5t-55 -6.5v-258q12 -2 31.5 -5t44 -4.5t50.5 -1.5z" />
    <glyph glyph-name="uni0459" unicode="&#x459;" horiz-adv-x="873" 
d="M8 -13l-11 65q14 1 31.5 4.5t30.5 11.5q9 6 16.5 17t14 40.5t10.5 90.5l27 366h342v-180q19 2 39 3t39 2t33 1q72 1 124 -16.5t80.5 -65.5t28.5 -139q0 -60 -23.5 -105t-72.5 -70t-127 -25q-41 0 -80 2t-71 5t-54 7l1 259l-1 249l-87 1l-94 -1l-31 -364
q-6 -74 -38.5 -116t-103.5 -42h-11.5h-11.5zM595 58q36 0 63 4.5t37 11.5q11 8 22.5 29.5t11.5 75.5q0 45 -6 83.5t-23 55.5q-12 12 -36.5 15.5t-63.5 3.5q-41 0 -76 -3.5t-55 -6.5v-258q12 -2 31.5 -5t44 -4.5t50.5 -1.5z" />
    <glyph glyph-name="uni045A" unicode="&#x45a;" horiz-adv-x="903" 
d="M90 0v582h83l-1 -288l1 -294h-83zM97 266v72h396v-72l-179 1zM657 -13q-41 0 -80 2t-71 5t-54 7l1 274l-1 307h84v-180q19 2 39 3t39 2t33 1q72 1 124 -16.5t80.5 -65.5t28.5 -139q0 -60 -23.5 -105t-72.5 -70t-127 -25zM662 58q36 0 63 4.5t37 11.5q11 8 22.5 29.5
t11.5 75.5q0 45 -6 83.5t-23 55.5q-12 12 -36.5 15.5t-63.5 3.5q-41 0 -76 -3.5t-55 -6.5v-258q12 -2 31.5 -5t44 -4.5t50.5 -1.5z" />
    <glyph glyph-name="uni0455" unicode="&#x455;" horiz-adv-x="492" 
d="M245 -13q-37 0 -71 7.5t-61 17t-42.5 16.5l-15.5 7l21 71l15.5 -7t41.5 -16.5t59 -16.5t68 -7q20 0 37 3.5t27 12.5q11 10 20 30t9 48q0 42 -20 64t-52 34t-68 22q-29 8 -57 18t-50.5 27t-36 45.5t-13.5 73.5q0 71 43.5 114.5t146.5 43.5q35 0 67 -4.5t56.5 -10
t36.5 -9.5l-13 -70l-13.5 3.5t-36.5 7.5t-52 7.5t-61 3.5q-30 0 -48 -3.5t-27 -10.5t-15 -22.5t-6 -36.5q0 -42 23.5 -63t60 -32t75.5 -23q27 -8 52 -19t45.5 -29t32 -46t11.5 -69q0 -81 -48.5 -131.5t-140.5 -50.5z" />
    <glyph glyph-name="uni0454" unicode="&#x454;" horiz-adv-x="525" 
d="M149 261v72h249v-72h-249zM300 -13q-68 0 -120 31t-81 98.5t-29 176.5q0 89 19.5 148t53.5 92.5t80 47.5t98 14q38 0 77.5 -5t64.5 -11l-10 -70q-19 2 -60 7.5t-88 5.5q-37 0 -62.5 -6t-39.5 -20q-19 -21 -32.5 -76.5t-13.5 -132.5q0 -71 11 -114.5t26 -66t27 -31.5
q8 -6 21.5 -11t38.5 -5q29 0 59 7t55 16t40.5 16l15.5 7l26 -65l-22 -13t-62 -26.5t-93 -13.5z" />
    <glyph glyph-name="uni044D" unicode="&#x44d;" horiz-adv-x="525" 
d="M376 261h-249v72h249v-72zM225 -13q-53 0 -93 13.5t-62 26.5l-22 13l26 65l15.5 -7t40.5 -16t55 -16t59 -7q25 0 38.5 5t21.5 11q13 9 27.5 31.5t25.5 66t11 114.5q0 77 -13 132.5t-33 76.5q-14 14 -39 20t-63 6q-47 0 -88 -5.5t-60 -7.5l-10 70q25 6 64.5 11t77.5 5
q53 0 98.5 -14t79.5 -47.5t53.5 -92.5t19.5 -148q0 -109 -29 -176.5t-80.5 -98.5t-120.5 -31z" />
    <glyph glyph-name="uni0456" unicode="&#x456;" 
d="M106 0v582h83v-582h-83zM97 681v85h102v-85h-102z" />
    <glyph glyph-name="uni0457" unicode="&#x457;" 
d="M106 0v582h83v-582h-83zM5 684v82h99v-82h-99zM192 684v82h98v-82h-98z" />
    <glyph glyph-name="uni0458" unicode="&#x458;" horiz-adv-x="307" 
d="M43 -180q-13 0 -27 1.5t-23.5 2.5l-9.5 1l9 74l8.5 -1t22.5 -2t30 -1q26 0 40 8.5t19.5 41.5t5.5 105v532h83v-529q0 -88 -21 -139t-57 -72.5t-80 -21.5zM109 681v85h102v-85h-102z" />
    <glyph glyph-name="uni045B" unicode="&#x45b;" horiz-adv-x="596" 
d="M96 753h83v-277q27 12 58 23t62 18.5t56 7.5q60 0 93 -24t46.5 -70t13.5 -114v-317h-84v288q0 57 -4 89t-16 49q-10 14 -24.5 17.5t-35.5 3.5q-22 0 -44.5 -4t-44 -10.5t-41 -13.5t-35.5 -14v-405h-83v753zM-4 614v65h319v-65l-190 2z" />
    <glyph glyph-name="uni044E" unicode="&#x44e;" horiz-adv-x="816" 
d="M90 0v582h83l-3 -252h168l1 -72h-169l3 -258h-83zM516 -13q-73 0 -124.5 35.5t-78 103.5t-26.5 164q0 104 28.5 171.5t80.5 100.5t120 33q83 0 133.5 -35.5t73.5 -104t23 -166.5q0 -96 -27 -163.5t-78 -103t-125 -35.5zM516 59q35 0 62.5 8.5t46 32t28 68.5t9.5 118
q0 100 -16.5 151t-48.5 68.5t-81 17.5q-48 0 -80.5 -17.5t-48.5 -68.5t-16 -151q0 -73 9.5 -118t28 -68.5t45.5 -32t62 -8.5z" />
    <glyph glyph-name="uni044F" unicode="&#x44f;" horiz-adv-x="613" 
d="M90 0l145 229q-61 9 -102 50t-41 132q0 75 30.5 114.5t80 54.5t107.5 15q24 0 50.5 -1t52.5 -3t48 -3.5t38 -3t21 -2.5l-2 -303l5 -279h-83v234q-23 -3 -55.5 -5t-67.5 -3l-130 -226h-97zM313 301q29 0 62 2.5t65 6.5v205q-24 3 -57 7t-77 4q-32 0 -55 -4t-35 -10
q-19 -9 -29.5 -34t-10.5 -66q0 -31 5 -52.5t20 -34.5t43 -18.5t69 -5.5z" />
    <glyph glyph-name="uni0452" unicode="&#x452;" horiz-adv-x="650" 
d="M349 -180q-17 0 -38 2.5t-32 4.5l10 72q10 -1 32.5 -3.5t39.5 -2.5q30 0 46.5 17t16.5 78v18l84 -5v-4.5v-4.5q0 -83 -46 -127.5t-113 -44.5zM96 753h83v-277q27 12 58 23t62 18.5t56 7.5q60 0 93 -24t46.5 -70t13.5 -114v-317h-84v288q0 57 -4 89t-16 49
q-10 14 -24.5 17.5t-35.5 3.5q-22 0 -44.5 -4t-44 -10.5t-41 -13.5t-35.5 -14v-405h-83v753zM-4 614v65h319v-65l-190 2z" />
    <glyph glyph-name="uni0463" unicode="&#x463;" horiz-adv-x="629" 
d="M346 -13q-41 0 -80 2t-71 5t-54 7l1 401l-1 351h84v-351q19 2 39 3t39 2t33 1q72 1 124 -16.5t80.5 -65.5t28.5 -139q0 -60 -23.5 -105t-72.5 -70t-127 -25zM351 58q36 0 63 4.5t37 11.5q11 8 22.5 29.5t11.5 75.5q0 45 -6 83.5t-23 55.5q-12 12 -36.5 15.5t-63.5 3.5
q-41 0 -76 -3.5t-55 -6.5v-258q12 -2 31.5 -5t44 -4.5t50.5 -1.5zM41 614v65h319v-65l-190 2z" />
    <glyph glyph-name="uni0473" unicode="&#x473;" horiz-adv-x="576" 
d="M288 -13q-75 0 -123.5 34t-71.5 101.5t-23 168.5q0 110 24.5 176.5t73 97t120.5 30.5q76 0 124 -33t71 -100t23 -171q0 -109 -24.5 -176t-73 -97.5t-120.5 -30.5zM288 59q53 0 82 24.5t40 74.5t11 124q0 88 -12 141t-41 76.5t-80 23.5q-53 0 -82.5 -25t-40.5 -74.5
t-11 -124.5q0 -87 12.5 -140t41.5 -76.5t80 -23.5zM480 321q0 -32 -11 -52t-30 -29t-44 -9t-55 5.5t-60.5 12t-54.5 12t-37 5.5q-22 0 -32.5 -5.5t-24.5 -16.5l-37 -10q0 38 13.5 60t35.5 31.5t45 9.5q33 0 73.5 -8.5t77 -17.5t55.5 -9q16 0 28.5 5t34.5 21z" />
    <glyph glyph-name="uni0475" unicode="&#x475;" horiz-adv-x="517" 
d="M510 530h-12.5h-10.5q-27 0 -39.5 -12.5t-18.5 -33.5q-11 -40 -18.5 -67.5t-14.5 -50.5l-74 21l10.5 42t16.5 65q9 35 21 55t28 30q13 8 32 12.5t38 4.5q15 0 24 -0.5t18 -2.5v-63zM408 408l-117 -408h-108l-169 582h89l140 -548l-47 37h82l-47 -37l105 410z" />
    <glyph glyph-name="uni0493" unicode="&#x493;" horiz-adv-x="534" 
d="M69 264v73h357v-73l-194 1zM179 0v582h81l2 -582h-83zM219 582h270v-73l-270 2v71z" />
    <glyph glyph-name="uni0497" unicode="&#x497;" horiz-adv-x="797" 
d="M725 -136l-24 208h88v-208h-64zM17 0l241 289v5l-226 288h102l219 -289l-233 -293h-103zM350 0l5 293l-5 289h83l-5 -289l5 -293h-83zM663 0l-233 293l219 289h102l-226 -288v-5l241 -289h-103z" />
    <glyph glyph-name="uni049B" unicode="&#x49b;" horiz-adv-x="556" 
d="M480 -136l-24 208h88v-208h-64zM417 0l-233 293l219 289h108l-236 -288v-5l250 -289h-108zM105 0l5 293l-5 289h83l-5 -289l5 -293h-83z" />
    <glyph glyph-name="uni04A3" unicode="&#x4a3;" horiz-adv-x="585" 
d="M489 -136l-24 208h88v-208h-64zM90 0v582h83l-1 -289l1 -293h-83zM434 0l1 288l-1 294h83v-582h-83zM97 261v72h410v-72h-410z" />
    <glyph glyph-name="ustraitcy" unicode="&#x4af;" horiz-adv-x="469" 
d="M193 -166l2 259l10 -64l-197 553h89l146 -462l-50 37h81l-48 -37l146 462h89l-198 -556l11 67l2 -259h-83z" />
    <glyph glyph-name="ustraitstrokecy" unicode="&#x4b1;" horiz-adv-x="469" 
d="M193 -166l2 262l10 -64l-197 550h89l146 -462l-50 37h81l-48 -37l146 462h89l-198 -553l11 67l2 -262h-83zM43 60v73h384v-73l-192 1z" />
    <glyph glyph-name="uni04B3" unicode="&#x4b3;" horiz-adv-x="491" 
d="M426 -136l-24 208h88v-208h-64zM17 0l174 303l-172 279h94l127 -233h5l124 233h94l-172 -281l175 -301h-97l-127 251h-5l-124 -251h-96z" />
    <glyph glyph-name="uni04B7" unicode="&#x4b7;" horiz-adv-x="568" 
d="M490 -136l-24 208h88v-208h-64zM421 0v243q-40 -16 -84.5 -26.5t-86.5 -10.5q-73 0 -112 24t-53.5 70.5t-14.5 113.5v168h83v-138q0 -58 5.5 -92t22.5 -50q14 -12 39.5 -14.5t40.5 -2.5q29 0 55 3.5t47.5 8.5t36.5 9.5t21 7.5v268h83v-582h-83z" />
    <glyph glyph-name="uni04BB" unicode="&#x4bb;" horiz-adv-x="584" 
d="M85 0v753h83v-235l-21 19q27 12 62 25.5t70.5 23t64.5 9.5q59 0 92 -24t46.5 -70t13.5 -114v-387h-83v358q0 56 -4 88t-16 49q-10 14 -24.5 17.5t-35.5 3.5q-24 0 -51 -5.5t-52.5 -13.5t-45 -15.5t-27.5 -12.5l12 19l-1 -488h-83z" />
    <glyph glyph-name="uni04CF" unicode="&#x4cf;" 
d="M106 0v582h83v-582h-83z" />
    <glyph glyph-name="uni04D9" unicode="&#x4d9;" horiz-adv-x="571" 
d="M267 596q70 0 122 -29.5t81 -96.5t29 -180q0 -116 -30.5 -182.5t-82.5 -94t-117 -27.5t-110.5 26.5t-69.5 86.5t-24 162v63h384l-39 -15q5 67 -3 106t-19.5 58.5t-19.5 26.5q-13 12 -33.5 18t-49.5 6q-39 0 -81 -7.5t-75.5 -16t-49.5 -13.5l-24 69q13 6 45 15.5t76 17
t91 7.5zM410 294l39 -36l-337 -7l38 37q-1 -71 3 -122t20 -78q8 -11 24.5 -20.5t65.5 -9.5q51 0 77 11t39 29q37 49 31 196z" />
    <glyph glyph-name="uni04E3" unicode="&#x4e3;" horiz-adv-x="627" 
d="M99 0v582h83l-10 -491h5l256 491h106v-582h-83l10 491h-4l-257 -491h-106zM160 690v65h320v-65h-320z" />
    <glyph glyph-name="uni04E9" unicode="&#x4e9;" horiz-adv-x="576" 
d="M79 255v73h416v-73l-209 1zM288 -13q-83 0 -130.5 37t-67.5 105t-20 162t20 162t67.5 105t130.5 37t130.5 -37t67.5 -105t20 -162t-20 -162t-67.5 -105t-130.5 -37zM288 59q38 0 63.5 9t41 33t22 70t6.5 120t-6.5 120t-22 70.5t-41 33t-63.5 8.5t-63.5 -8.5t-41 -33
t-22.5 -70.5t-7 -120t7 -120t22.5 -70t41 -33t63.5 -9z" />
    <glyph glyph-name="uni04EF" unicode="&#x4ef;" horiz-adv-x="479" 
d="M119 -166l78 227l-186 521h89l134 -425h4l134 425h89l-196 -545l-58 -203h-88zM80 690v65h320v-65h-320z" />
    <glyph glyph-name="minus" unicode="&#x2212;" horiz-adv-x="600" 
d="M52 258v70h515v-70h-515z" />
    <glyph glyph-name="notequal" unicode="&#x2260;" horiz-adv-x="600" 
d="M52 335v72h514v-72h-514zM52 179v72h514v-72h-514zM149 31l139 289l102 227h81l-118 -255l-122 -261h-82z" />
    <glyph glyph-name="arrowup" unicode="&#x2191;" horiz-adv-x="885" 
d="M780 695v-695h-84l3 559l-510 -573l-73 67l526 562l-557 -4v84h695z" />
    <glyph glyph-name="arrowright" unicode="&#x2192;" horiz-adv-x="885" 
d="M780 0h-695v84l557 -4l-526 562l73 67l510 -573l-3 559h84v-695z" />
    <glyph glyph-name="arrowdown" unicode="&#x2193;" horiz-adv-x="905" 
d="M125 0v695h84l-3 -559l510 573l73 -67l-526 -562l557 4v-84h-695z" />
    <glyph glyph-name="arrowleft" unicode="&#x2190;" horiz-adv-x="885" 
d="M105 695h695v-84l-557 4l526 -562l-73 -67l-510 573l3 -559h-84v695z" />
    <glyph glyph-name="uni0308" unicode="&#x308;" horiz-adv-x="0" 
d="M0 684v82h99v-82h-99zM187 684v82h98v-82h-98z" />
    <glyph glyph-name="uni0307" unicode="&#x307;" horiz-adv-x="0" 
d="M0 681v85h102v-85h-102z" />
    <glyph glyph-name="gravecomb" unicode="&#x300;" horiz-adv-x="0" 
d="M194 654l-194 67l30 67l184 -84z" />
    <glyph glyph-name="acutecomb" unicode="&#x301;" horiz-adv-x="0" 
d="M20 654l-20 50l184 84l30 -67z" />
    <glyph glyph-name="uni030B" unicode="&#x30b;" horiz-adv-x="0" 
d="M33 649l-33 40l153 131l45 -59zM220 649l-32 40l160 131l45 -59z" />
    <glyph glyph-name="uni0302" unicode="&#x302;" horiz-adv-x="0" 
d="M29 659l-29 34l121 109h51l121 -109l-29 -34l-114 71h-7z" />
    <glyph glyph-name="uni030C" unicode="&#x30c;" horiz-adv-x="0" 
d="M121 663l-121 109l29 34l114 -71h7l114 71l29 -34l-121 -109h-51z" />
    <glyph glyph-name="uni0306" unicode="&#x306;" horiz-adv-x="0" 
d="M149 657q-37 0 -70.5 14.5t-55 46t-23.5 82.5l57 6q4 -46 29 -64t63 -18t63 18t29 64l57 -6q-2 -51 -24 -82.5t-55 -46t-70 -14.5z" />
    <glyph glyph-name="uni030A" unicode="&#x30a;" horiz-adv-x="0" 
d="M84 647q-21 0 -40 7.5t-31.5 25.5t-12.5 50q0 33 12.5 51t31.5 25.5t40 7.5t40 -7.5t31.5 -25.5t12.5 -51q0 -32 -12.5 -50t-31.5 -25.5t-40 -7.5zM84 693q18 0 26 7t8 30q0 24 -8 31t-26 7t-27 -7t-9 -31q0 -23 9 -30t27 -7z" />
    <glyph glyph-name="tildecomb" unicode="&#x303;" horiz-adv-x="0" 
d="M234 675q-16 0 -39.5 7.5t-47.5 17.5t-42.5 17.5t-25.5 7.5q-6 0 -12.5 -11.5t-10.5 -23l-4 -11.5l-52 6q0 57 19.5 79t53.5 22q17 0 39.5 -7t45.5 -16.5t41.5 -17t25.5 -7.5t13 11t10.5 22.5l4.5 11.5l53 -7q0 -56 -18.5 -78.5t-53.5 -22.5z" />
    <glyph glyph-name="uni0304" unicode="&#x304;" horiz-adv-x="0" 
d="M0 690v65h320v-65h-320z" />
    <glyph glyph-name="hookabovecomb" unicode="&#x309;" horiz-adv-x="0" 
d="M0 799v54q2 2 20 3t31 1q47 0 69 -21.5t22 -52.5q0 -22 -8.5 -40.5t-27 -35.5t-48.5 -36l-33 29q32 29 44.5 44.5t12.5 29.5q0 25 -27 25h-55z" />
    <glyph glyph-name="uni0312" unicode="&#x312;" horiz-adv-x="0" 
d="M22 772q23 -8 45.5 -24t38 -47t18.5 -87l1 -20h-78v25q0 52 -8.5 74t-38.5 38z" />
    <glyph glyph-name="uni031B" unicode="&#x31b;" horiz-adv-x="0" 
d="M-47 582h86q15 0 26 7t11 24q0 11 -3 30t-7 40t-8 37h73q5 -19 10 -44t5 -49q0 -33 -15.5 -56t-42 -35t-59.5 -12h-63z" />
    <glyph glyph-name="dotbelowcomb" unicode="&#x323;" horiz-adv-x="0" 
d="M0 -166v85h102v-85h-102z" />
    <glyph glyph-name="uni0326" unicode="&#x326;" horiz-adv-x="0" 
d="M22 -233l-22 41q30 16 38.5 38t8.5 74v25h78l-1 -20q-3 -55 -18.5 -86.5t-38 -47t-45.5 -24.5z" />
    <glyph glyph-name="uni0327" unicode="&#x327;" horiz-adv-x="0" 
d="M73 -179q-27 0 -50 4.5l-23 4.5v62l12 -1t27 -2.5t25 -1.5q30 0 42 5.5t12 25.5q0 26 -5 50t-9 38l59 4q4 -9 8 -24t7.5 -32t3.5 -33q0 -46 -31 -73t-78 -27z" />
    <glyph glyph-name="uni0328" unicode="&#x328;" horiz-adv-x="0" 
d="M102 -179q-43 0 -72.5 17.5t-29.5 58.5q0 28 19.5 52.5t48 43t53.5 28.5l42 -21q-40 -16 -68 -41.5t-28 -44.5q0 -18 12.5 -24t33.5 -6q16 0 33 2l17 2v-59l-17.5 -4t-43.5 -4z" />
    <glyph glyph-name="uni0307.case" horiz-adv-x="0" 
d="M0 763v82h104v-82h-104z" />
    <glyph glyph-name="gravecomb.case" horiz-adv-x="0" 
d="M235 733l-235 66l26 68l227 -83z" />
    <glyph glyph-name="acutecomb.case" horiz-adv-x="0" 
d="M18 733l-18 51l225 82l28 -73z" />
    <glyph glyph-name="uni030B.case" horiz-adv-x="0" 
d="M53 740l-26 47l181 100l40 -58zM262 740l-25 46l175 90l39 -63z" />
    <glyph glyph-name="uni0302.case" horiz-adv-x="0" 
d="M28 733l-28 38l121 95h51l121 -95l-28 -38l-115 61h-7z" />
    <glyph glyph-name="uni030C.case" horiz-adv-x="0" 
d="M121 746l-121 95l28 38l115 -61h7l115 61l28 -38l-121 -95h-51z" />
    <glyph glyph-name="uni0306.case" horiz-adv-x="0" 
d="M149 739q-37 0 -70.5 14t-55 42.5t-23.5 73.5l57 5q4 -37 29 -53t63 -16t63 16t29 53l57 -5q-2 -45 -24 -73.5t-55 -42.5t-70 -14z" />
    </font>
</defs>
</svg>
